<?xml version="1.0" encoding="utf-8" standalone="no"?>
<!DOCTYPE svg PUBLIC "-//W3C//DTD SVG 1.1//EN"
  "http://www.w3.org/Graphics/SVG/1.1/DTD/svg11.dtd">
<!-- Created with matplotlib (https://matplotlib.org/) -->
<svg height="252pt" version="1.1" viewBox="0 0 720 252" width="720pt" xmlns="http://www.w3.org/2000/svg" xmlns:xlink="http://www.w3.org/1999/xlink">
 <defs>
  <style type="text/css">
*{stroke-linecap:butt;stroke-linejoin:round;}
  </style>
 </defs>
 <g id="figure_1">
  <g id="patch_1">
   <path d="M 0 252 
L 720 252 
L 720 0 
L 0 0 
z
" style="fill:#ffffff;"/>
  </g>
  <g id="axes_1">
   <g id="patch_2">
    <path d="M 72 201.6 
L 648 201.6 
L 648 25.2 
L 72 25.2 
z
" style="fill:#ffffff;"/>
   </g>
   <g id="matplotlib.axis_1">
    <g id="xtick_1">
     <g id="line2d_1">
      <defs>
       <path d="M 0 0 
L 0 6 
" id="mfe20f7a627" style="stroke:#1a1a1a;stroke-width:1.25;"/>
      </defs>
      <g>
       <use style="fill:#262626;stroke:#1a1a1a;stroke-width:1.25;" x="98.181818" xlink:href="#mfe20f7a627" y="201.6"/>
      </g>
     </g>
     <g id="text_1">
      <!-- $0$ -->
      <defs>
       <path d="M 42 31.640625 
C 42 37.75 41.90625 48.125 37.703125 56.109375 
C 34 63.109375 28.09375 65.59375 22.90625 65.59375 
C 18.09375 65.59375 12 63.40625 8.203125 56.203125 
C 4.203125 48.71875 3.796875 39.4375 3.796875 31.640625 
C 3.796875 25.953125 3.90625 17.28125 7 9.671875 
C 11.296875 -0.609375 19 -2 22.90625 -2 
C 27.5 -2 34.5 -0.109375 38.59375 9.375 
C 41.59375 16.28125 42 24.359375 42 31.640625 
z
M 22.90625 -0.40625 
C 16.5 -0.40625 12.703125 5.078125 11.296875 12.6875 
C 10.203125 18.5625 10.203125 27.15625 10.203125 32.75 
C 10.203125 40.4375 10.203125 46.828125 11.5 52.921875 
C 13.40625 61.390625 19 64 22.90625 64 
C 27 64 32.296875 61.296875 34.203125 53.125 
C 35.5 47.4375 35.59375 40.734375 35.59375 32.75 
C 35.59375 26.25 35.59375 18.265625 34.40625 12.375 
C 32.296875 1.484375 26.40625 -0.40625 22.90625 -0.40625 
z
" id="CMR17-48"/>
      </defs>
      <g style="fill:#262626;" transform="translate(94.523699 221.477725)scale(0.15 -0.15)">
       <use transform="scale(0.996264)" xlink:href="#CMR17-48"/>
      </g>
     </g>
    </g>
    <g id="xtick_2">
     <g id="line2d_2">
      <g>
       <use style="fill:#262626;stroke:#1a1a1a;stroke-width:1.25;" x="206.858586" xlink:href="#mfe20f7a627" y="201.6"/>
      </g>
     </g>
     <g id="text_2">
      <!-- $20$ -->
      <defs>
       <path d="M 41.703125 15.453125 
L 39.90625 15.453125 
C 38.90625 8.375 38.09375 7.171875 37.703125 6.5625 
C 37.203125 5.765625 30 5.765625 28.59375 5.765625 
L 9.40625 5.765625 
C 13 9.671875 20 16.75 28.5 24.953125 
C 34.59375 30.734375 41.703125 37.53125 41.703125 47.421875 
C 41.703125 59.21875 32.296875 66 21.796875 66 
C 10.796875 66 4.09375 56.3125 4.09375 47.34375 
C 4.09375 43.4375 7 42.9375 8.203125 42.9375 
C 9.203125 42.9375 12.203125 43.546875 12.203125 47.03125 
C 12.203125 50.109375 9.59375 51 8.203125 51 
C 7.59375 51 7 50.90625 6.59375 50.703125 
C 8.5 59.21875 14.296875 63.40625 20.40625 63.40625 
C 29.09375 63.40625 34.796875 56.515625 34.796875 47.421875 
C 34.796875 38.734375 29.703125 31.25 24 24.75 
L 4.09375 2.28125 
L 4.09375 0 
L 39.296875 0 
z
" id="CMR17-50"/>
      </defs>
      <g style="fill:#262626;" transform="translate(199.542348 221.477725)scale(0.15 -0.15)">
       <use transform="scale(0.996264)" xlink:href="#CMR17-50"/>
       <use transform="translate(45.690477 0)scale(0.996264)" xlink:href="#CMR17-48"/>
      </g>
     </g>
    </g>
    <g id="xtick_3">
     <g id="line2d_3">
      <g>
       <use style="fill:#262626;stroke:#1a1a1a;stroke-width:1.25;" x="315.535353" xlink:href="#mfe20f7a627" y="201.6"/>
      </g>
     </g>
     <g id="text_3">
      <!-- $40$ -->
      <defs>
       <path d="M 33.59375 64.40625 
C 33.59375 66.5 33.5 66.5 31.703125 66.5 
L 2 19.59375 
L 2 17 
L 27.796875 17 
L 27.796875 7.140625 
C 27.796875 3.5 27.59375 2.5 20.59375 2.5 
L 18.703125 2.5 
L 18.703125 0 
C 21.90625 0 27.296875 0 30.703125 0 
C 34.09375 0 39.5 0 42.703125 0 
L 42.703125 2.5 
L 40.796875 2.5 
C 33.796875 2.5 33.59375 3.5 33.59375 7.140625 
L 33.59375 17 
L 43.796875 17 
L 43.796875 19.59375 
L 33.59375 19.59375 
z
M 28.09375 57.859375 
L 28.09375 19.59375 
L 4 19.59375 
z
" id="CMR17-52"/>
      </defs>
      <g style="fill:#262626;" transform="translate(308.219116 221.477725)scale(0.15 -0.15)">
       <use transform="scale(0.996264)" xlink:href="#CMR17-52"/>
       <use transform="translate(45.690477 0)scale(0.996264)" xlink:href="#CMR17-48"/>
      </g>
     </g>
    </g>
    <g id="xtick_4">
     <g id="line2d_4">
      <g>
       <use style="fill:#262626;stroke:#1a1a1a;stroke-width:1.25;" x="424.212121" xlink:href="#mfe20f7a627" y="201.6"/>
      </g>
     </g>
     <g id="text_4">
      <!-- $60$ -->
      <defs>
       <path d="M 10.59375 34 
C 10.59375 57.65625 21.796875 63 28.296875 63 
C 30.40625 63 35.5 62.640625 37.5 59 
C 35.90625 59 32.90625 59 32.90625 55.515625 
C 32.90625 52.828125 35.09375 51.921875 36.5 51.921875 
C 37.40625 51.921875 40.09375 52.3125 40.09375 55.625 
C 40.09375 61.78125 35.09375 65.296875 28.203125 65.296875 
C 16.296875 65.296875 3.796875 52.96875 3.796875 31 
C 3.796875 3.953125 15.09375 -2 23.09375 -2 
C 32.796875 -2 42 6.671875 42 20.046875 
C 42 32.515625 33.90625 41.59375 23.703125 41.59375 
C 17.59375 41.59375 13.09375 37.609375 10.59375 30.625 
z
M 23.09375 0.390625 
C 10.796875 0.390625 10.796875 18.75 10.796875 22.4375 
C 10.796875 29.625 14.203125 40 23.5 40 
C 25.203125 40 30.09375 40 33.40625 33.125 
C 35.203125 29.21875 35.203125 25.140625 35.203125 20.140625 
C 35.203125 14.75 35.203125 10.78125 33.09375 6.78125 
C 30.90625 2.671875 27.703125 0.390625 23.09375 0.390625 
z
" id="CMR17-54"/>
      </defs>
      <g style="fill:#262626;" transform="translate(416.895883 221.477725)scale(0.15 -0.15)">
       <use transform="scale(0.996264)" xlink:href="#CMR17-54"/>
       <use transform="translate(45.690477 0)scale(0.996264)" xlink:href="#CMR17-48"/>
      </g>
     </g>
    </g>
    <g id="xtick_5">
     <g id="line2d_5">
      <g>
       <use style="fill:#262626;stroke:#1a1a1a;stroke-width:1.25;" x="532.888889" xlink:href="#mfe20f7a627" y="201.6"/>
      </g>
     </g>
     <g id="text_5">
      <!-- $80$ -->
      <defs>
       <path d="M 27.203125 35.375 
C 33.5 38.546875 39.90625 43.328125 39.90625 50.984375 
C 39.90625 60.015625 31.09375 65.296875 23 65.296875 
C 13.90625 65.296875 5.90625 58.734375 5.90625 49.6875 
C 5.90625 47.203125 6.5 42.921875 10.40625 39.140625 
C 11.40625 38.15625 15.59375 35.171875 18.296875 33.28125 
C 13.796875 30.984375 3.296875 25.53125 3.296875 14.59375 
C 3.296875 4.359375 13.09375 -2 22.796875 -2 
C 33.5 -2 42.5 5.65625 42.5 15.78125 
C 42.5 24.84375 36.40625 29.015625 32.40625 31.703125 
z
M 14.09375 44.09375 
C 13.296875 44.59375 9.296875 47.671875 9.296875 52.359375 
C 9.296875 58.421875 15.59375 63 22.796875 63 
C 30.703125 63 36.5 57.4375 36.5 50.96875 
C 36.5 41.703125 26.09375 36.421875 25.59375 36.421875 
C 25.5 36.421875 25.40625 36.421875 24.59375 37.03125 
z
M 32.5 23.734375 
C 34 22.640625 38.796875 19.375 38.796875 13.296875 
C 38.796875 5.953125 31.40625 0.390625 23 0.390625 
C 13.90625 0.390625 7 6.84375 7 14.6875 
C 7 22.546875 13.09375 29.09375 20 32.1875 
z
" id="CMR17-56"/>
      </defs>
      <g style="fill:#262626;" transform="translate(525.572651 221.477725)scale(0.15 -0.15)">
       <use transform="scale(0.996264)" xlink:href="#CMR17-56"/>
       <use transform="translate(45.690477 0)scale(0.996264)" xlink:href="#CMR17-48"/>
      </g>
     </g>
    </g>
    <g id="xtick_6">
     <g id="line2d_6">
      <g>
       <use style="fill:#262626;stroke:#1a1a1a;stroke-width:1.25;" x="641.565656" xlink:href="#mfe20f7a627" y="201.6"/>
      </g>
     </g>
     <g id="text_6">
      <!-- $100$ -->
      <defs>
       <path d="M 26.59375 63.40625 
C 26.59375 65.5 26.5 65.5 25.09375 65.5 
C 21.203125 61.1875 15.296875 59.796875 9.703125 59.796875 
C 9.40625 59.796875 8.90625 59.796875 8.796875 59.5 
C 8.703125 59.296875 8.703125 59.09375 8.703125 57 
C 11.796875 57 17 57.59375 21 59.984375 
L 21 7.203125 
C 21 3.6875 20.796875 2.5 12.203125 2.5 
L 9.203125 2.5 
L 9.203125 0 
C 14 0 19 0 23.796875 0 
C 28.59375 0 33.59375 0 38.40625 0 
L 38.40625 2.5 
L 35.40625 2.5 
C 26.796875 2.5 26.59375 3.59375 26.59375 7.15625 
z
" id="CMR17-49"/>
      </defs>
      <g style="fill:#262626;" transform="translate(630.591299 221.477725)scale(0.15 -0.15)">
       <use transform="scale(0.996264)" xlink:href="#CMR17-49"/>
       <use transform="translate(45.690477 0)scale(0.996264)" xlink:href="#CMR17-48"/>
       <use transform="translate(91.380954 0)scale(0.996264)" xlink:href="#CMR17-48"/>
      </g>
     </g>
    </g>
    <g id="text_7">
     <!-- Time [h] -->
     <defs>
      <path d="M 62.203125 67.59375 
L 4.5 67.59375 
L 2.796875 45.59375 
L 4.59375 45.59375 
C 5.90625 62.125 7.296875 65 22.703125 65 
C 24.5 65 27.40625 65 28.203125 64.90625 
C 30.09375 64.609375 30.09375 63.40625 30.09375 61.125 
L 30.09375 7.171875 
C 30.09375 3.59375 29.796875 2.5 21.5 2.5 
L 18.703125 2.5 
L 18.703125 0 
C 23.5 0 28.5 0 33.40625 0 
C 38.296875 0 43.296875 0 48.09375 0 
L 48.09375 2.5 
L 45.296875 2.5 
C 37 2.5 36.703125 3.59375 36.703125 7.171875 
L 36.703125 61.125 
C 36.703125 63.3125 36.703125 64.515625 38.5 64.90625 
C 39.296875 65 42.203125 65 44 65 
C 59.296875 65 60.796875 62.125 62.09375 45.59375 
L 63.90625 45.59375 
z
" id="CMR17-84"/>
      <path d="M 15.5 61.078125 
C 15.5 63.265625 13.703125 65.15625 11.40625 65.15625 
C 9.203125 65.15625 7.296875 63.375 7.296875 61.078125 
C 7.296875 58.890625 9.09375 57 11.40625 57 
C 13.59375 57 15.5 58.796875 15.5 61.078125 
z
M 3.796875 42.28125 
L 3.796875 39.703125 
C 9.40625 39.703125 10.203125 39.09375 10.203125 34.328125 
L 10.203125 6.671875 
C 10.203125 2.875 9.796875 2.390625 3.40625 2.390625 
L 3.40625 -0.203125 
C 5.796875 0 10.09375 0 12.59375 0 
C 15 0 19.09375 0 21.40625 -0.203125 
L 21.40625 2.390625 
C 15.5 2.390625 15.296875 2.984375 15.296875 6.5625 
L 15.296875 43.375 
z
" id="CMR17-105"/>
      <path d="M 67.59375 30.203125 
C 67.59375 35.1875 66.703125 43.59375 54.796875 43.59375 
C 48 43.59375 43.296875 39 41.5 33.609375 
L 41.40625 33.609375 
C 40.203125 41.8125 34.296875 43.59375 28.703125 43.59375 
C 20.796875 43.59375 16.703125 37.5 15.203125 33.5 
L 15.09375 33.5 
L 15.09375 43.59375 
L 3.296875 42.5 
L 3.296875 39.90625 
C 9.203125 39.90625 10.09375 39.296875 10.09375 34.5 
L 10.09375 6.6875 
C 10.09375 2.875 9.703125 2.390625 3.296875 2.390625 
L 3.296875 -0.203125 
C 5.703125 0 10.09375 0 12.703125 0 
C 15.296875 0 19.796875 0 22.203125 -0.203125 
L 22.203125 2.390625 
C 15.796875 2.390625 15.40625 2.78125 15.40625 6.6875 
L 15.40625 25.90625 
C 15.40625 35.109375 21 42 28 42 
C 35.40625 42 36.203125 35.40625 36.203125 30.59375 
L 36.203125 6.6875 
C 36.203125 2.875 35.796875 2.390625 29.40625 2.390625 
L 29.40625 -0.203125 
C 31.796875 0 36.203125 0 38.796875 0 
C 41.40625 0 45.90625 0 48.296875 -0.203125 
L 48.296875 2.390625 
C 41.90625 2.390625 41.5 2.78125 41.5 6.6875 
L 41.5 25.90625 
C 41.5 35.109375 47.09375 42 54.09375 42 
C 61.5 42 62.296875 35.40625 62.296875 30.59375 
L 62.296875 6.6875 
C 62.296875 2.875 61.90625 2.390625 55.5 2.390625 
L 55.5 -0.203125 
C 57.90625 0 62.296875 0 64.90625 0 
C 67.5 0 72 0 74.40625 -0.203125 
L 74.40625 2.390625 
C 68 2.390625 67.59375 2.78125 67.59375 6.6875 
z
" id="CMR17-109"/>
      <path d="M 38.09375 23 
C 38.5 23.40625 38.5 23.609375 38.5 24.625 
C 38.5 34.96875 33.09375 44 21.703125 44 
C 11.09375 44 2.703125 33.890625 2.703125 21.609375 
C 2.703125 8.609375 12.203125 -1 22.796875 -1 
C 34 -1 38.40625 9.484375 38.40625 11.5625 
C 38.40625 12.25 37.796875 12.25 37.59375 12.25 
C 36.90625 12.25 36.796875 12.046875 36.40625 10.875 
C 34.203125 4.140625 28.703125 0.796875 23.5 0.796875 
C 19.203125 0.796875 14.90625 3.171875 12.203125 7.5 
C 9.09375 12.546875 9.09375 18.375 9.09375 23 
z
M 9.203125 24.5 
C 9.90625 39.140625 17.59375 42.40625 21.59375 42.40625 
C 28.40625 42.40625 33 35.890625 33.09375 24.5 
z
" id="CMR17-101"/>
      <path d="M 23.5 -25 
L 23.5 -21.515625 
L 14.09375 -21.515625 
L 14.09375 71 
L 23.5 71 
L 23.5 74.484375 
L 10.59375 74.484375 
L 10.59375 -25 
z
" id="CMR17-91"/>
      <path d="M 41.5 30.203125 
C 41.5 35.296875 40.5 43.59375 28.703125 43.59375 
C 20.5 43.59375 16.5 37 15.296875 33.703125 
L 15.203125 33.703125 
L 15.203125 68.6875 
L 3.296875 67.59375 
L 3.296875 65 
C 9.203125 65 10.09375 64.40625 10.09375 59.640625 
L 10.09375 6.65625 
C 10.09375 2.875 9.703125 2.390625 3.296875 2.390625 
L 3.296875 -0.203125 
C 5.703125 0 10.09375 0 12.703125 0 
C 15.296875 0 19.796875 0 22.203125 -0.203125 
L 22.203125 2.390625 
C 15.796875 2.390625 15.40625 2.78125 15.40625 6.6875 
L 15.40625 25.90625 
C 15.40625 35.109375 21 42 28 42 
C 35.40625 42 36.203125 35.40625 36.203125 30.59375 
L 36.203125 6.6875 
C 36.203125 2.875 35.796875 2.390625 29.40625 2.390625 
L 29.40625 -0.203125 
C 31.796875 0 36.203125 0 38.796875 0 
C 41.40625 0 45.90625 0 48.296875 -0.203125 
L 48.296875 2.390625 
C 41.90625 2.390625 41.5 2.78125 41.5 6.6875 
z
" id="CMR17-104"/>
      <path d="M 14.296875 74.484375 
L 1.40625 74.484375 
L 1.40625 71 
L 10.796875 71 
L 10.796875 -21.515625 
L 1.40625 -21.515625 
L 1.40625 -25 
L 14.296875 -25 
z
" id="CMR17-93"/>
     </defs>
     <g style="fill:#262626;" transform="translate(326.050057 243.309492)scale(0.2 -0.2)">
      <use transform="scale(0.996264)" xlink:href="#CMR17-84"/>
      <use transform="translate(66.509881 0)scale(0.996264)" xlink:href="#CMR17-105"/>
      <use transform="translate(91.380939 0)scale(0.996264)" xlink:href="#CMR17-109"/>
      <use transform="translate(168.300529 0)scale(0.996264)" xlink:href="#CMR17-101"/>
      <use transform="translate(238.862156 0)scale(0.996264)" xlink:href="#CMR17-91"/>
      <use transform="translate(263.733214 0)scale(0.996264)" xlink:href="#CMR17-104"/>
      <use transform="translate(314.628584 0)scale(0.996264)" xlink:href="#CMR17-93"/>
     </g>
    </g>
   </g>
   <g id="matplotlib.axis_2">
    <g id="ytick_1">
     <g id="line2d_7">
      <defs>
       <path d="M 0 0 
L -6 0 
" id="m1fb4ef4fdd" style="stroke:#1a1a1a;stroke-width:1.25;"/>
      </defs>
      <g>
       <use style="fill:#262626;stroke:#1a1a1a;stroke-width:1.25;" x="72" xlink:href="#m1fb4ef4fdd" y="182.74928"/>
      </g>
     </g>
     <g id="text_8">
      <!-- $10^{2}$ -->
      <g style="fill:#262626;" transform="translate(42.637154 187.938142)scale(0.15 -0.15)">
       <use transform="scale(0.996264)" xlink:href="#CMR17-49"/>
       <use transform="translate(45.690477 0)scale(0.996264)" xlink:href="#CMR17-48"/>
       <use transform="translate(91.380954 36.153639)scale(0.697382)" xlink:href="#CMR17-50"/>
      </g>
     </g>
    </g>
    <g id="ytick_2">
     <g id="line2d_8">
      <g>
       <use style="fill:#262626;stroke:#1a1a1a;stroke-width:1.25;" x="72" xlink:href="#m1fb4ef4fdd" y="98.997987"/>
      </g>
     </g>
     <g id="text_9">
      <!-- $10^{3}$ -->
      <defs>
       <path d="M 22.09375 33.703125 
C 31 33.703125 34.90625 25.96875 34.90625 17.03125 
C 34.90625 5 28.5 0.390625 22.703125 0.390625 
C 17.40625 0.390625 8.796875 3.03125 6.09375 10.828125 
C 6.59375 10.625 7.09375 10.625 7.59375 10.625 
C 10 10.625 11.796875 12.21875 11.796875 14.8125 
C 11.796875 17.703125 9.59375 19 7.59375 19 
C 5.90625 19 3.296875 18.203125 3.296875 14.46875 
C 3.296875 5.234375 12.296875 -2 22.90625 -2 
C 34 -2 42.5 6.71875 42.5 16.953125 
C 42.5 26.671875 34.5 33.703125 25 34.796875 
C 32.59375 36.375 39.90625 43.0625 39.90625 52.015625 
C 39.90625 59.6875 32 65.296875 23 65.296875 
C 13.90625 65.296875 5.90625 59.828125 5.90625 52.015625 
C 5.90625 48.59375 8.5 48 9.796875 48 
C 11.90625 48 13.703125 49.296875 13.703125 51.890625 
C 13.703125 54.46875 11.90625 55.765625 9.796875 55.765625 
C 9.40625 55.765625 8.90625 55.765625 8.5 55.578125 
C 11.40625 61.859375 19.296875 63 22.796875 63 
C 26.296875 63 32.90625 61.328125 32.90625 51.875 
C 32.90625 49.109375 32.5 44.1875 29.09375 39.84375 
C 26.09375 36 22.703125 36 19.40625 35.6875 
C 18.90625 35.6875 16.59375 35.453125 16.203125 35.453125 
C 15.5 35.359375 15.09375 35.265625 15.09375 34.5 
C 15.09375 33.796875 15.203125 33.703125 17.203125 33.703125 
z
" id="CMR17-51"/>
      </defs>
      <g style="fill:#262626;" transform="translate(42.637154 104.186849)scale(0.15 -0.15)">
       <use transform="scale(0.996264)" xlink:href="#CMR17-49"/>
       <use transform="translate(45.690477 0)scale(0.996264)" xlink:href="#CMR17-48"/>
       <use transform="translate(91.380954 36.153639)scale(0.697382)" xlink:href="#CMR17-51"/>
      </g>
     </g>
    </g>
    <g id="ytick_3">
     <g id="line2d_9">
      <defs>
       <path d="M 0 0 
L -4 0 
" id="m10eaefd1d0" style="stroke:#1a1a1a;"/>
      </defs>
      <g>
       <use style="fill:#262626;stroke:#1a1a1a;" x="72" xlink:href="#m10eaefd1d0" y="201.3294"/>
      </g>
     </g>
    </g>
    <g id="ytick_4">
     <g id="line2d_10">
      <g>
       <use style="fill:#262626;stroke:#1a1a1a;" x="72" xlink:href="#m10eaefd1d0" y="195.72252"/>
      </g>
     </g>
    </g>
    <g id="ytick_5">
     <g id="line2d_11">
      <g>
       <use style="fill:#262626;stroke:#1a1a1a;" x="72" xlink:href="#m10eaefd1d0" y="190.865619"/>
      </g>
     </g>
    </g>
    <g id="ytick_6">
     <g id="line2d_12">
      <g>
       <use style="fill:#262626;stroke:#1a1a1a;" x="72" xlink:href="#m10eaefd1d0" y="186.581529"/>
      </g>
     </g>
    </g>
    <g id="ytick_7">
     <g id="line2d_13">
      <g>
       <use style="fill:#262626;stroke:#1a1a1a;" x="72" xlink:href="#m10eaefd1d0" y="157.537629"/>
      </g>
     </g>
    </g>
    <g id="ytick_8">
     <g id="line2d_14">
      <g>
       <use style="fill:#262626;stroke:#1a1a1a;" x="72" xlink:href="#m10eaefd1d0" y="142.789758"/>
      </g>
     </g>
    </g>
    <g id="ytick_9">
     <g id="line2d_15">
      <g>
       <use style="fill:#262626;stroke:#1a1a1a;" x="72" xlink:href="#m10eaefd1d0" y="132.325977"/>
      </g>
     </g>
    </g>
    <g id="ytick_10">
     <g id="line2d_16">
      <g>
       <use style="fill:#262626;stroke:#1a1a1a;" x="72" xlink:href="#m10eaefd1d0" y="124.209638"/>
      </g>
     </g>
    </g>
    <g id="ytick_11">
     <g id="line2d_17">
      <g>
       <use style="fill:#262626;stroke:#1a1a1a;" x="72" xlink:href="#m10eaefd1d0" y="117.578107"/>
      </g>
     </g>
    </g>
    <g id="ytick_12">
     <g id="line2d_18">
      <g>
       <use style="fill:#262626;stroke:#1a1a1a;" x="72" xlink:href="#m10eaefd1d0" y="111.971226"/>
      </g>
     </g>
    </g>
    <g id="ytick_13">
     <g id="line2d_19">
      <g>
       <use style="fill:#262626;stroke:#1a1a1a;" x="72" xlink:href="#m10eaefd1d0" y="107.114326"/>
      </g>
     </g>
    </g>
    <g id="ytick_14">
     <g id="line2d_20">
      <g>
       <use style="fill:#262626;stroke:#1a1a1a;" x="72" xlink:href="#m10eaefd1d0" y="102.830236"/>
      </g>
     </g>
    </g>
    <g id="ytick_15">
     <g id="line2d_21">
      <g>
       <use style="fill:#262626;stroke:#1a1a1a;" x="72" xlink:href="#m10eaefd1d0" y="73.786336"/>
      </g>
     </g>
    </g>
    <g id="ytick_16">
     <g id="line2d_22">
      <g>
       <use style="fill:#262626;stroke:#1a1a1a;" x="72" xlink:href="#m10eaefd1d0" y="59.038465"/>
      </g>
     </g>
    </g>
    <g id="ytick_17">
     <g id="line2d_23">
      <g>
       <use style="fill:#262626;stroke:#1a1a1a;" x="72" xlink:href="#m10eaefd1d0" y="48.574684"/>
      </g>
     </g>
    </g>
    <g id="ytick_18">
     <g id="line2d_24">
      <g>
       <use style="fill:#262626;stroke:#1a1a1a;" x="72" xlink:href="#m10eaefd1d0" y="40.458345"/>
      </g>
     </g>
    </g>
    <g id="ytick_19">
     <g id="line2d_25">
      <g>
       <use style="fill:#262626;stroke:#1a1a1a;" x="72" xlink:href="#m10eaefd1d0" y="33.826814"/>
      </g>
     </g>
    </g>
    <g id="ytick_20">
     <g id="line2d_26">
      <g>
       <use style="fill:#262626;stroke:#1a1a1a;" x="72" xlink:href="#m10eaefd1d0" y="28.219933"/>
      </g>
     </g>
    </g>
    <g id="text_10">
     <!-- $^{32}\mathrm{Ar}$/s -->
     <defs>
      <path d="M 36.296875 68.40625 
C 35.796875 69.703125 35.59375 70 34.59375 70 
C 33.59375 70 33.40625 69.703125 32.90625 68.40625 
L 11.703125 8.84375 
C 9.796875 3.484375 5.796875 2.390625 2.296875 2.390625 
L 2.296875 -0.203125 
C 4.09375 0 8.09375 0 10 0 
C 12.5 0 16.5 0 18.90625 -0.203125 
L 18.90625 2.390625 
C 14.203125 2.390625 13.5 5.640625 13.5 6.859375 
C 13.5 7.765625 13.703125 8.28125 13.90625 8.890625 
L 19.203125 24 
L 45.40625 24 
L 51.40625 6.90625 
C 51.90625 5.703125 51.90625 5.5 51.90625 5.109375 
C 51.90625 2.390625 47.59375 2.390625 45.703125 2.390625 
L 45.703125 0 
C 48.59375 0 53.796875 0 56.90625 0 
C 59.5 0 64.5 0 66.90625 -0.203125 
L 66.90625 2.390625 
C 61.59375 2.390625 59.796875 2.390625 58.5 6.046875 
z
M 32.296875 60.828125 
L 44.5 26.59375 
L 20.09375 26.59375 
z
" id="CMR17-65"/>
      <path d="M 15 23.390625 
C 15 33 19.09375 42 26.59375 42 
C 27.296875 42 28 41.90625 28.703125 41.59375 
C 28.703125 41.59375 26.5 40.890625 26.5 38.3125 
C 26.5 35.90625 28.40625 34.90625 29.90625 34.90625 
C 31.09375 34.90625 33.296875 35.609375 33.296875 38.40625 
C 33.296875 41.609375 30.09375 43.59375 26.703125 43.59375 
C 19.09375 43.59375 15.796875 36.203125 14.796875 32.703125 
L 14.703125 32.703125 
L 14.703125 43.59375 
L 3.09375 42.5 
L 3.09375 39.90625 
C 9 39.90625 9.90625 39.296875 9.90625 34.5 
L 9.90625 6.6875 
C 9.90625 2.875 9.5 2.390625 3.09375 2.390625 
L 3.09375 -0.203125 
C 5.5 0 10.09375 0 12.703125 0 
C 15.59375 0 20.703125 0 23.40625 -0.203125 
L 23.40625 2.390625 
C 16.203125 2.390625 15 2.390625 15 6.875 
z
" id="CMR17-114"/>
      <path d="M 40.703125 71.015625 
C 41.203125 72.296875 41.203125 72.5 41.203125 72.703125 
C 41.203125 73.890625 40.296875 74.5 39.5 74.5 
C 38.296875 74.5 37.90625 73.703125 37.5 72.5 
L 5.09375 -21.515625 
C 4.59375 -22.8125 4.59375 -23.015625 4.59375 -23.21875 
C 4.59375 -24.40625 5.5 -25 6.296875 -25 
C 7.5 -25 7.90625 -24.203125 8.296875 -23.015625 
z
" id="CMR17-47"/>
      <path d="M 30.90625 42.140625 
C 30.90625 43.953125 30.796875 44.046875 30.203125 44.046875 
C 29.796875 44.046875 29.703125 43.953125 28.5 42.453125 
C 28.203125 42.046875 27.296875 41.03125 27 40.640625 
C 23.796875 44.046875 19.296875 44.046875 17.59375 44.046875 
C 6.5 44.046875 2.5 38.234375 2.5 32.4375 
C 2.5 23.40625 12.703125 21.328125 15.59375 20.703125 
C 21.90625 19.421875 24.09375 19.015625 26.203125 17.203125 
C 27.5 16.015625 29.703125 13.8125 29.703125 10.21875 
C 29.703125 6 27.296875 0.59375 18.09375 0.59375 
C 9.40625 0.59375 6.296875 7.1875 4.5 15.953125 
C 4.203125 17.34375 4.203125 17.453125 3.40625 17.453125 
C 2.59375 17.453125 2.5 17.34375 2.5 15.359375 
L 2.5 0.984375 
C 2.5 -0.796875 2.59375 -0.90625 3.203125 -0.90625 
C 3.703125 -0.90625 3.796875 -0.796875 4.296875 0 
C 4.90625 0.890625 6.40625 3.296875 7 4.3125 
C 9 1.609375 12.5 -1 18.09375 -1 
C 28 -1 33.296875 4.421875 33.296875 12.25 
C 33.296875 17.375 30.59375 20.078125 29.296875 21.28125 
C 26.296875 24.390625 22.796875 25.09375 18.59375 25.890625 
C 13.09375 27.109375 6.09375 28.515625 6.09375 34.640625 
C 6.09375 37.234375 7.5 42.765625 17.59375 42.765625 
C 28.296875 42.765625 28.90625 32.71875 29.09375 29.5 
C 29.203125 29 29.703125 28.890625 30 28.890625 
C 30.90625 28.890625 30.90625 29.203125 30.90625 30.90625 
z
" id="CMR17-115"/>
     </defs>
     <g style="fill:#262626;" transform="translate(33.67251 139.062022)rotate(-90)scale(0.2 -0.2)">
      <use transform="translate(0 36.153639)scale(0.697382)" xlink:href="#CMR17-51"/>
      <use transform="translate(31.983182 36.153639)scale(0.697382)" xlink:href="#CMR17-50"/>
      <use transform="translate(64.464496 0)scale(0.996264)" xlink:href="#CMR17-65"/>
      <use transform="translate(133.536926 0)scale(0.996264)" xlink:href="#CMR17-114"/>
      <use transform="translate(168.817694 0)scale(0.996264)" xlink:href="#CMR17-47"/>
      <use transform="translate(214.508171 0)scale(0.996264)" xlink:href="#CMR17-115"/>
     </g>
    </g>
   </g>
   <g id="LineCollection_1">
    <path clip-path="url(#pa50496c026)" d="M 98.181818 120.04291 
L 107.170293 120.04291 
" style="fill:none;stroke:#0000ff;"/>
    <path clip-path="url(#pa50496c026)" d="M 116.723282 123.033473 
L 122.116367 123.033473 
" style="fill:none;stroke:#0000ff;"/>
    <path clip-path="url(#pa50496c026)" d="M 122.744277 119.110536 
L 127.307192 119.110536 
" style="fill:none;stroke:#0000ff;"/>
    <path clip-path="url(#pa50496c026)" d="M 127.877745 110.308262 
L 135.928882 110.308262 
" style="fill:none;stroke:#0000ff;"/>
    <path clip-path="url(#pa50496c026)" d="M 136.330382 109.538337 
L 144.503781 109.538337 
" style="fill:none;stroke:#0000ff;"/>
    <path clip-path="url(#pa50496c026)" d="M 212.715056 129.344406 
L 226.206069 129.344406 
" style="fill:none;stroke:#0000ff;"/>
    <path clip-path="url(#pa50496c026)" d="M 229.104116 100.268911 
L 240.595175 100.268911 
" style="fill:none;stroke:#0000ff;"/>
    <path clip-path="url(#pa50496c026)" d="M 243.17172 151.553501 
L 254.884661 151.553501 
" style="fill:none;stroke:#0000ff;"/>
    <path clip-path="url(#pa50496c026)" d="M 254.970696 100.171084 
L 264.156902 100.171084 
" style="fill:none;stroke:#0000ff;"/>
    <path clip-path="url(#pa50496c026)" d="M 268.743967 90.118245 
L 279.425988 90.118245 
" style="fill:none;stroke:#0000ff;"/>
    <path clip-path="url(#pa50496c026)" d="M 279.481836 91.12003 
L 290.017445 91.12003 
" style="fill:none;stroke:#0000ff;"/>
    <path clip-path="url(#pa50496c026)" d="M 290.052161 92.653185 
L 300.901725 92.653185 
" style="fill:none;stroke:#0000ff;"/>
    <path clip-path="url(#pa50496c026)" d="M 300.928894 87.118749 
L 312.025999 87.118749 
" style="fill:none;stroke:#0000ff;"/>
    <path clip-path="url(#pa50496c026)" d="M 312.05015 87.547013 
L 323.2348 87.547013 
" style="fill:none;stroke:#0000ff;"/>
    <path clip-path="url(#pa50496c026)" d="M 336.485819 89.280268 
L 349.733819 89.280268 
" style="fill:none;stroke:#0000ff;"/>
    <path clip-path="url(#pa50496c026)" d="M 349.789667 91.151365 
L 363.571994 91.151365 
" style="fill:none;stroke:#0000ff;"/>
    <path clip-path="url(#pa50496c026)" d="M 363.719915 96.03369 
L 374.963432 96.03369 
" style="fill:none;stroke:#0000ff;"/>
    <path clip-path="url(#pa50496c026)" d="M 375.090222 97.229516 
L 381.468944 97.229516 
" style="fill:none;stroke:#0000ff;"/>
    <path clip-path="url(#pa50496c026)" d="M 386.022803 104.404167 
L 388.923869 104.404167 
" style="fill:none;stroke:#0000ff;"/>
    <path clip-path="url(#pa50496c026)" d="M 536.352961 68.055727 
L 537.30841 68.055727 
" style="fill:none;stroke:#0000ff;"/>
    <path clip-path="url(#pa50496c026)" d="M 537.364258 66.657121 
L 547.581384 66.657121 
" style="fill:none;stroke:#0000ff;"/>
    <path clip-path="url(#pa50496c026)" d="M 547.720249 66.228186 
L 557.641532 66.228186 
" style="fill:none;stroke:#0000ff;"/>
    <path clip-path="url(#pa50496c026)" d="M 564.150063 68.278253 
L 569.413339 68.278253 
" style="fill:none;stroke:#0000ff;"/>
    <path clip-path="url(#pa50496c026)" d="M 571.12047 66.860922 
L 581.520233 66.860922 
" style="fill:none;stroke:#0000ff;"/>
    <path clip-path="url(#pa50496c026)" d="M 581.606268 66.515978 
L 593.498827 66.515978 
" style="fill:none;stroke:#0000ff;"/>
    <path clip-path="url(#pa50496c026)" d="M 607.453226 61.776796 
L 608.361885 61.776796 
" style="fill:none;stroke:#0000ff;"/>
    <path clip-path="url(#pa50496c026)" d="M 612.308965 38.3093 
L 613.216114 38.3093 
" style="fill:none;stroke:#0000ff;"/>
    <path clip-path="url(#pa50496c026)" d="M 616.633394 48.15398 
L 617.540543 48.15398 
" style="fill:none;stroke:#0000ff;"/>
    <path clip-path="url(#pa50496c026)" d="M 618.637877 26.935762 
L 619.545026 26.935762 
" style="fill:none;stroke:#0000ff;"/>
    <path clip-path="url(#pa50496c026)" d="M 620.912542 27.967269 
L 621.818182 27.967269 
" style="fill:none;stroke:#0000ff;"/>
   </g>
   <g id="LineCollection_2">
    <path clip-path="url(#pa50496c026)" d="M 102.676055 120.062821 
L 102.676055 120.023009 
" style="fill:none;stroke:#0000ff;"/>
    <path clip-path="url(#pa50496c026)" d="M 119.419825 123.06026 
L 119.419825 123.006707 
" style="fill:none;stroke:#0000ff;"/>
    <path clip-path="url(#pa50496c026)" d="M 125.025734 119.138128 
L 125.025734 119.082964 
" style="fill:none;stroke:#0000ff;"/>
    <path clip-path="url(#pa50496c026)" d="M 131.903314 110.326664 
L 131.903314 110.289868 
" style="fill:none;stroke:#0000ff;"/>
    <path clip-path="url(#pa50496c026)" d="M 140.417082 109.556409 
L 140.417082 109.520274 
" style="fill:none;stroke:#0000ff;"/>
    <path clip-path="url(#pa50496c026)" d="M 219.460563 129.362874 
L 219.460563 129.325946 
" style="fill:none;stroke:#0000ff;"/>
    <path clip-path="url(#pa50496c026)" d="M 234.849646 100.282328 
L 234.849646 100.255498 
" style="fill:none;stroke:#0000ff;"/>
    <path clip-path="url(#pa50496c026)" d="M 249.02819 151.580401 
L 249.02819 151.52662 
" style="fill:none;stroke:#0000ff;"/>
    <path clip-path="url(#pa50496c026)" d="M 259.563799 100.186071 
L 259.563799 100.156104 
" style="fill:none;stroke:#0000ff;"/>
    <path clip-path="url(#pa50496c026)" d="M 274.084978 90.130348 
L 274.084978 90.106145 
" style="fill:none;stroke:#0000ff;"/>
    <path clip-path="url(#pa50496c026)" d="M 284.74964 91.132386 
L 284.74964 91.107678 
" style="fill:none;stroke:#0000ff;"/>
    <path clip-path="url(#pa50496c026)" d="M 295.476943 92.66562 
L 295.476943 92.640753 
" style="fill:none;stroke:#0000ff;"/>
    <path clip-path="url(#pa50496c026)" d="M 306.477447 87.130144 
L 306.477447 87.107357 
" style="fill:none;stroke:#0000ff;"/>
    <path clip-path="url(#pa50496c026)" d="M 317.642475 87.55843 
L 317.642475 87.535599 
" style="fill:none;stroke:#0000ff;"/>
    <path clip-path="url(#pa50496c026)" d="M 343.109819 89.291012 
L 343.109819 89.269528 
" style="fill:none;stroke:#0000ff;"/>
    <path clip-path="url(#pa50496c026)" d="M 356.68083 91.162172 
L 356.68083 91.14056 
" style="fill:none;stroke:#0000ff;"/>
    <path clip-path="url(#pa50496c026)" d="M 369.341674 96.046487 
L 369.341674 96.020898 
" style="fill:none;stroke:#0000ff;"/>
    <path clip-path="url(#pa50496c026)" d="M 378.279583 97.246788 
L 378.279583 97.212251 
" style="fill:none;stroke:#0000ff;"/>
    <path clip-path="url(#pa50496c026)" d="M 387.473336 104.432438 
L 387.473336 104.375918 
" style="fill:none;stroke:#0000ff;"/>
    <path clip-path="url(#pa50496c026)" d="M 536.830685 68.085617 
L 536.830685 68.025862 
" style="fill:none;stroke:#0000ff;"/>
    <path clip-path="url(#pa50496c026)" d="M 542.472821 66.666084 
L 542.472821 66.648159 
" style="fill:none;stroke:#0000ff;"/>
    <path clip-path="url(#pa50496c026)" d="M 552.68089 66.237229 
L 552.68089 66.219145 
" style="fill:none;stroke:#0000ff;"/>
    <path clip-path="url(#pa50496c026)" d="M 566.781701 68.291024 
L 566.781701 68.265487 
" style="fill:none;stroke:#0000ff;"/>
    <path clip-path="url(#pa50496c026)" d="M 576.320351 66.869832 
L 576.320351 66.852015 
" style="fill:none;stroke:#0000ff;"/>
    <path clip-path="url(#pa50496c026)" d="M 587.552548 66.524271 
L 587.552548 66.507688 
" style="fill:none;stroke:#0000ff;"/>
    <path clip-path="url(#pa50496c026)" d="M 607.907556 61.804911 
L 607.907556 61.748703 
" style="fill:none;stroke:#0000ff;"/>
    <path clip-path="url(#pa50496c026)" d="M 612.762539 38.329677 
L 612.762539 38.288934 
" style="fill:none;stroke:#0000ff;"/>
    <path clip-path="url(#pa50496c026)" d="M 617.086969 48.177311 
L 617.086969 48.130663 
" style="fill:none;stroke:#0000ff;"/>
    <path clip-path="url(#pa50496c026)" d="M 619.091452 26.95319 
L 619.091452 26.918344 
" style="fill:none;stroke:#0000ff;"/>
    <path clip-path="url(#pa50496c026)" d="M 621.365362 27.98496 
L 621.365362 27.949587 
" style="fill:none;stroke:#0000ff;"/>
   </g>
   <g id="LineCollection_3">
    <path clip-path="url(#pa50496c026)" d="M 98.181818 184.883669 
L 107.170293 184.883669 
" style="fill:none;stroke:#ff0000;"/>
    <path clip-path="url(#pa50496c026)" d="M 116.723282 187.232796 
L 122.116367 187.232796 
" style="fill:none;stroke:#ff0000;"/>
    <path clip-path="url(#pa50496c026)" d="M 122.744277 184.388876 
L 127.307192 184.388876 
" style="fill:none;stroke:#ff0000;"/>
    <path clip-path="url(#pa50496c026)" d="M 127.877745 177.5102 
L 135.928882 177.5102 
" style="fill:none;stroke:#ff0000;"/>
    <path clip-path="url(#pa50496c026)" d="M 136.330382 176.218644 
L 144.503781 176.218644 
" style="fill:none;stroke:#ff0000;"/>
    <path clip-path="url(#pa50496c026)" d="M 212.715056 194.136709 
L 226.206069 194.136709 
" style="fill:none;stroke:#ff0000;"/>
    <path clip-path="url(#pa50496c026)" d="M 229.104116 169.872772 
L 240.595175 169.872772 
" style="fill:none;stroke:#ff0000;"/>
    <path clip-path="url(#pa50496c026)" d="M 243.17172 201.546496 
L 254.884661 201.546496 
" style="fill:none;stroke:#ff0000;"/>
    <path clip-path="url(#pa50496c026)" d="M 254.970696 177.247713 
L 264.156902 177.247713 
" style="fill:none;stroke:#ff0000;"/>
    <path clip-path="url(#pa50496c026)" d="M 268.743967 172.175479 
L 279.425988 172.175479 
" style="fill:none;stroke:#ff0000;"/>
    <path clip-path="url(#pa50496c026)" d="M 279.481836 173.804321 
L 290.017445 173.804321 
" style="fill:none;stroke:#ff0000;"/>
    <path clip-path="url(#pa50496c026)" d="M 290.052161 176.708516 
L 300.901725 176.708516 
" style="fill:none;stroke:#ff0000;"/>
    <path clip-path="url(#pa50496c026)" d="M 300.928894 174.116695 
L 312.025999 174.116695 
" style="fill:none;stroke:#ff0000;"/>
    <path clip-path="url(#pa50496c026)" d="M 312.05015 174.495521 
L 323.2348 174.495521 
" style="fill:none;stroke:#ff0000;"/>
    <path clip-path="url(#pa50496c026)" d="M 336.485819 179.095137 
L 349.733819 179.095137 
" style="fill:none;stroke:#ff0000;"/>
    <path clip-path="url(#pa50496c026)" d="M 349.789667 182.081089 
L 363.571994 182.081089 
" style="fill:none;stroke:#ff0000;"/>
    <path clip-path="url(#pa50496c026)" d="M 363.719915 187.536678 
L 374.963432 187.536678 
" style="fill:none;stroke:#ff0000;"/>
    <path clip-path="url(#pa50496c026)" d="M 375.090222 188.746608 
L 381.468944 188.746608 
" style="fill:none;stroke:#ff0000;"/>
    <path clip-path="url(#pa50496c026)" d="M 386.022803 190.171617 
L 388.923869 190.171617 
" style="fill:none;stroke:#ff0000;"/>
    <path clip-path="url(#pa50496c026)" d="M 536.352961 164.730988 
L 537.30841 164.730988 
" style="fill:none;stroke:#ff0000;"/>
    <path clip-path="url(#pa50496c026)" d="M 537.364258 165.558289 
L 547.581384 165.558289 
" style="fill:none;stroke:#ff0000;"/>
    <path clip-path="url(#pa50496c026)" d="M 547.720249 166.17775 
L 557.641532 166.17775 
" style="fill:none;stroke:#ff0000;"/>
    <path clip-path="url(#pa50496c026)" d="M 564.150063 170.454541 
L 569.413339 170.454541 
" style="fill:none;stroke:#ff0000;"/>
    <path clip-path="url(#pa50496c026)" d="M 571.12047 170.0559 
L 581.520233 170.0559 
" style="fill:none;stroke:#ff0000;"/>
    <path clip-path="url(#pa50496c026)" d="M 581.606268 170.273473 
L 593.498827 170.273473 
" style="fill:none;stroke:#ff0000;"/>
    <path clip-path="url(#pa50496c026)" d="M 607.453226 163.915986 
L 608.361885 163.915986 
" style="fill:none;stroke:#ff0000;"/>
    <path clip-path="url(#pa50496c026)" d="M 612.308965 151.472887 
L 613.216114 151.472887 
" style="fill:none;stroke:#ff0000;"/>
    <path clip-path="url(#pa50496c026)" d="M 616.633394 154.537006 
L 617.540543 154.537006 
" style="fill:none;stroke:#ff0000;"/>
    <path clip-path="url(#pa50496c026)" d="M 618.637877 144.673489 
L 619.545026 144.673489 
" style="fill:none;stroke:#ff0000;"/>
    <path clip-path="url(#pa50496c026)" d="M 620.912542 144.430972 
L 621.818182 144.430972 
" style="fill:none;stroke:#ff0000;"/>
   </g>
   <g id="LineCollection_4">
    <path clip-path="url(#pa50496c026)" d="M 102.676055 184.932239 
L 102.676055 184.835164 
" style="fill:none;stroke:#ff0000;"/>
    <path clip-path="url(#pa50496c026)" d="M 119.419825 187.297572 
L 119.419825 187.168135 
" style="fill:none;stroke:#ff0000;"/>
    <path clip-path="url(#pa50496c026)" d="M 125.025734 184.456601 
L 125.025734 184.321276 
" style="fill:none;stroke:#ff0000;"/>
    <path clip-path="url(#pa50496c026)" d="M 131.903314 177.556571 
L 131.903314 177.463888 
" style="fill:none;stroke:#ff0000;"/>
    <path clip-path="url(#pa50496c026)" d="M 140.417082 176.263856 
L 140.417082 176.173487 
" style="fill:none;stroke:#ff0000;"/>
    <path clip-path="url(#pa50496c026)" d="M 219.460563 194.181729 
L 219.460563 194.091745 
" style="fill:none;stroke:#ff0000;"/>
    <path clip-path="url(#pa50496c026)" d="M 234.849646 169.907713 
L 234.849646 169.837865 
" style="fill:none;stroke:#ff0000;"/>
    <path clip-path="url(#pa50496c026)" d="M 249.02819 201.6 
L 249.02819 201.493071 
" style="fill:none;stroke:#ff0000;"/>
    <path clip-path="url(#pa50496c026)" d="M 259.563799 177.290967 
L 259.563799 177.204511 
" style="fill:none;stroke:#ff0000;"/>
    <path clip-path="url(#pa50496c026)" d="M 274.084978 172.212885 
L 274.084978 172.13811 
" style="fill:none;stroke:#ff0000;"/>
    <path clip-path="url(#pa50496c026)" d="M 284.74964 173.84284 
L 284.74964 173.765843 
" style="fill:none;stroke:#ff0000;"/>
    <path clip-path="url(#pa50496c026)" d="M 295.476943 176.74802 
L 295.476943 176.669055 
" style="fill:none;stroke:#ff0000;"/>
    <path clip-path="url(#pa50496c026)" d="M 306.477447 174.154388 
L 306.477447 174.079041 
" style="fill:none;stroke:#ff0000;"/>
    <path clip-path="url(#pa50496c026)" d="M 317.642475 174.533262 
L 317.642475 174.457819 
" style="fill:none;stroke:#ff0000;"/>
    <path clip-path="url(#pa50496c026)" d="M 343.109819 179.132078 
L 343.109819 179.058233 
" style="fill:none;stroke:#ff0000;"/>
    <path clip-path="url(#pa50496c026)" d="M 356.68083 182.118825 
L 356.68083 182.043393 
" style="fill:none;stroke:#ff0000;"/>
    <path clip-path="url(#pa50496c026)" d="M 369.341674 187.581716 
L 369.341674 187.491696 
" style="fill:none;stroke:#ff0000;"/>
    <path clip-path="url(#pa50496c026)" d="M 378.279583 188.807419 
L 378.279583 188.685899 
" style="fill:none;stroke:#ff0000;"/>
    <path clip-path="url(#pa50496c026)" d="M 387.473336 190.263611 
L 387.473336 190.079855 
" style="fill:none;stroke:#ff0000;"/>
    <path clip-path="url(#pa50496c026)" d="M 536.830685 164.844014 
L 536.830685 164.618312 
" style="fill:none;stroke:#ff0000;"/>
    <path clip-path="url(#pa50496c026)" d="M 542.472821 165.593211 
L 542.472821 165.523401 
" style="fill:none;stroke:#ff0000;"/>
    <path clip-path="url(#pa50496c026)" d="M 552.68089 166.213491 
L 552.68089 166.142043 
" style="fill:none;stroke:#ff0000;"/>
    <path clip-path="url(#pa50496c026)" d="M 566.781701 170.506596 
L 566.781701 170.402561 
" style="fill:none;stroke:#ff0000;"/>
    <path clip-path="url(#pa50496c026)" d="M 576.320351 170.092722 
L 576.320351 170.019116 
" style="fill:none;stroke:#ff0000;"/>
    <path clip-path="url(#pa50496c026)" d="M 587.552548 170.308008 
L 587.552548 170.23897 
" style="fill:none;stroke:#ff0000;"/>
    <path clip-path="url(#pa50496c026)" d="M 607.907556 164.030597 
L 607.907556 163.801735 
" style="fill:none;stroke:#ff0000;"/>
    <path clip-path="url(#pa50496c026)" d="M 612.762539 151.569535 
L 612.762539 151.376494 
" style="fill:none;stroke:#ff0000;"/>
    <path clip-path="url(#pa50496c026)" d="M 617.086969 154.637818 
L 617.086969 154.436473 
" style="fill:none;stroke:#ff0000;"/>
    <path clip-path="url(#pa50496c026)" d="M 619.091452 144.761503 
L 619.091452 144.585688 
" style="fill:none;stroke:#ff0000;"/>
    <path clip-path="url(#pa50496c026)" d="M 621.365362 144.518765 
L 621.365362 144.34339 
" style="fill:none;stroke:#ff0000;"/>
   </g>
   <g id="line2d_27">
    <defs>
     <path d="M 0 2.5 
C 0.663008 2.5 1.29895 2.236584 1.767767 1.767767 
C 2.236584 1.29895 2.5 0.663008 2.5 0 
C 2.5 -0.663008 2.236584 -1.29895 1.767767 -1.767767 
C 1.29895 -2.236584 0.663008 -2.5 0 -2.5 
C -0.663008 -2.5 -1.29895 -2.236584 -1.767767 -1.767767 
C -2.236584 -1.29895 -2.5 -0.663008 -2.5 0 
C -2.5 0.663008 -2.236584 1.29895 -1.767767 1.767767 
C -1.29895 2.236584 -0.663008 2.5 0 2.5 
z
" id="m8c1593818a" style="stroke:#1a1a1a;stroke-width:0.5;"/>
    </defs>
    <g clip-path="url(#pa50496c026)">
     <use style="fill:#0000ff;stroke:#1a1a1a;stroke-width:0.5;" x="102.676055" xlink:href="#m8c1593818a" y="120.04291"/>
     <use style="fill:#0000ff;stroke:#1a1a1a;stroke-width:0.5;" x="119.419825" xlink:href="#m8c1593818a" y="123.033473"/>
     <use style="fill:#0000ff;stroke:#1a1a1a;stroke-width:0.5;" x="125.025734" xlink:href="#m8c1593818a" y="119.110536"/>
     <use style="fill:#0000ff;stroke:#1a1a1a;stroke-width:0.5;" x="131.903314" xlink:href="#m8c1593818a" y="110.308262"/>
     <use style="fill:#0000ff;stroke:#1a1a1a;stroke-width:0.5;" x="140.417082" xlink:href="#m8c1593818a" y="109.538337"/>
     <use style="fill:#0000ff;stroke:#1a1a1a;stroke-width:0.5;" x="219.460563" xlink:href="#m8c1593818a" y="129.344406"/>
     <use style="fill:#0000ff;stroke:#1a1a1a;stroke-width:0.5;" x="234.849646" xlink:href="#m8c1593818a" y="100.268911"/>
     <use style="fill:#0000ff;stroke:#1a1a1a;stroke-width:0.5;" x="249.02819" xlink:href="#m8c1593818a" y="151.553501"/>
     <use style="fill:#0000ff;stroke:#1a1a1a;stroke-width:0.5;" x="259.563799" xlink:href="#m8c1593818a" y="100.171084"/>
     <use style="fill:#0000ff;stroke:#1a1a1a;stroke-width:0.5;" x="274.084978" xlink:href="#m8c1593818a" y="90.118245"/>
     <use style="fill:#0000ff;stroke:#1a1a1a;stroke-width:0.5;" x="284.74964" xlink:href="#m8c1593818a" y="91.12003"/>
     <use style="fill:#0000ff;stroke:#1a1a1a;stroke-width:0.5;" x="295.476943" xlink:href="#m8c1593818a" y="92.653185"/>
     <use style="fill:#0000ff;stroke:#1a1a1a;stroke-width:0.5;" x="306.477447" xlink:href="#m8c1593818a" y="87.118749"/>
     <use style="fill:#0000ff;stroke:#1a1a1a;stroke-width:0.5;" x="317.642475" xlink:href="#m8c1593818a" y="87.547013"/>
     <use style="fill:#0000ff;stroke:#1a1a1a;stroke-width:0.5;" x="343.109819" xlink:href="#m8c1593818a" y="89.280268"/>
     <use style="fill:#0000ff;stroke:#1a1a1a;stroke-width:0.5;" x="356.68083" xlink:href="#m8c1593818a" y="91.151365"/>
     <use style="fill:#0000ff;stroke:#1a1a1a;stroke-width:0.5;" x="369.341674" xlink:href="#m8c1593818a" y="96.03369"/>
     <use style="fill:#0000ff;stroke:#1a1a1a;stroke-width:0.5;" x="378.279583" xlink:href="#m8c1593818a" y="97.229516"/>
     <use style="fill:#0000ff;stroke:#1a1a1a;stroke-width:0.5;" x="387.473336" xlink:href="#m8c1593818a" y="104.404167"/>
     <use style="fill:#0000ff;stroke:#1a1a1a;stroke-width:0.5;" x="536.830685" xlink:href="#m8c1593818a" y="68.055727"/>
     <use style="fill:#0000ff;stroke:#1a1a1a;stroke-width:0.5;" x="542.472821" xlink:href="#m8c1593818a" y="66.657121"/>
     <use style="fill:#0000ff;stroke:#1a1a1a;stroke-width:0.5;" x="552.68089" xlink:href="#m8c1593818a" y="66.228186"/>
     <use style="fill:#0000ff;stroke:#1a1a1a;stroke-width:0.5;" x="566.781701" xlink:href="#m8c1593818a" y="68.278253"/>
     <use style="fill:#0000ff;stroke:#1a1a1a;stroke-width:0.5;" x="576.320351" xlink:href="#m8c1593818a" y="66.860922"/>
     <use style="fill:#0000ff;stroke:#1a1a1a;stroke-width:0.5;" x="587.552548" xlink:href="#m8c1593818a" y="66.515978"/>
     <use style="fill:#0000ff;stroke:#1a1a1a;stroke-width:0.5;" x="607.907556" xlink:href="#m8c1593818a" y="61.776796"/>
     <use style="fill:#0000ff;stroke:#1a1a1a;stroke-width:0.5;" x="612.762539" xlink:href="#m8c1593818a" y="38.3093"/>
     <use style="fill:#0000ff;stroke:#1a1a1a;stroke-width:0.5;" x="617.086969" xlink:href="#m8c1593818a" y="48.15398"/>
     <use style="fill:#0000ff;stroke:#1a1a1a;stroke-width:0.5;" x="619.091452" xlink:href="#m8c1593818a" y="26.935762"/>
     <use style="fill:#0000ff;stroke:#1a1a1a;stroke-width:0.5;" x="621.365362" xlink:href="#m8c1593818a" y="27.967269"/>
    </g>
   </g>
   <g id="line2d_28">
    <defs>
     <path d="M 0 2.5 
C 0.663008 2.5 1.29895 2.236584 1.767767 1.767767 
C 2.236584 1.29895 2.5 0.663008 2.5 0 
C 2.5 -0.663008 2.236584 -1.29895 1.767767 -1.767767 
C 1.29895 -2.236584 0.663008 -2.5 0 -2.5 
C -0.663008 -2.5 -1.29895 -2.236584 -1.767767 -1.767767 
C -2.236584 -1.29895 -2.5 -0.663008 -2.5 0 
C -2.5 0.663008 -2.236584 1.29895 -1.767767 1.767767 
C -1.29895 2.236584 -0.663008 2.5 0 2.5 
z
" id="m1c5d48ae45" style="stroke:#1a1a1a;stroke-width:0.5;"/>
    </defs>
    <g clip-path="url(#pa50496c026)">
     <use style="fill:#ff0000;stroke:#1a1a1a;stroke-width:0.5;" x="102.676055" xlink:href="#m1c5d48ae45" y="184.883669"/>
     <use style="fill:#ff0000;stroke:#1a1a1a;stroke-width:0.5;" x="119.419825" xlink:href="#m1c5d48ae45" y="187.232796"/>
     <use style="fill:#ff0000;stroke:#1a1a1a;stroke-width:0.5;" x="125.025734" xlink:href="#m1c5d48ae45" y="184.388876"/>
     <use style="fill:#ff0000;stroke:#1a1a1a;stroke-width:0.5;" x="131.903314" xlink:href="#m1c5d48ae45" y="177.5102"/>
     <use style="fill:#ff0000;stroke:#1a1a1a;stroke-width:0.5;" x="140.417082" xlink:href="#m1c5d48ae45" y="176.218644"/>
     <use style="fill:#ff0000;stroke:#1a1a1a;stroke-width:0.5;" x="219.460563" xlink:href="#m1c5d48ae45" y="194.136709"/>
     <use style="fill:#ff0000;stroke:#1a1a1a;stroke-width:0.5;" x="234.849646" xlink:href="#m1c5d48ae45" y="169.872772"/>
     <use style="fill:#ff0000;stroke:#1a1a1a;stroke-width:0.5;" x="249.02819" xlink:href="#m1c5d48ae45" y="201.546496"/>
     <use style="fill:#ff0000;stroke:#1a1a1a;stroke-width:0.5;" x="259.563799" xlink:href="#m1c5d48ae45" y="177.247713"/>
     <use style="fill:#ff0000;stroke:#1a1a1a;stroke-width:0.5;" x="274.084978" xlink:href="#m1c5d48ae45" y="172.175479"/>
     <use style="fill:#ff0000;stroke:#1a1a1a;stroke-width:0.5;" x="284.74964" xlink:href="#m1c5d48ae45" y="173.804321"/>
     <use style="fill:#ff0000;stroke:#1a1a1a;stroke-width:0.5;" x="295.476943" xlink:href="#m1c5d48ae45" y="176.708516"/>
     <use style="fill:#ff0000;stroke:#1a1a1a;stroke-width:0.5;" x="306.477447" xlink:href="#m1c5d48ae45" y="174.116695"/>
     <use style="fill:#ff0000;stroke:#1a1a1a;stroke-width:0.5;" x="317.642475" xlink:href="#m1c5d48ae45" y="174.495521"/>
     <use style="fill:#ff0000;stroke:#1a1a1a;stroke-width:0.5;" x="343.109819" xlink:href="#m1c5d48ae45" y="179.095137"/>
     <use style="fill:#ff0000;stroke:#1a1a1a;stroke-width:0.5;" x="356.68083" xlink:href="#m1c5d48ae45" y="182.081089"/>
     <use style="fill:#ff0000;stroke:#1a1a1a;stroke-width:0.5;" x="369.341674" xlink:href="#m1c5d48ae45" y="187.536678"/>
     <use style="fill:#ff0000;stroke:#1a1a1a;stroke-width:0.5;" x="378.279583" xlink:href="#m1c5d48ae45" y="188.746608"/>
     <use style="fill:#ff0000;stroke:#1a1a1a;stroke-width:0.5;" x="387.473336" xlink:href="#m1c5d48ae45" y="190.171617"/>
     <use style="fill:#ff0000;stroke:#1a1a1a;stroke-width:0.5;" x="536.830685" xlink:href="#m1c5d48ae45" y="164.730988"/>
     <use style="fill:#ff0000;stroke:#1a1a1a;stroke-width:0.5;" x="542.472821" xlink:href="#m1c5d48ae45" y="165.558289"/>
     <use style="fill:#ff0000;stroke:#1a1a1a;stroke-width:0.5;" x="552.68089" xlink:href="#m1c5d48ae45" y="166.17775"/>
     <use style="fill:#ff0000;stroke:#1a1a1a;stroke-width:0.5;" x="566.781701" xlink:href="#m1c5d48ae45" y="170.454541"/>
     <use style="fill:#ff0000;stroke:#1a1a1a;stroke-width:0.5;" x="576.320351" xlink:href="#m1c5d48ae45" y="170.0559"/>
     <use style="fill:#ff0000;stroke:#1a1a1a;stroke-width:0.5;" x="587.552548" xlink:href="#m1c5d48ae45" y="170.273473"/>
     <use style="fill:#ff0000;stroke:#1a1a1a;stroke-width:0.5;" x="607.907556" xlink:href="#m1c5d48ae45" y="163.915986"/>
     <use style="fill:#ff0000;stroke:#1a1a1a;stroke-width:0.5;" x="612.762539" xlink:href="#m1c5d48ae45" y="151.472887"/>
     <use style="fill:#ff0000;stroke:#1a1a1a;stroke-width:0.5;" x="617.086969" xlink:href="#m1c5d48ae45" y="154.537006"/>
     <use style="fill:#ff0000;stroke:#1a1a1a;stroke-width:0.5;" x="619.091452" xlink:href="#m1c5d48ae45" y="144.673489"/>
     <use style="fill:#ff0000;stroke:#1a1a1a;stroke-width:0.5;" x="621.365362" xlink:href="#m1c5d48ae45" y="144.430972"/>
    </g>
   </g>
   <g id="patch_3">
    <path d="M 72 201.6 
L 72 25.2 
" style="fill:none;stroke:#262626;stroke-linecap:square;stroke-linejoin:miter;stroke-width:1.25;"/>
   </g>
   <g id="patch_4">
    <path d="M 648 201.6 
L 648 25.2 
" style="fill:none;stroke:#262626;stroke-linecap:square;stroke-linejoin:miter;stroke-width:1.25;"/>
   </g>
   <g id="patch_5">
    <path d="M 72 201.6 
L 648 201.6 
" style="fill:none;stroke:#262626;stroke-linecap:square;stroke-linejoin:miter;stroke-width:1.25;"/>
   </g>
   <g id="patch_6">
    <path d="M 72 25.2 
L 648 25.2 
" style="fill:none;stroke:#262626;stroke-linecap:square;stroke-linejoin:miter;stroke-width:1.25;"/>
   </g>
   <g id="text_11">
    <!-- 2021 Prodution rate -->
    <defs>
     <path d="M 19.796875 31.90625 
L 35.796875 31.90625 
C 48.703125 31.90625 58.09375 40.28125 58.09375 49.75 
C 58.09375 59.234375 48.90625 68 35.796875 68 
L 5.203125 68 
L 5.203125 65.40625 
C 12.09375 65.40625 13.203125 65.40625 13.203125 60.921875 
L 13.203125 6.96875 
C 13.203125 2.5 12.09375 2.5 5.203125 2.5 
L 5.203125 0 
C 8.09375 0 13.40625 0 16.5 0 
C 19.59375 0 24.90625 0 27.796875 0 
L 27.796875 2.5 
C 20.90625 2.5 19.796875 2.5 19.796875 6.96875 
z
M 19.59375 34 
L 19.59375 61.53125 
C 19.59375 64.921875 19.796875 65.40625 23.796875 65.40625 
L 33.90625 65.40625 
C 46.796875 65.40625 50.5 58.03125 50.5 49.75 
C 50.5 40.6875 46.09375 34 33.90625 34 
z
" id="CMR17-80"/>
     <path d="M 43.09375 21.1875 
C 43.09375 34 33.796875 44 22.90625 44 
C 12 44 2.703125 34 2.703125 21.1875 
C 2.703125 8.609375 12 -1 22.90625 -1 
C 33.796875 -1 43.09375 8.609375 43.09375 21.1875 
z
M 22.90625 0.796875 
C 18.203125 0.796875 14.203125 3.59375 11.90625 7.5 
C 9.40625 11.984375 9.09375 17.59375 9.09375 22 
C 9.09375 26.203125 9.296875 31.40625 11.90625 35.90625 
C 13.90625 39.203125 17.796875 42.40625 22.90625 42.40625 
C 27.40625 42.40625 31.203125 39.90625 33.59375 36.40625 
C 36.703125 31.703125 36.703125 25.109375 36.703125 22 
C 36.703125 18.09375 36.5 12.109375 33.796875 7.296875 
C 31 2.703125 26.703125 0.796875 22.90625 0.796875 
z
" id="CMR17-111"/>
     <path d="M 29.203125 67.59375 
L 29.203125 65 
C 35.09375 65 36 64.40625 36 59.6875 
L 36 36.640625 
C 35.59375 37.140625 31.5 43.59375 23.40625 43.59375 
C 13.203125 43.59375 3.296875 34.5 3.296875 21.3125 
C 3.296875 8.203125 12.59375 -1 22.40625 -1 
C 30.90625 -1 35.296875 5.265625 35.796875 5.9375 
L 35.796875 -0.984375 
L 47.90625 -0.984375 
L 47.90625 2 
C 42 2 41.09375 2.59375 41.09375 7.390625 
L 41.09375 68.6875 
z
M 35.796875 11.796875 
C 35.796875 8.796875 34 6.09375 31.703125 4.09375 
C 28.296875 1.09375 24.90625 0.59375 23 0.59375 
C 20.09375 0.59375 9.703125 2.09375 9.703125 21.1875 
C 9.703125 40.8125 21.296875 42 23.90625 42 
C 28.5 42 32.203125 39.40625 34.5 35.796875 
C 35.796875 33.703125 35.796875 33.40625 35.796875 31.609375 
z
" id="CMR17-100"/>
     <path d="M 29.40625 42.078125 
L 29.40625 39.5 
C 35.296875 39.5 36.203125 38.890625 36.203125 34.15625 
L 36.203125 16.125 
C 36.203125 7.8125 31.703125 0.59375 24.296875 0.59375 
C 16.09375 0.59375 15.40625 5.4375 15.40625 10.59375 
L 15.40625 43.171875 
L 3.296875 42.078125 
L 3.296875 39.5 
C 7.296875 39.5 10 39.5 10.09375 35.53125 
L 10.09375 16.53125 
C 10.09375 9.890625 10.09375 5.640625 12.703125 2.859375 
C 14 1.578125 16.5 -1 23.703125 -1 
C 32.203125 -1 35.5 5.890625 36.296875 7.90625 
L 36.40625 7.90625 
L 36.40625 -0.984375 
L 48.296875 -0.984375 
L 48.296875 2 
C 42.40625 2 41.5 2.59375 41.5 7.390625 
L 41.5 43.171875 
z
" id="CMR17-117"/>
     <path d="M 15.09375 40 
L 29.09375 40 
L 29.09375 42.578125 
L 15.09375 42.578125 
L 15.09375 61 
L 13.296875 61 
C 13.09375 50.703125 9.59375 41.6875 1.09375 41.6875 
L 1.09375 40 
L 9.796875 40 
L 9.796875 12.046875 
C 9.796875 10.15625 9.796875 -1 21.40625 -1 
C 27.296875 -1 30.703125 4.78125 30.703125 12.140625 
L 30.703125 17.8125 
L 28.90625 17.8125 
L 28.90625 12.234375 
C 28.90625 5.375 26.203125 0.796875 22 0.796875 
C 19.09375 0.796875 15.09375 2.78125 15.09375 11.84375 
z
" id="CMR17-116"/>
     <path d="M 41.5 30.203125 
C 41.5 35.296875 40.5 43.59375 28.703125 43.59375 
C 20.796875 43.59375 16.703125 37.5 15.203125 33.5 
L 15.09375 33.5 
L 15.09375 43.59375 
L 3.296875 42.5 
L 3.296875 39.90625 
C 9.203125 39.90625 10.09375 39.296875 10.09375 34.5 
L 10.09375 6.6875 
C 10.09375 2.875 9.703125 2.390625 3.296875 2.390625 
L 3.296875 -0.203125 
C 5.703125 0 10.09375 0 12.703125 0 
C 15.296875 0 19.796875 0 22.203125 -0.203125 
L 22.203125 2.390625 
C 15.796875 2.390625 15.40625 2.78125 15.40625 6.6875 
L 15.40625 25.90625 
C 15.40625 35.109375 21 42 28 42 
C 35.40625 42 36.203125 35.40625 36.203125 30.59375 
L 36.203125 6.6875 
C 36.203125 2.875 35.796875 2.390625 29.40625 2.390625 
L 29.40625 -0.203125 
C 31.796875 0 36.203125 0 38.796875 0 
C 41.40625 0 45.90625 0 48.296875 -0.203125 
L 48.296875 2.390625 
C 41.90625 2.390625 41.5 2.78125 41.5 6.6875 
z
" id="CMR17-110"/>
     <path d="M 36 25.828125 
C 36 32.375 36 35.84375 31.796875 39.734375 
C 28.09375 43 23.796875 44 20.40625 44 
C 12.5 44 6.796875 37.609375 6.796875 30.796875 
C 6.796875 27 9.796875 27 10.40625 27 
C 11.703125 27 14 27.78125 14 30.53125 
C 14 33 12.09375 34.078125 10.40625 34.078125 
C 10 34.078125 9.5 33.96875 9.203125 33.875 
C 11.296875 40.5 16.703125 42.40625 20.203125 42.40625 
C 25.203125 42.40625 30.703125 37.953125 30.703125 29.453125 
L 30.703125 25 
C 24.796875 25 17.703125 24.203125 12.09375 21.203125 
C 5.796875 17.703125 4 12.703125 4 8.90625 
C 4 1.203125 13 -1 18.296875 -1 
C 23.796875 -1 28.90625 2.171875 31.09375 7.984375 
C 31.296875 3.640625 34.09375 -0.28125 38.5 -0.28125 
C 40.59375 -0.28125 45.90625 1.09375 45.90625 8.859375 
L 45.90625 14.375 
L 44.09375 14.375 
L 44.09375 8.78125 
C 44.09375 2.78125 41.40625 2 40.09375 2 
C 36 2 36 7.15625 36 11.53125 
z
M 30.703125 13.59375 
C 30.703125 4.953125 24.5 0.59375 19 0.59375 
C 14 0.59375 10.09375 4.296875 10.09375 8.90625 
C 10.09375 11.890625 11.40625 17.1875 17.203125 20.390625 
C 22 23.09375 27.5 23.5 30.703125 23.5 
z
" id="CMR17-97"/>
    </defs>
    <g style="fill:#262626;" transform="translate(279.566039 19.2)scale(0.2 -0.2)">
     <use transform="scale(0.996264)" xlink:href="#CMR17-50"/>
     <use transform="translate(45.690477 0)scale(0.996264)" xlink:href="#CMR17-48"/>
     <use transform="translate(91.380954 0)scale(0.996264)" xlink:href="#CMR17-50"/>
     <use transform="translate(137.071431 0)scale(0.996264)" xlink:href="#CMR17-49"/>
     <use transform="translate(212.837875 0)scale(0.996264)" xlink:href="#CMR17-80"/>
     <use transform="translate(275.424175 0)scale(0.996264)" xlink:href="#CMR17-114"/>
     <use transform="translate(310.704943 0)scale(0.996264)" xlink:href="#CMR17-111"/>
     <use transform="translate(358.997859 0)scale(0.996264)" xlink:href="#CMR17-100"/>
     <use transform="translate(409.893229 0)scale(0.996264)" xlink:href="#CMR17-117"/>
     <use transform="translate(460.788599 0)scale(0.996264)" xlink:href="#CMR17-116"/>
     <use transform="translate(496.069366 0)scale(0.996264)" xlink:href="#CMR17-105"/>
     <use transform="translate(520.940425 0)scale(0.996264)" xlink:href="#CMR17-111"/>
     <use transform="translate(566.630902 0)scale(0.996264)" xlink:href="#CMR17-110"/>
     <use transform="translate(647.602238 0)scale(0.996264)" xlink:href="#CMR17-114"/>
     <use transform="translate(682.883006 0)scale(0.996264)" xlink:href="#CMR17-97"/>
     <use transform="translate(728.573483 0)scale(0.996264)" xlink:href="#CMR17-116"/>
     <use transform="translate(763.854251 0)scale(0.996264)" xlink:href="#CMR17-101"/>
    </g>
   </g>
   <g id="legend_1">
    <g id="patch_7">
     <path d="M 82.5 79.011489 
L 158.118461 79.011489 
Q 161.118461 79.011489 161.118461 76.011489 
L 161.118461 35.7 
Q 161.118461 32.7 158.118461 32.7 
L 82.5 32.7 
Q 79.5 32.7 79.5 35.7 
L 79.5 76.011489 
Q 79.5 79.011489 82.5 79.011489 
z
" style="fill:#ffffff;opacity:0.8;stroke:#cccccc;stroke-linejoin:miter;"/>
    </g>
    <g id="LineCollection_5">
     <path d="M 93 43.95 
L 108 43.95 
" style="fill:none;stroke:#0000ff;"/>
    </g>
    <g id="LineCollection_6">
     <path d="M 100.5 51.45 
L 100.5 36.45 
" style="fill:none;stroke:#0000ff;"/>
    </g>
    <g id="line2d_29"/>
    <g id="line2d_30">
     <g>
      <use style="fill:#0000ff;stroke:#1a1a1a;stroke-width:0.5;" x="100.5" xlink:href="#m8c1593818a" y="43.95"/>
     </g>
    </g>
    <g id="text_12">
     <!-- $^{18}\mathrm{N}$ -->
     <defs>
      <path d="M 20.5 66.40625 
C 19.796875 67.5 19.703125 67.5 17.796875 67.5 
L 5.09375 67.5 
L 5.09375 65 
L 7 65 
C 11 65 12.796875 64.515625 13.09375 64.40625 
L 13.09375 9.53125 
C 13.09375 7.046875 13.09375 2.390625 5.09375 2.390625 
L 5.09375 -0.203125 
C 7.40625 0 11.59375 0 14.09375 0 
C 16.59375 0 20.796875 0 23.09375 -0.203125 
L 23.09375 2.390625 
C 15.09375 2.390625 15.09375 7.046875 15.09375 9.53125 
L 15.09375 63.015625 
C 15.796875 62.421875 15.796875 62.21875 16.5 61.234375 
L 53.59375 1.1875 
C 54.296875 0 54.59375 0 55.09375 0 
C 56.09375 0 56.09375 0.296875 56.09375 2.171875 
L 56.09375 57.890625 
C 56.09375 60.359375 56.09375 65 64.09375 65 
L 64.09375 67.59375 
C 61.796875 67.5 57.59375 67.5 55.09375 67.5 
C 52.59375 67.5 48.40625 67.5 46.09375 67.59375 
L 46.09375 65 
C 54.09375 65 54.09375 60.34375 54.09375 57.859375 
L 54.09375 11.921875 
z
" id="CMR17-78"/>
     </defs>
     <g style="fill:#262626;" transform="translate(127.5 49.2)scale(0.15 -0.15)">
      <use transform="translate(0 36.153639)scale(0.697382)" xlink:href="#CMR17-49"/>
      <use transform="translate(31.983182 36.153639)scale(0.697382)" xlink:href="#CMR17-56"/>
      <use transform="translate(64.464496 0)scale(0.996264)" xlink:href="#CMR17-78"/>
     </g>
    </g>
    <g id="LineCollection_7">
     <path d="M 93 64.855745 
L 108 64.855745 
" style="fill:none;stroke:#ff0000;"/>
    </g>
    <g id="LineCollection_8">
     <path d="M 100.5 72.355745 
L 100.5 57.355745 
" style="fill:none;stroke:#ff0000;"/>
    </g>
    <g id="line2d_31"/>
    <g id="line2d_32">
     <g>
      <use style="fill:#ff0000;stroke:#1a1a1a;stroke-width:0.5;" x="100.5" xlink:href="#m1c5d48ae45" y="64.855745"/>
     </g>
    </g>
    <g id="text_13">
     <!-- $^{32}\mathrm{Ar}$ -->
     <g style="fill:#262626;" transform="translate(127.5 70.105745)scale(0.15 -0.15)">
      <use transform="translate(0 36.153639)scale(0.697382)" xlink:href="#CMR17-51"/>
      <use transform="translate(31.983182 36.153639)scale(0.697382)" xlink:href="#CMR17-50"/>
      <use transform="translate(64.464496 0)scale(0.996264)" xlink:href="#CMR17-65"/>
      <use transform="translate(133.536926 0)scale(0.996264)" xlink:href="#CMR17-114"/>
     </g>
    </g>
   </g>
  </g>
 </g>
 <defs>
  <clipPath id="pa50496c026">
   <rect height="176.4" width="576" x="72" y="25.2"/>
  </clipPath>
 </defs>
</svg>
