<?xml version="1.0" encoding="utf-8" standalone="no"?>
<!DOCTYPE svg PUBLIC "-//W3C//DTD SVG 1.1//EN"
  "http://www.w3.org/Graphics/SVG/1.1/DTD/svg11.dtd">
<!-- Created with matplotlib (https://matplotlib.org/) -->
<svg height="360pt" version="1.1" viewBox="0 0 720 360" width="720pt" xmlns="http://www.w3.org/2000/svg" xmlns:xlink="http://www.w3.org/1999/xlink">
 <defs>
  <style type="text/css">
*{stroke-linecap:butt;stroke-linejoin:round;}
  </style>
 </defs>
 <g id="figure_1">
  <g id="patch_1">
   <path d="M 0 360 
L 720 360 
L 720 0 
L 0 0 
z
" style="fill:#ffffff;"/>
  </g>
  <g id="axes_1">
   <g id="patch_2">
    <path d="M 90 222.381818 
L 648 222.381818 
L 648 43.2 
L 90 43.2 
z
" style="fill:#ffffff;"/>
   </g>
   <g id="matplotlib.axis_1">
    <g id="xtick_1">
     <g id="line2d_1">
      <defs>
       <path d="M 0 0 
L 0 6 
" id="mad3358873a" style="stroke:#1a1a1a;stroke-width:1.25;"/>
      </defs>
      <g>
       <use style="fill:#262626;stroke:#1a1a1a;stroke-width:1.25;" x="122.521737" xlink:href="#mad3358873a" y="222.381818"/>
      </g>
     </g>
    </g>
    <g id="xtick_2">
     <g id="line2d_2">
      <g>
       <use style="fill:#262626;stroke:#1a1a1a;stroke-width:1.25;" x="241.823416" xlink:href="#mad3358873a" y="222.381818"/>
      </g>
     </g>
    </g>
    <g id="xtick_3">
     <g id="line2d_3">
      <g>
       <use style="fill:#262626;stroke:#1a1a1a;stroke-width:1.25;" x="361.125095" xlink:href="#mad3358873a" y="222.381818"/>
      </g>
     </g>
    </g>
    <g id="xtick_4">
     <g id="line2d_4">
      <g>
       <use style="fill:#262626;stroke:#1a1a1a;stroke-width:1.25;" x="480.426774" xlink:href="#mad3358873a" y="222.381818"/>
      </g>
     </g>
    </g>
    <g id="xtick_5">
     <g id="line2d_5">
      <g>
       <use style="fill:#262626;stroke:#1a1a1a;stroke-width:1.25;" x="599.728453" xlink:href="#mad3358873a" y="222.381818"/>
      </g>
     </g>
    </g>
   </g>
   <g id="matplotlib.axis_2">
    <g id="ytick_1">
     <g id="line2d_6">
      <defs>
       <path d="M 0 0 
L -6 0 
" id="mef3730cee3" style="stroke:#1a1a1a;stroke-width:1.25;"/>
      </defs>
      <g>
       <use style="fill:#262626;stroke:#1a1a1a;stroke-width:1.25;" x="90" xlink:href="#mef3730cee3" y="207.407303"/>
      </g>
     </g>
     <g id="text_1">
      <!-- $10^{2}$ -->
      <defs>
       <path d="M 26.59375 63.40625 
C 26.59375 65.5 26.5 65.5 25.09375 65.5 
C 21.203125 61.1875 15.296875 59.796875 9.703125 59.796875 
C 9.40625 59.796875 8.90625 59.796875 8.796875 59.5 
C 8.703125 59.296875 8.703125 59.09375 8.703125 57 
C 11.796875 57 17 57.59375 21 59.984375 
L 21 7.203125 
C 21 3.6875 20.796875 2.5 12.203125 2.5 
L 9.203125 2.5 
L 9.203125 0 
C 14 0 19 0 23.796875 0 
C 28.59375 0 33.59375 0 38.40625 0 
L 38.40625 2.5 
L 35.40625 2.5 
C 26.796875 2.5 26.59375 3.59375 26.59375 7.15625 
z
" id="CMR17-49"/>
       <path d="M 42 31.640625 
C 42 37.75 41.90625 48.125 37.703125 56.109375 
C 34 63.109375 28.09375 65.59375 22.90625 65.59375 
C 18.09375 65.59375 12 63.40625 8.203125 56.203125 
C 4.203125 48.71875 3.796875 39.4375 3.796875 31.640625 
C 3.796875 25.953125 3.90625 17.28125 7 9.671875 
C 11.296875 -0.609375 19 -2 22.90625 -2 
C 27.5 -2 34.5 -0.109375 38.59375 9.375 
C 41.59375 16.28125 42 24.359375 42 31.640625 
z
M 22.90625 -0.40625 
C 16.5 -0.40625 12.703125 5.078125 11.296875 12.6875 
C 10.203125 18.5625 10.203125 27.15625 10.203125 32.75 
C 10.203125 40.4375 10.203125 46.828125 11.5 52.921875 
C 13.40625 61.390625 19 64 22.90625 64 
C 27 64 32.296875 61.296875 34.203125 53.125 
C 35.5 47.4375 35.59375 40.734375 35.59375 32.75 
C 35.59375 26.25 35.59375 18.265625 34.40625 12.375 
C 32.296875 1.484375 26.40625 -0.40625 22.90625 -0.40625 
z
" id="CMR17-48"/>
       <path d="M 41.703125 15.453125 
L 39.90625 15.453125 
C 38.90625 8.375 38.09375 7.171875 37.703125 6.5625 
C 37.203125 5.765625 30 5.765625 28.59375 5.765625 
L 9.40625 5.765625 
C 13 9.671875 20 16.75 28.5 24.953125 
C 34.59375 30.734375 41.703125 37.53125 41.703125 47.421875 
C 41.703125 59.21875 32.296875 66 21.796875 66 
C 10.796875 66 4.09375 56.3125 4.09375 47.34375 
C 4.09375 43.4375 7 42.9375 8.203125 42.9375 
C 9.203125 42.9375 12.203125 43.546875 12.203125 47.03125 
C 12.203125 50.109375 9.59375 51 8.203125 51 
C 7.59375 51 7 50.90625 6.59375 50.703125 
C 8.5 59.21875 14.296875 63.40625 20.40625 63.40625 
C 29.09375 63.40625 34.796875 56.515625 34.796875 47.421875 
C 34.796875 38.734375 29.703125 31.25 24 24.75 
L 4.09375 2.28125 
L 4.09375 0 
L 39.296875 0 
z
" id="CMR17-50"/>
      </defs>
      <g style="fill:#262626;" transform="translate(60.637154 212.596165)scale(0.15 -0.15)">
       <use transform="scale(0.996264)" xlink:href="#CMR17-49"/>
       <use transform="translate(45.690477 0)scale(0.996264)" xlink:href="#CMR17-48"/>
       <use transform="translate(91.380954 36.153639)scale(0.697382)" xlink:href="#CMR17-50"/>
      </g>
     </g>
    </g>
    <g id="ytick_2">
     <g id="line2d_7">
      <g>
       <use style="fill:#262626;stroke:#1a1a1a;stroke-width:1.25;" x="90" xlink:href="#mef3730cee3" y="157.66304"/>
      </g>
     </g>
     <g id="text_2">
      <!-- $10^{3}$ -->
      <defs>
       <path d="M 22.09375 33.703125 
C 31 33.703125 34.90625 25.96875 34.90625 17.03125 
C 34.90625 5 28.5 0.390625 22.703125 0.390625 
C 17.40625 0.390625 8.796875 3.03125 6.09375 10.828125 
C 6.59375 10.625 7.09375 10.625 7.59375 10.625 
C 10 10.625 11.796875 12.21875 11.796875 14.8125 
C 11.796875 17.703125 9.59375 19 7.59375 19 
C 5.90625 19 3.296875 18.203125 3.296875 14.46875 
C 3.296875 5.234375 12.296875 -2 22.90625 -2 
C 34 -2 42.5 6.71875 42.5 16.953125 
C 42.5 26.671875 34.5 33.703125 25 34.796875 
C 32.59375 36.375 39.90625 43.0625 39.90625 52.015625 
C 39.90625 59.6875 32 65.296875 23 65.296875 
C 13.90625 65.296875 5.90625 59.828125 5.90625 52.015625 
C 5.90625 48.59375 8.5 48 9.796875 48 
C 11.90625 48 13.703125 49.296875 13.703125 51.890625 
C 13.703125 54.46875 11.90625 55.765625 9.796875 55.765625 
C 9.40625 55.765625 8.90625 55.765625 8.5 55.578125 
C 11.40625 61.859375 19.296875 63 22.796875 63 
C 26.296875 63 32.90625 61.328125 32.90625 51.875 
C 32.90625 49.109375 32.5 44.1875 29.09375 39.84375 
C 26.09375 36 22.703125 36 19.40625 35.6875 
C 18.90625 35.6875 16.59375 35.453125 16.203125 35.453125 
C 15.5 35.359375 15.09375 35.265625 15.09375 34.5 
C 15.09375 33.796875 15.203125 33.703125 17.203125 33.703125 
z
" id="CMR17-51"/>
      </defs>
      <g style="fill:#262626;" transform="translate(60.637154 162.851903)scale(0.15 -0.15)">
       <use transform="scale(0.996264)" xlink:href="#CMR17-49"/>
       <use transform="translate(45.690477 0)scale(0.996264)" xlink:href="#CMR17-48"/>
       <use transform="translate(91.380954 36.153639)scale(0.697382)" xlink:href="#CMR17-51"/>
      </g>
     </g>
    </g>
    <g id="ytick_3">
     <g id="line2d_8">
      <g>
       <use style="fill:#262626;stroke:#1a1a1a;stroke-width:1.25;" x="90" xlink:href="#mef3730cee3" y="107.918778"/>
      </g>
     </g>
     <g id="text_3">
      <!-- $10^{4}$ -->
      <defs>
       <path d="M 33.59375 64.40625 
C 33.59375 66.5 33.5 66.5 31.703125 66.5 
L 2 19.59375 
L 2 17 
L 27.796875 17 
L 27.796875 7.140625 
C 27.796875 3.5 27.59375 2.5 20.59375 2.5 
L 18.703125 2.5 
L 18.703125 0 
C 21.90625 0 27.296875 0 30.703125 0 
C 34.09375 0 39.5 0 42.703125 0 
L 42.703125 2.5 
L 40.796875 2.5 
C 33.796875 2.5 33.59375 3.5 33.59375 7.140625 
L 33.59375 17 
L 43.796875 17 
L 43.796875 19.59375 
L 33.59375 19.59375 
z
M 28.09375 57.859375 
L 28.09375 19.59375 
L 4 19.59375 
z
" id="CMR17-52"/>
      </defs>
      <g style="fill:#262626;" transform="translate(60.637154 113.10764)scale(0.15 -0.15)">
       <use transform="scale(0.996264)" xlink:href="#CMR17-49"/>
       <use transform="translate(45.690477 0)scale(0.996264)" xlink:href="#CMR17-48"/>
       <use transform="translate(91.380954 36.153639)scale(0.697382)" xlink:href="#CMR17-52"/>
      </g>
     </g>
    </g>
    <g id="ytick_4">
     <g id="line2d_9">
      <g>
       <use style="fill:#262626;stroke:#1a1a1a;stroke-width:1.25;" x="90" xlink:href="#mef3730cee3" y="58.174515"/>
      </g>
     </g>
     <g id="text_4">
      <!-- $10^{5}$ -->
      <defs>
       <path d="M 11.40625 57.6875 
C 12.40625 57.28125 16.5 56 20.703125 56 
C 30 56 35.09375 61.109375 38 64.0625 
C 38 64.953125 38 65.5 37.40625 65.5 
C 37.296875 65.5 37.09375 65.5 36.296875 65.046875 
C 32.796875 63.40625 28.703125 62.078125 23.703125 62.078125 
C 20.703125 62.078125 16.203125 62.484375 11.296875 64.671875 
C 10.203125 65.171875 10 65.171875 9.90625 65.171875 
C 9.40625 65.171875 9.296875 65.0625 9.296875 63.078125 
L 9.296875 34.421875 
C 9.296875 32.640625 9.296875 32.140625 10.296875 32.140625 
C 10.796875 32.140625 11 32.34375 11.5 33.03125 
C 14.703125 37.515625 19.09375 39.40625 24.09375 39.40625 
C 27.59375 39.40625 35.09375 37.21875 35.09375 20.140625 
C 35.09375 16.953125 35.09375 11.171875 32.09375 6.578125 
C 29.59375 2.484375 25.703125 0.390625 21.40625 0.390625 
C 14.796875 0.390625 8.09375 5 6.296875 12.71875 
C 6.703125 12.609375 7.5 12.421875 7.90625 12.421875 
C 9.203125 12.421875 11.703125 13.125 11.703125 16.21875 
C 11.703125 18.90625 9.796875 20 7.90625 20 
C 5.59375 20 4.09375 18.59375 4.09375 15.796875 
C 4.09375 7.09375 11 -2 21.59375 -2 
C 31.90625 -2 41.703125 6.875 41.703125 19.75 
C 41.703125 31.71875 33.90625 41 24.203125 41 
C 19.09375 41 14.796875 39.109375 11.40625 35.53125 
z
" id="CMR17-53"/>
      </defs>
      <g style="fill:#262626;" transform="translate(60.637154 63.363378)scale(0.15 -0.15)">
       <use transform="scale(0.996264)" xlink:href="#CMR17-49"/>
       <use transform="translate(45.690477 0)scale(0.996264)" xlink:href="#CMR17-48"/>
       <use transform="translate(91.380954 36.153639)scale(0.697382)" xlink:href="#CMR17-53"/>
      </g>
     </g>
    </g>
    <g id="ytick_5">
     <g id="line2d_10">
      <defs>
       <path d="M 0 0 
L -4 0 
" id="mc59701c1c1" style="stroke:#1a1a1a;"/>
      </defs>
      <g>
       <use style="fill:#262626;stroke:#1a1a1a;" x="90" xlink:href="#mc59701c1c1" y="222.381818"/>
      </g>
     </g>
    </g>
    <g id="ytick_6">
     <g id="line2d_11">
      <g>
       <use style="fill:#262626;stroke:#1a1a1a;" x="90" xlink:href="#mc59701c1c1" y="218.443005"/>
      </g>
     </g>
    </g>
    <g id="ytick_7">
     <g id="line2d_12">
      <g>
       <use style="fill:#262626;stroke:#1a1a1a;" x="90" xlink:href="#mc59701c1c1" y="215.112787"/>
      </g>
     </g>
    </g>
    <g id="ytick_8">
     <g id="line2d_13">
      <g>
       <use style="fill:#262626;stroke:#1a1a1a;" x="90" xlink:href="#mc59701c1c1" y="212.22802"/>
      </g>
     </g>
    </g>
    <g id="ytick_9">
     <g id="line2d_14">
      <g>
       <use style="fill:#262626;stroke:#1a1a1a;" x="90" xlink:href="#mc59701c1c1" y="209.683476"/>
      </g>
     </g>
    </g>
    <g id="ytick_10">
     <g id="line2d_15">
      <g>
       <use style="fill:#262626;stroke:#1a1a1a;" x="90" xlink:href="#mc59701c1c1" y="192.432788"/>
      </g>
     </g>
    </g>
    <g id="ytick_11">
     <g id="line2d_16">
      <g>
       <use style="fill:#262626;stroke:#1a1a1a;" x="90" xlink:href="#mc59701c1c1" y="183.673258"/>
      </g>
     </g>
    </g>
    <g id="ytick_12">
     <g id="line2d_17">
      <g>
       <use style="fill:#262626;stroke:#1a1a1a;" x="90" xlink:href="#mc59701c1c1" y="177.458273"/>
      </g>
     </g>
    </g>
    <g id="ytick_13">
     <g id="line2d_18">
      <g>
       <use style="fill:#262626;stroke:#1a1a1a;" x="90" xlink:href="#mc59701c1c1" y="172.637556"/>
      </g>
     </g>
    </g>
    <g id="ytick_14">
     <g id="line2d_19">
      <g>
       <use style="fill:#262626;stroke:#1a1a1a;" x="90" xlink:href="#mc59701c1c1" y="168.698743"/>
      </g>
     </g>
    </g>
    <g id="ytick_15">
     <g id="line2d_20">
      <g>
       <use style="fill:#262626;stroke:#1a1a1a;" x="90" xlink:href="#mc59701c1c1" y="165.368524"/>
      </g>
     </g>
    </g>
    <g id="ytick_16">
     <g id="line2d_21">
      <g>
       <use style="fill:#262626;stroke:#1a1a1a;" x="90" xlink:href="#mc59701c1c1" y="162.483758"/>
      </g>
     </g>
    </g>
    <g id="ytick_17">
     <g id="line2d_22">
      <g>
       <use style="fill:#262626;stroke:#1a1a1a;" x="90" xlink:href="#mc59701c1c1" y="159.939213"/>
      </g>
     </g>
    </g>
    <g id="ytick_18">
     <g id="line2d_23">
      <g>
       <use style="fill:#262626;stroke:#1a1a1a;" x="90" xlink:href="#mc59701c1c1" y="142.688525"/>
      </g>
     </g>
    </g>
    <g id="ytick_19">
     <g id="line2d_24">
      <g>
       <use style="fill:#262626;stroke:#1a1a1a;" x="90" xlink:href="#mc59701c1c1" y="133.928995"/>
      </g>
     </g>
    </g>
    <g id="ytick_20">
     <g id="line2d_25">
      <g>
       <use style="fill:#262626;stroke:#1a1a1a;" x="90" xlink:href="#mc59701c1c1" y="127.71401"/>
      </g>
     </g>
    </g>
    <g id="ytick_21">
     <g id="line2d_26">
      <g>
       <use style="fill:#262626;stroke:#1a1a1a;" x="90" xlink:href="#mc59701c1c1" y="122.893293"/>
      </g>
     </g>
    </g>
    <g id="ytick_22">
     <g id="line2d_27">
      <g>
       <use style="fill:#262626;stroke:#1a1a1a;" x="90" xlink:href="#mc59701c1c1" y="118.95448"/>
      </g>
     </g>
    </g>
    <g id="ytick_23">
     <g id="line2d_28">
      <g>
       <use style="fill:#262626;stroke:#1a1a1a;" x="90" xlink:href="#mc59701c1c1" y="115.624262"/>
      </g>
     </g>
    </g>
    <g id="ytick_24">
     <g id="line2d_29">
      <g>
       <use style="fill:#262626;stroke:#1a1a1a;" x="90" xlink:href="#mc59701c1c1" y="112.739495"/>
      </g>
     </g>
    </g>
    <g id="ytick_25">
     <g id="line2d_30">
      <g>
       <use style="fill:#262626;stroke:#1a1a1a;" x="90" xlink:href="#mc59701c1c1" y="110.19495"/>
      </g>
     </g>
    </g>
    <g id="ytick_26">
     <g id="line2d_31">
      <g>
       <use style="fill:#262626;stroke:#1a1a1a;" x="90" xlink:href="#mc59701c1c1" y="92.944263"/>
      </g>
     </g>
    </g>
    <g id="ytick_27">
     <g id="line2d_32">
      <g>
       <use style="fill:#262626;stroke:#1a1a1a;" x="90" xlink:href="#mc59701c1c1" y="84.184733"/>
      </g>
     </g>
    </g>
    <g id="ytick_28">
     <g id="line2d_33">
      <g>
       <use style="fill:#262626;stroke:#1a1a1a;" x="90" xlink:href="#mc59701c1c1" y="77.969747"/>
      </g>
     </g>
    </g>
    <g id="ytick_29">
     <g id="line2d_34">
      <g>
       <use style="fill:#262626;stroke:#1a1a1a;" x="90" xlink:href="#mc59701c1c1" y="73.14903"/>
      </g>
     </g>
    </g>
    <g id="ytick_30">
     <g id="line2d_35">
      <g>
       <use style="fill:#262626;stroke:#1a1a1a;" x="90" xlink:href="#mc59701c1c1" y="69.210218"/>
      </g>
     </g>
    </g>
    <g id="ytick_31">
     <g id="line2d_36">
      <g>
       <use style="fill:#262626;stroke:#1a1a1a;" x="90" xlink:href="#mc59701c1c1" y="65.879999"/>
      </g>
     </g>
    </g>
    <g id="ytick_32">
     <g id="line2d_37">
      <g>
       <use style="fill:#262626;stroke:#1a1a1a;" x="90" xlink:href="#mc59701c1c1" y="62.995232"/>
      </g>
     </g>
    </g>
    <g id="ytick_33">
     <g id="line2d_38">
      <g>
       <use style="fill:#262626;stroke:#1a1a1a;" x="90" xlink:href="#mc59701c1c1" y="60.450688"/>
      </g>
     </g>
    </g>
    <g id="ytick_34">
     <g id="line2d_39">
      <g>
       <use style="fill:#262626;stroke:#1a1a1a;" x="90" xlink:href="#mc59701c1c1" y="43.2"/>
      </g>
     </g>
    </g>
    <g id="text_5">
     <!-- $\beta$/s -->
     <defs>
      <path d="M 56.59375 57.828125 
C 56.59375 63.765625 51.5 70 42.40625 70 
C 29.5 70 21.296875 54.328125 18.703125 44 
L 2.90625 -18.3125 
C 2.703125 -19.109375 3.296875 -19.3125 3.796875 -19.3125 
C 4.5 -19.3125 5 -19.21875 5.09375 -18.71875 
L 12.09375 9.15625 
C 13.09375 3.578125 18.59375 -1 24.5 -1 
C 38.796875 -1 52.296875 10.15625 52.296875 24.984375 
C 52.296875 28.765625 51.40625 32.546875 49.296875 35.734375 
C 48.09375 37.625 46.59375 39.015625 45 40.21875 
C 52.203125 43.984375 56.59375 50 56.59375 57.828125 
z
M 39.203125 40.3125 
C 37.59375 39.71875 36 39.515625 34.09375 39.515625 
C 32.703125 39.515625 31.40625 39.421875 29.59375 40.015625 
C 30.59375 40.71875 32.09375 40.90625 34.203125 40.90625 
C 36 40.90625 37.796875 40.71875 39.203125 40.3125 
z
M 51.40625 58.71875 
C 51.40625 53.28125 48.703125 45.359375 42.203125 41.703125 
C 40.296875 42.46875 37.703125 43 35.5 43 
C 33.40625 43 27.40625 43 27.40625 39.921875 
C 27.40625 37.328125 32.90625 37.328125 34.59375 37.328125 
C 37.203125 37.328125 39.5 38 41.90625 38.8125 
C 45.09375 36.21875 46.5 32.828125 46.5 27.859375 
C 46.5 22.078125 44.90625 17.421875 43 13.140625 
C 39.703125 5.765625 31.90625 1 25 1 
C 17.703125 1 13.90625 6.75 13.90625 13.5 
C 13.90625 14.40625 13.90625 15.703125 14.296875 17.171875 
L 20.796875 43.296875 
C 24.09375 56.296875 32.5 68.015625 42.203125 68.015625 
C 49.40625 68.015625 51.40625 63.0625 51.40625 58.71875 
z
" id="CMMI12-12"/>
      <path d="M 40.703125 71.015625 
C 41.203125 72.296875 41.203125 72.5 41.203125 72.703125 
C 41.203125 73.890625 40.296875 74.5 39.5 74.5 
C 38.296875 74.5 37.90625 73.703125 37.5 72.5 
L 5.09375 -21.515625 
C 4.59375 -22.8125 4.59375 -23.015625 4.59375 -23.21875 
C 4.59375 -24.40625 5.5 -25 6.296875 -25 
C 7.5 -25 7.90625 -24.203125 8.296875 -23.015625 
z
" id="CMR17-47"/>
      <path d="M 30.90625 42.140625 
C 30.90625 43.953125 30.796875 44.046875 30.203125 44.046875 
C 29.796875 44.046875 29.703125 43.953125 28.5 42.453125 
C 28.203125 42.046875 27.296875 41.03125 27 40.640625 
C 23.796875 44.046875 19.296875 44.046875 17.59375 44.046875 
C 6.5 44.046875 2.5 38.234375 2.5 32.4375 
C 2.5 23.40625 12.703125 21.328125 15.59375 20.703125 
C 21.90625 19.421875 24.09375 19.015625 26.203125 17.203125 
C 27.5 16.015625 29.703125 13.8125 29.703125 10.21875 
C 29.703125 6 27.296875 0.59375 18.09375 0.59375 
C 9.40625 0.59375 6.296875 7.1875 4.5 15.953125 
C 4.203125 17.34375 4.203125 17.453125 3.40625 17.453125 
C 2.59375 17.453125 2.5 17.34375 2.5 15.359375 
L 2.5 0.984375 
C 2.5 -0.796875 2.59375 -0.90625 3.203125 -0.90625 
C 3.703125 -0.90625 3.796875 -0.796875 4.296875 0 
C 4.90625 0.890625 6.40625 3.296875 7 4.3125 
C 9 1.609375 12.5 -1 18.09375 -1 
C 28 -1 33.296875 4.421875 33.296875 12.25 
C 33.296875 17.375 30.59375 20.078125 29.296875 21.28125 
C 26.296875 24.390625 22.796875 25.09375 18.59375 25.890625 
C 13.09375 27.109375 6.09375 28.515625 6.09375 34.640625 
C 6.09375 37.234375 7.5 42.765625 17.59375 42.765625 
C 28.296875 42.765625 28.90625 32.71875 29.09375 29.5 
C 29.203125 29 29.703125 28.890625 30 28.890625 
C 30.90625 28.890625 30.90625 29.203125 30.90625 30.90625 
z
" id="CMR17-115"/>
     </defs>
     <g style="fill:#262626;" transform="translate(51.67251 146.999491)rotate(-90)scale(0.2 -0.2)">
      <use transform="scale(0.996264)" xlink:href="#CMMI12-12"/>
      <use transform="translate(60.594016 0)scale(0.996264)" xlink:href="#CMR17-47"/>
      <use transform="translate(106.284493 0)scale(0.996264)" xlink:href="#CMR17-115"/>
     </g>
    </g>
   </g>
   <g id="LineCollection_1">
    <path clip-path="url(#p8286c73cc7)" d="M 241.823416 99.175828 
L 245.344804 99.175828 
" style="fill:none;stroke:#000000;"/>
    <path clip-path="url(#p8286c73cc7)" d="M 245.511164 96.556816 
L 248.479787 96.556816 
" style="fill:none;stroke:#000000;"/>
    <path clip-path="url(#p8286c73cc7)" d="M 249.910082 96.490809 
L 256.380872 96.490809 
" style="fill:none;stroke:#000000;"/>
    <path clip-path="url(#p8286c73cc7)" d="M 259.092997 96.84948 
L 264.724699 96.84948 
" style="fill:none;stroke:#000000;"/>
    <path clip-path="url(#p8286c73cc7)" d="M 278.358892 46.474046 
L 297.229767 46.474046 
" style="fill:none;stroke:#000000;"/>
    <path clip-path="url(#p8286c73cc7)" d="M 297.283453 48.365556 
L 307.149702 48.365556 
" style="fill:none;stroke:#000000;"/>
    <path clip-path="url(#p8286c73cc7)" d="M 307.180853 52.664279 
L 316.974195 52.664279 
" style="fill:none;stroke:#000000;"/>
    <path clip-path="url(#p8286c73cc7)" d="M 317.029869 52.786991 
L 326.578643 52.786991 
" style="fill:none;stroke:#000000;"/>
    <path clip-path="url(#p8286c73cc7)" d="M 326.636305 53.944625 
L 336.143986 53.944625 
" style="fill:none;stroke:#000000;"/>
    <path clip-path="url(#p8286c73cc7)" d="M 336.167184 56.315087 
L 347.311949 56.315087 
" style="fill:none;stroke:#000000;"/>
    <path clip-path="url(#p8286c73cc7)" d="M 347.3431 59.923746 
L 357.136442 59.923746 
" style="fill:none;stroke:#000000;"/>
    <path clip-path="url(#p8286c73cc7)" d="M 357.202058 89.143808 
L 360.244914 89.143808 
" style="fill:none;stroke:#000000;"/>
    <path clip-path="url(#p8286c73cc7)" d="M 360.273414 71.720873 
L 365.949522 71.720873 
" style="fill:none;stroke:#000000;"/>
    <path clip-path="url(#p8286c73cc7)" d="M 369.667095 64.650081 
L 379.197974 64.650081 
" style="fill:none;stroke:#000000;"/>
    <path clip-path="url(#p8286c73cc7)" d="M 389.970253 61.619404 
L 395.047865 61.619404 
" style="fill:none;stroke:#000000;"/>
    <path clip-path="url(#p8286c73cc7)" d="M 576.712508 69.758296 
L 584.775313 69.758296 
" style="fill:none;stroke:#000000;"/>
    <path clip-path="url(#p8286c73cc7)" d="M 584.805801 53.496047 
L 594.027821 53.496047 
" style="fill:none;stroke:#000000;"/>
    <path clip-path="url(#p8286c73cc7)" d="M 594.106693 45.73388 
L 601.549792 45.73388 
" style="fill:none;stroke:#000000;"/>
    <path clip-path="url(#p8286c73cc7)" d="M 615.439821 44.988049 
L 622.636364 44.988049 
" style="fill:none;stroke:#000000;"/>
   </g>
   <g id="LineCollection_2">
    <path clip-path="url(#p8286c73cc7)" d="M 243.58411 99.178249 
L 243.58411 99.173407 
" style="fill:none;stroke:#000000;"/>
    <path clip-path="url(#p8286c73cc7)" d="M 246.995475 96.559298 
L 246.995475 96.554334 
" style="fill:none;stroke:#000000;"/>
    <path clip-path="url(#p8286c73cc7)" d="M 253.145477 96.492488 
L 253.145477 96.489131 
" style="fill:none;stroke:#000000;"/>
    <path clip-path="url(#p8286c73cc7)" d="M 261.908848 96.851294 
L 261.908848 96.847666 
" style="fill:none;stroke:#000000;"/>
    <path clip-path="url(#p8286c73cc7)" d="M 287.79433 46.474355 
L 287.79433 46.473737 
" style="fill:none;stroke:#000000;"/>
    <path clip-path="url(#p8286c73cc7)" d="M 302.216577 48.366003 
L 302.216577 48.36511 
" style="fill:none;stroke:#000000;"/>
    <path clip-path="url(#p8286c73cc7)" d="M 312.077524 52.664774 
L 312.077524 52.663784 
" style="fill:none;stroke:#000000;"/>
    <path clip-path="url(#p8286c73cc7)" d="M 321.804256 52.787494 
L 321.804256 52.786489 
" style="fill:none;stroke:#000000;"/>
    <path clip-path="url(#p8286c73cc7)" d="M 331.390146 53.945142 
L 331.390146 53.944108 
" style="fill:none;stroke:#000000;"/>
    <path clip-path="url(#p8286c73cc7)" d="M 341.739566 56.315592 
L 341.739566 56.314583 
" style="fill:none;stroke:#000000;"/>
    <path clip-path="url(#p8286c73cc7)" d="M 352.239771 59.924331 
L 352.239771 59.923161 
" style="fill:none;stroke:#000000;"/>
    <path clip-path="url(#p8286c73cc7)" d="M 358.723486 89.145873 
L 358.723486 89.141744 
" style="fill:none;stroke:#000000;"/>
    <path clip-path="url(#p8286c73cc7)" d="M 363.111468 71.721883 
L 363.111468 71.719863 
" style="fill:none;stroke:#000000;"/>
    <path clip-path="url(#p8286c73cc7)" d="M 374.432535 64.650743 
L 374.432535 64.649419 
" style="fill:none;stroke:#000000;"/>
    <path clip-path="url(#p8286c73cc7)" d="M 392.509059 61.620249 
L 392.509059 61.618559 
" style="fill:none;stroke:#000000;"/>
    <path clip-path="url(#p8286c73cc7)" d="M 580.74391 69.759106 
L 580.74391 69.757486 
" style="fill:none;stroke:#000000;"/>
    <path clip-path="url(#p8286c73cc7)" d="M 589.416811 53.496567 
L 589.416811 53.495528 
" style="fill:none;stroke:#000000;"/>
    <path clip-path="url(#p8286c73cc7)" d="M 597.828242 45.734363 
L 597.828242 45.733396 
" style="fill:none;stroke:#000000;"/>
    <path clip-path="url(#p8286c73cc7)" d="M 619.038092 44.988532 
L 619.038092 44.987566 
" style="fill:none;stroke:#000000;"/>
   </g>
   <g id="LineCollection_3">
    <path clip-path="url(#p8286c73cc7)" d="M 241.823416 136.055315 
L 245.344804 136.055315 
" style="fill:none;stroke:#0000ff;"/>
    <path clip-path="url(#p8286c73cc7)" d="M 245.511164 138.011052 
L 248.479787 138.011052 
" style="fill:none;stroke:#0000ff;"/>
    <path clip-path="url(#p8286c73cc7)" d="M 249.910082 138.291412 
L 256.380872 138.291412 
" style="fill:none;stroke:#0000ff;"/>
    <path clip-path="url(#p8286c73cc7)" d="M 259.092997 148.122252 
L 264.724699 148.122252 
" style="fill:none;stroke:#0000ff;"/>
    <path clip-path="url(#p8286c73cc7)" d="M 278.358892 82.142356 
L 297.229767 82.142356 
" style="fill:none;stroke:#0000ff;"/>
    <path clip-path="url(#p8286c73cc7)" d="M 297.283453 84.895449 
L 307.149702 84.895449 
" style="fill:none;stroke:#0000ff;"/>
    <path clip-path="url(#p8286c73cc7)" d="M 307.180853 89.918881 
L 316.974195 89.918881 
" style="fill:none;stroke:#0000ff;"/>
    <path clip-path="url(#p8286c73cc7)" d="M 317.029869 90.513703 
L 326.578643 90.513703 
" style="fill:none;stroke:#0000ff;"/>
    <path clip-path="url(#p8286c73cc7)" d="M 326.636305 90.780765 
L 336.143986 90.780765 
" style="fill:none;stroke:#0000ff;"/>
    <path clip-path="url(#p8286c73cc7)" d="M 336.167184 92.886116 
L 347.311949 92.886116 
" style="fill:none;stroke:#0000ff;"/>
    <path clip-path="url(#p8286c73cc7)" d="M 347.3431 95.941236 
L 357.136442 95.941236 
" style="fill:none;stroke:#0000ff;"/>
    <path clip-path="url(#p8286c73cc7)" d="M 357.202058 123.373426 
L 360.244914 123.373426 
" style="fill:none;stroke:#0000ff;"/>
    <path clip-path="url(#p8286c73cc7)" d="M 360.273414 108.098027 
L 365.949522 108.098027 
" style="fill:none;stroke:#0000ff;"/>
    <path clip-path="url(#p8286c73cc7)" d="M 369.667095 100.910125 
L 379.197974 100.910125 
" style="fill:none;stroke:#0000ff;"/>
    <path clip-path="url(#p8286c73cc7)" d="M 389.970253 96.931681 
L 395.047865 96.931681 
" style="fill:none;stroke:#0000ff;"/>
    <path clip-path="url(#p8286c73cc7)" d="M 576.712508 85.040026 
L 584.775313 85.040026 
" style="fill:none;stroke:#0000ff;"/>
    <path clip-path="url(#p8286c73cc7)" d="M 584.805801 76.581705 
L 594.027821 76.581705 
" style="fill:none;stroke:#0000ff;"/>
    <path clip-path="url(#p8286c73cc7)" d="M 594.106693 65.520287 
L 601.549792 65.520287 
" style="fill:none;stroke:#0000ff;"/>
    <path clip-path="url(#p8286c73cc7)" d="M 615.439821 62.854986 
L 622.636364 62.854986 
" style="fill:none;stroke:#0000ff;"/>
   </g>
   <g id="LineCollection_4">
    <path clip-path="url(#p8286c73cc7)" d="M 243.58411 136.061 
L 243.58411 136.049632 
" style="fill:none;stroke:#0000ff;"/>
    <path clip-path="url(#p8286c73cc7)" d="M 246.995475 138.01753 
L 246.995475 138.004576 
" style="fill:none;stroke:#0000ff;"/>
    <path clip-path="url(#p8286c73cc7)" d="M 253.145477 138.295829 
L 253.145477 138.286997 
" style="fill:none;stroke:#0000ff;"/>
    <path clip-path="url(#p8286c73cc7)" d="M 261.908848 148.128196 
L 261.908848 148.11631 
" style="fill:none;stroke:#0000ff;"/>
    <path clip-path="url(#p8286c73cc7)" d="M 287.79433 82.143061 
L 287.79433 82.141651 
" style="fill:none;stroke:#0000ff;"/>
    <path clip-path="url(#p8286c73cc7)" d="M 302.216577 84.896488 
L 302.216577 84.894409 
" style="fill:none;stroke:#0000ff;"/>
    <path clip-path="url(#p8286c73cc7)" d="M 312.077524 89.920052 
L 312.077524 89.917709 
" style="fill:none;stroke:#0000ff;"/>
    <path clip-path="url(#p8286c73cc7)" d="M 321.804256 90.514906 
L 321.804256 90.5125 
" style="fill:none;stroke:#0000ff;"/>
    <path clip-path="url(#p8286c73cc7)" d="M 331.390146 90.781978 
L 331.390146 90.779552 
" style="fill:none;stroke:#0000ff;"/>
    <path clip-path="url(#p8286c73cc7)" d="M 341.739566 92.887292 
L 341.739566 92.88494 
" style="fill:none;stroke:#0000ff;"/>
    <path clip-path="url(#p8286c73cc7)" d="M 352.239771 95.942583 
L 352.239771 95.939889 
" style="fill:none;stroke:#0000ff;"/>
    <path clip-path="url(#p8286c73cc7)" d="M 358.723486 123.377986 
L 358.723486 123.368867 
" style="fill:none;stroke:#0000ff;"/>
    <path clip-path="url(#p8286c73cc7)" d="M 363.111468 108.100372 
L 363.111468 108.095683 
" style="fill:none;stroke:#0000ff;"/>
    <path clip-path="url(#p8286c73cc7)" d="M 374.432535 100.911657 
L 374.432535 100.908594 
" style="fill:none;stroke:#0000ff;"/>
    <path clip-path="url(#p8286c73cc7)" d="M 392.509059 96.933595 
L 392.509059 96.929767 
" style="fill:none;stroke:#0000ff;"/>
    <path clip-path="url(#p8286c73cc7)" d="M 580.74391 85.041179 
L 580.74391 85.038872 
" style="fill:none;stroke:#0000ff;"/>
    <path clip-path="url(#p8286c73cc7)" d="M 589.416811 76.582591 
L 589.416811 76.580818 
" style="fill:none;stroke:#0000ff;"/>
    <path clip-path="url(#p8286c73cc7)" d="M 597.828242 65.521052 
L 597.828242 65.519523 
" style="fill:none;stroke:#0000ff;"/>
    <path clip-path="url(#p8286c73cc7)" d="M 619.038092 62.855716 
L 619.038092 62.854255 
" style="fill:none;stroke:#0000ff;"/>
   </g>
   <g id="LineCollection_5">
    <path clip-path="url(#p8286c73cc7)" d="M 241.823416 207.392333 
L 245.344804 207.392333 
" style="fill:none;stroke:#ff0000;"/>
    <path clip-path="url(#p8286c73cc7)" d="M 245.511164 206.301886 
L 248.479787 206.301886 
" style="fill:none;stroke:#ff0000;"/>
    <path clip-path="url(#p8286c73cc7)" d="M 249.910082 210.494815 
L 256.380872 210.494815 
" style="fill:none;stroke:#ff0000;"/>
    <path clip-path="url(#p8286c73cc7)" d="M 259.092997 215.951671 
L 264.724699 215.951671 
" style="fill:none;stroke:#ff0000;"/>
    <path clip-path="url(#p8286c73cc7)" d="M 278.358892 167.244587 
L 297.229767 167.244587 
" style="fill:none;stroke:#ff0000;"/>
    <path clip-path="url(#p8286c73cc7)" d="M 297.283453 167.648281 
L 307.149702 167.648281 
" style="fill:none;stroke:#ff0000;"/>
    <path clip-path="url(#p8286c73cc7)" d="M 307.180853 170.506347 
L 316.974195 170.506347 
" style="fill:none;stroke:#ff0000;"/>
    <path clip-path="url(#p8286c73cc7)" d="M 317.029869 170.145549 
L 326.578643 170.145549 
" style="fill:none;stroke:#ff0000;"/>
    <path clip-path="url(#p8286c73cc7)" d="M 326.636305 170.259013 
L 336.143986 170.259013 
" style="fill:none;stroke:#ff0000;"/>
    <path clip-path="url(#p8286c73cc7)" d="M 336.167184 171.23107 
L 347.311949 171.23107 
" style="fill:none;stroke:#ff0000;"/>
    <path clip-path="url(#p8286c73cc7)" d="M 347.3431 174.337321 
L 357.136442 174.337321 
" style="fill:none;stroke:#ff0000;"/>
    <path clip-path="url(#p8286c73cc7)" d="M 357.202058 203.794325 
L 360.244914 203.794325 
" style="fill:none;stroke:#ff0000;"/>
    <path clip-path="url(#p8286c73cc7)" d="M 360.273414 185.532784 
L 365.949522 185.532784 
" style="fill:none;stroke:#ff0000;"/>
    <path clip-path="url(#p8286c73cc7)" d="M 369.667095 175.982994 
L 379.197974 175.982994 
" style="fill:none;stroke:#ff0000;"/>
    <path clip-path="url(#p8286c73cc7)" d="M 389.970253 172.905204 
L 395.047865 172.905204 
" style="fill:none;stroke:#ff0000;"/>
    <path clip-path="url(#p8286c73cc7)" d="M 576.712508 186.679449 
L 584.775313 186.679449 
" style="fill:none;stroke:#ff0000;"/>
    <path clip-path="url(#p8286c73cc7)" d="M 584.805801 182.244518 
L 594.027821 182.244518 
" style="fill:none;stroke:#ff0000;"/>
    <path clip-path="url(#p8286c73cc7)" d="M 594.106693 176.544617 
L 601.549792 176.544617 
" style="fill:none;stroke:#ff0000;"/>
    <path clip-path="url(#p8286c73cc7)" d="M 615.439821 168.123832 
L 622.636364 168.123832 
" style="fill:none;stroke:#ff0000;"/>
   </g>
   <g id="LineCollection_6">
    <path clip-path="url(#p8286c73cc7)" d="M 243.58411 207.421981 
L 243.58411 207.362725 
" style="fill:none;stroke:#ff0000;"/>
    <path clip-path="url(#p8286c73cc7)" d="M 246.995475 206.333374 
L 246.995475 206.270444 
" style="fill:none;stroke:#ff0000;"/>
    <path clip-path="url(#p8286c73cc7)" d="M 253.145477 210.518312 
L 253.145477 210.471344 
" style="fill:none;stroke:#ff0000;"/>
    <path clip-path="url(#p8286c73cc7)" d="M 261.908848 215.980251 
L 261.908848 215.923129 
" style="fill:none;stroke:#ff0000;"/>
    <path clip-path="url(#p8286c73cc7)" d="M 287.79433 167.249642 
L 287.79433 167.239534 
" style="fill:none;stroke:#ff0000;"/>
    <path clip-path="url(#p8286c73cc7)" d="M 302.216577 167.655337 
L 302.216577 167.641227 
" style="fill:none;stroke:#ff0000;"/>
    <path clip-path="url(#p8286c73cc7)" d="M 312.077524 170.513914 
L 312.077524 170.498783 
" style="fill:none;stroke:#ff0000;"/>
    <path clip-path="url(#p8286c73cc7)" d="M 321.804256 170.153148 
L 321.804256 170.137952 
" style="fill:none;stroke:#ff0000;"/>
    <path clip-path="url(#p8286c73cc7)" d="M 331.390146 170.266649 
L 331.390146 170.25138 
" style="fill:none;stroke:#ff0000;"/>
    <path clip-path="url(#p8286c73cc7)" d="M 341.739566 171.238283 
L 341.739566 171.223859 
" style="fill:none;stroke:#ff0000;"/>
    <path clip-path="url(#p8286c73cc7)" d="M 352.239771 174.34559 
L 352.239771 174.329056 
" style="fill:none;stroke:#ff0000;"/>
    <path clip-path="url(#p8286c73cc7)" d="M 358.723486 203.823671 
L 358.723486 203.765018 
" style="fill:none;stroke:#ff0000;"/>
    <path clip-path="url(#p8286c73cc7)" d="M 363.111468 185.546859 
L 363.111468 185.518717 
" style="fill:none;stroke:#ff0000;"/>
    <path clip-path="url(#p8286c73cc7)" d="M 374.432535 175.991701 
L 374.432535 175.97429 
" style="fill:none;stroke:#ff0000;"/>
    <path clip-path="url(#p8286c73cc7)" d="M 392.509059 172.916314 
L 392.509059 172.8941 
" style="fill:none;stroke:#ff0000;"/>
    <path clip-path="url(#p8286c73cc7)" d="M 580.74391 186.691576 
L 580.74391 186.667329 
" style="fill:none;stroke:#ff0000;"/>
    <path clip-path="url(#p8286c73cc7)" d="M 589.416811 182.254751 
L 589.416811 182.23429 
" style="fill:none;stroke:#ff0000;"/>
    <path clip-path="url(#p8286c73cc7)" d="M 597.828242 176.554599 
L 597.828242 176.534639 
" style="fill:none;stroke:#ff0000;"/>
    <path clip-path="url(#p8286c73cc7)" d="M 619.038092 168.132186 
L 619.038092 168.115482 
" style="fill:none;stroke:#ff0000;"/>
   </g>
   <g id="line2d_40">
    <defs>
     <path d="M 0 2.5 
C 0.663008 2.5 1.29895 2.236584 1.767767 1.767767 
C 2.236584 1.29895 2.5 0.663008 2.5 0 
C 2.5 -0.663008 2.236584 -1.29895 1.767767 -1.767767 
C 1.29895 -2.236584 0.663008 -2.5 0 -2.5 
C -0.663008 -2.5 -1.29895 -2.236584 -1.767767 -1.767767 
C -2.236584 -1.29895 -2.5 -0.663008 -2.5 0 
C -2.5 0.663008 -2.236584 1.29895 -1.767767 1.767767 
C -1.29895 2.236584 -0.663008 2.5 0 2.5 
z
" id="mdfbb2f1328" style="stroke:#1a1a1a;stroke-width:0.5;"/>
    </defs>
    <g clip-path="url(#p8286c73cc7)">
     <use style="stroke:#1a1a1a;stroke-width:0.5;" x="243.58411" xlink:href="#mdfbb2f1328" y="99.175828"/>
     <use style="stroke:#1a1a1a;stroke-width:0.5;" x="246.995475" xlink:href="#mdfbb2f1328" y="96.556816"/>
     <use style="stroke:#1a1a1a;stroke-width:0.5;" x="253.145477" xlink:href="#mdfbb2f1328" y="96.490809"/>
     <use style="stroke:#1a1a1a;stroke-width:0.5;" x="261.908848" xlink:href="#mdfbb2f1328" y="96.84948"/>
     <use style="stroke:#1a1a1a;stroke-width:0.5;" x="287.79433" xlink:href="#mdfbb2f1328" y="46.474046"/>
     <use style="stroke:#1a1a1a;stroke-width:0.5;" x="302.216577" xlink:href="#mdfbb2f1328" y="48.365556"/>
     <use style="stroke:#1a1a1a;stroke-width:0.5;" x="312.077524" xlink:href="#mdfbb2f1328" y="52.664279"/>
     <use style="stroke:#1a1a1a;stroke-width:0.5;" x="321.804256" xlink:href="#mdfbb2f1328" y="52.786991"/>
     <use style="stroke:#1a1a1a;stroke-width:0.5;" x="331.390146" xlink:href="#mdfbb2f1328" y="53.944625"/>
     <use style="stroke:#1a1a1a;stroke-width:0.5;" x="341.739566" xlink:href="#mdfbb2f1328" y="56.315087"/>
     <use style="stroke:#1a1a1a;stroke-width:0.5;" x="352.239771" xlink:href="#mdfbb2f1328" y="59.923746"/>
     <use style="stroke:#1a1a1a;stroke-width:0.5;" x="358.723486" xlink:href="#mdfbb2f1328" y="89.143808"/>
     <use style="stroke:#1a1a1a;stroke-width:0.5;" x="363.111468" xlink:href="#mdfbb2f1328" y="71.720873"/>
     <use style="stroke:#1a1a1a;stroke-width:0.5;" x="374.432535" xlink:href="#mdfbb2f1328" y="64.650081"/>
     <use style="stroke:#1a1a1a;stroke-width:0.5;" x="392.509059" xlink:href="#mdfbb2f1328" y="61.619404"/>
     <use style="stroke:#1a1a1a;stroke-width:0.5;" x="580.74391" xlink:href="#mdfbb2f1328" y="69.758296"/>
     <use style="stroke:#1a1a1a;stroke-width:0.5;" x="589.416811" xlink:href="#mdfbb2f1328" y="53.496047"/>
     <use style="stroke:#1a1a1a;stroke-width:0.5;" x="597.828242" xlink:href="#mdfbb2f1328" y="45.73388"/>
     <use style="stroke:#1a1a1a;stroke-width:0.5;" x="619.038092" xlink:href="#mdfbb2f1328" y="44.988049"/>
    </g>
   </g>
   <g id="line2d_41">
    <defs>
     <path d="M 0 2.5 
C 0.663008 2.5 1.29895 2.236584 1.767767 1.767767 
C 2.236584 1.29895 2.5 0.663008 2.5 0 
C 2.5 -0.663008 2.236584 -1.29895 1.767767 -1.767767 
C 1.29895 -2.236584 0.663008 -2.5 0 -2.5 
C -0.663008 -2.5 -1.29895 -2.236584 -1.767767 -1.767767 
C -2.236584 -1.29895 -2.5 -0.663008 -2.5 0 
C -2.5 0.663008 -2.236584 1.29895 -1.767767 1.767767 
C -1.29895 2.236584 -0.663008 2.5 0 2.5 
z
" id="m39aff74483" style="stroke:#1a1a1a;stroke-width:0.5;"/>
    </defs>
    <g clip-path="url(#p8286c73cc7)">
     <use style="fill:#0000ff;stroke:#1a1a1a;stroke-width:0.5;" x="243.58411" xlink:href="#m39aff74483" y="136.055315"/>
     <use style="fill:#0000ff;stroke:#1a1a1a;stroke-width:0.5;" x="246.995475" xlink:href="#m39aff74483" y="138.011052"/>
     <use style="fill:#0000ff;stroke:#1a1a1a;stroke-width:0.5;" x="253.145477" xlink:href="#m39aff74483" y="138.291412"/>
     <use style="fill:#0000ff;stroke:#1a1a1a;stroke-width:0.5;" x="261.908848" xlink:href="#m39aff74483" y="148.122252"/>
     <use style="fill:#0000ff;stroke:#1a1a1a;stroke-width:0.5;" x="287.79433" xlink:href="#m39aff74483" y="82.142356"/>
     <use style="fill:#0000ff;stroke:#1a1a1a;stroke-width:0.5;" x="302.216577" xlink:href="#m39aff74483" y="84.895449"/>
     <use style="fill:#0000ff;stroke:#1a1a1a;stroke-width:0.5;" x="312.077524" xlink:href="#m39aff74483" y="89.918881"/>
     <use style="fill:#0000ff;stroke:#1a1a1a;stroke-width:0.5;" x="321.804256" xlink:href="#m39aff74483" y="90.513703"/>
     <use style="fill:#0000ff;stroke:#1a1a1a;stroke-width:0.5;" x="331.390146" xlink:href="#m39aff74483" y="90.780765"/>
     <use style="fill:#0000ff;stroke:#1a1a1a;stroke-width:0.5;" x="341.739566" xlink:href="#m39aff74483" y="92.886116"/>
     <use style="fill:#0000ff;stroke:#1a1a1a;stroke-width:0.5;" x="352.239771" xlink:href="#m39aff74483" y="95.941236"/>
     <use style="fill:#0000ff;stroke:#1a1a1a;stroke-width:0.5;" x="358.723486" xlink:href="#m39aff74483" y="123.373426"/>
     <use style="fill:#0000ff;stroke:#1a1a1a;stroke-width:0.5;" x="363.111468" xlink:href="#m39aff74483" y="108.098027"/>
     <use style="fill:#0000ff;stroke:#1a1a1a;stroke-width:0.5;" x="374.432535" xlink:href="#m39aff74483" y="100.910125"/>
     <use style="fill:#0000ff;stroke:#1a1a1a;stroke-width:0.5;" x="392.509059" xlink:href="#m39aff74483" y="96.931681"/>
     <use style="fill:#0000ff;stroke:#1a1a1a;stroke-width:0.5;" x="580.74391" xlink:href="#m39aff74483" y="85.040026"/>
     <use style="fill:#0000ff;stroke:#1a1a1a;stroke-width:0.5;" x="589.416811" xlink:href="#m39aff74483" y="76.581705"/>
     <use style="fill:#0000ff;stroke:#1a1a1a;stroke-width:0.5;" x="597.828242" xlink:href="#m39aff74483" y="65.520287"/>
     <use style="fill:#0000ff;stroke:#1a1a1a;stroke-width:0.5;" x="619.038092" xlink:href="#m39aff74483" y="62.854986"/>
    </g>
   </g>
   <g id="line2d_42">
    <defs>
     <path d="M 0 2.5 
C 0.663008 2.5 1.29895 2.236584 1.767767 1.767767 
C 2.236584 1.29895 2.5 0.663008 2.5 0 
C 2.5 -0.663008 2.236584 -1.29895 1.767767 -1.767767 
C 1.29895 -2.236584 0.663008 -2.5 0 -2.5 
C -0.663008 -2.5 -1.29895 -2.236584 -1.767767 -1.767767 
C -2.236584 -1.29895 -2.5 -0.663008 -2.5 0 
C -2.5 0.663008 -2.236584 1.29895 -1.767767 1.767767 
C -1.29895 2.236584 -0.663008 2.5 0 2.5 
z
" id="m91e7c5ed64" style="stroke:#1a1a1a;stroke-width:0.5;"/>
    </defs>
    <g clip-path="url(#p8286c73cc7)">
     <use style="fill:#ff0000;stroke:#1a1a1a;stroke-width:0.5;" x="243.58411" xlink:href="#m91e7c5ed64" y="207.392333"/>
     <use style="fill:#ff0000;stroke:#1a1a1a;stroke-width:0.5;" x="246.995475" xlink:href="#m91e7c5ed64" y="206.301886"/>
     <use style="fill:#ff0000;stroke:#1a1a1a;stroke-width:0.5;" x="253.145477" xlink:href="#m91e7c5ed64" y="210.494815"/>
     <use style="fill:#ff0000;stroke:#1a1a1a;stroke-width:0.5;" x="261.908848" xlink:href="#m91e7c5ed64" y="215.951671"/>
     <use style="fill:#ff0000;stroke:#1a1a1a;stroke-width:0.5;" x="287.79433" xlink:href="#m91e7c5ed64" y="167.244587"/>
     <use style="fill:#ff0000;stroke:#1a1a1a;stroke-width:0.5;" x="302.216577" xlink:href="#m91e7c5ed64" y="167.648281"/>
     <use style="fill:#ff0000;stroke:#1a1a1a;stroke-width:0.5;" x="312.077524" xlink:href="#m91e7c5ed64" y="170.506347"/>
     <use style="fill:#ff0000;stroke:#1a1a1a;stroke-width:0.5;" x="321.804256" xlink:href="#m91e7c5ed64" y="170.145549"/>
     <use style="fill:#ff0000;stroke:#1a1a1a;stroke-width:0.5;" x="331.390146" xlink:href="#m91e7c5ed64" y="170.259013"/>
     <use style="fill:#ff0000;stroke:#1a1a1a;stroke-width:0.5;" x="341.739566" xlink:href="#m91e7c5ed64" y="171.23107"/>
     <use style="fill:#ff0000;stroke:#1a1a1a;stroke-width:0.5;" x="352.239771" xlink:href="#m91e7c5ed64" y="174.337321"/>
     <use style="fill:#ff0000;stroke:#1a1a1a;stroke-width:0.5;" x="358.723486" xlink:href="#m91e7c5ed64" y="203.794325"/>
     <use style="fill:#ff0000;stroke:#1a1a1a;stroke-width:0.5;" x="363.111468" xlink:href="#m91e7c5ed64" y="185.532784"/>
     <use style="fill:#ff0000;stroke:#1a1a1a;stroke-width:0.5;" x="374.432535" xlink:href="#m91e7c5ed64" y="175.982994"/>
     <use style="fill:#ff0000;stroke:#1a1a1a;stroke-width:0.5;" x="392.509059" xlink:href="#m91e7c5ed64" y="172.905204"/>
     <use style="fill:#ff0000;stroke:#1a1a1a;stroke-width:0.5;" x="580.74391" xlink:href="#m91e7c5ed64" y="186.679449"/>
     <use style="fill:#ff0000;stroke:#1a1a1a;stroke-width:0.5;" x="589.416811" xlink:href="#m91e7c5ed64" y="182.244518"/>
     <use style="fill:#ff0000;stroke:#1a1a1a;stroke-width:0.5;" x="597.828242" xlink:href="#m91e7c5ed64" y="176.544617"/>
     <use style="fill:#ff0000;stroke:#1a1a1a;stroke-width:0.5;" x="619.038092" xlink:href="#m91e7c5ed64" y="168.123832"/>
    </g>
   </g>
   <g id="patch_3">
    <path d="M 90 222.381818 
L 90 43.2 
" style="fill:none;stroke:#262626;stroke-linecap:square;stroke-linejoin:miter;stroke-width:1.25;"/>
   </g>
   <g id="patch_4">
    <path d="M 648 222.381818 
L 648 43.2 
" style="fill:none;stroke:#262626;stroke-linecap:square;stroke-linejoin:miter;stroke-width:1.25;"/>
   </g>
   <g id="patch_5">
    <path d="M 90 222.381818 
L 648 222.381818 
" style="fill:none;stroke:#262626;stroke-linecap:square;stroke-linejoin:miter;stroke-width:1.25;"/>
   </g>
   <g id="patch_6">
    <path d="M 90 43.2 
L 648 43.2 
" style="fill:none;stroke:#262626;stroke-linecap:square;stroke-linejoin:miter;stroke-width:1.25;"/>
   </g>
   <g id="text_6">
    <!-- 2024 Prodution rate -->
    <defs>
     <path d="M 19.796875 31.90625 
L 35.796875 31.90625 
C 48.703125 31.90625 58.09375 40.28125 58.09375 49.75 
C 58.09375 59.234375 48.90625 68 35.796875 68 
L 5.203125 68 
L 5.203125 65.40625 
C 12.09375 65.40625 13.203125 65.40625 13.203125 60.921875 
L 13.203125 6.96875 
C 13.203125 2.5 12.09375 2.5 5.203125 2.5 
L 5.203125 0 
C 8.09375 0 13.40625 0 16.5 0 
C 19.59375 0 24.90625 0 27.796875 0 
L 27.796875 2.5 
C 20.90625 2.5 19.796875 2.5 19.796875 6.96875 
z
M 19.59375 34 
L 19.59375 61.53125 
C 19.59375 64.921875 19.796875 65.40625 23.796875 65.40625 
L 33.90625 65.40625 
C 46.796875 65.40625 50.5 58.03125 50.5 49.75 
C 50.5 40.6875 46.09375 34 33.90625 34 
z
" id="CMR17-80"/>
     <path d="M 15 23.390625 
C 15 33 19.09375 42 26.59375 42 
C 27.296875 42 28 41.90625 28.703125 41.59375 
C 28.703125 41.59375 26.5 40.890625 26.5 38.3125 
C 26.5 35.90625 28.40625 34.90625 29.90625 34.90625 
C 31.09375 34.90625 33.296875 35.609375 33.296875 38.40625 
C 33.296875 41.609375 30.09375 43.59375 26.703125 43.59375 
C 19.09375 43.59375 15.796875 36.203125 14.796875 32.703125 
L 14.703125 32.703125 
L 14.703125 43.59375 
L 3.09375 42.5 
L 3.09375 39.90625 
C 9 39.90625 9.90625 39.296875 9.90625 34.5 
L 9.90625 6.6875 
C 9.90625 2.875 9.5 2.390625 3.09375 2.390625 
L 3.09375 -0.203125 
C 5.5 0 10.09375 0 12.703125 0 
C 15.59375 0 20.703125 0 23.40625 -0.203125 
L 23.40625 2.390625 
C 16.203125 2.390625 15 2.390625 15 6.875 
z
" id="CMR17-114"/>
     <path d="M 43.09375 21.1875 
C 43.09375 34 33.796875 44 22.90625 44 
C 12 44 2.703125 34 2.703125 21.1875 
C 2.703125 8.609375 12 -1 22.90625 -1 
C 33.796875 -1 43.09375 8.609375 43.09375 21.1875 
z
M 22.90625 0.796875 
C 18.203125 0.796875 14.203125 3.59375 11.90625 7.5 
C 9.40625 11.984375 9.09375 17.59375 9.09375 22 
C 9.09375 26.203125 9.296875 31.40625 11.90625 35.90625 
C 13.90625 39.203125 17.796875 42.40625 22.90625 42.40625 
C 27.40625 42.40625 31.203125 39.90625 33.59375 36.40625 
C 36.703125 31.703125 36.703125 25.109375 36.703125 22 
C 36.703125 18.09375 36.5 12.109375 33.796875 7.296875 
C 31 2.703125 26.703125 0.796875 22.90625 0.796875 
z
" id="CMR17-111"/>
     <path d="M 29.203125 67.59375 
L 29.203125 65 
C 35.09375 65 36 64.40625 36 59.6875 
L 36 36.640625 
C 35.59375 37.140625 31.5 43.59375 23.40625 43.59375 
C 13.203125 43.59375 3.296875 34.5 3.296875 21.3125 
C 3.296875 8.203125 12.59375 -1 22.40625 -1 
C 30.90625 -1 35.296875 5.265625 35.796875 5.9375 
L 35.796875 -0.984375 
L 47.90625 -0.984375 
L 47.90625 2 
C 42 2 41.09375 2.59375 41.09375 7.390625 
L 41.09375 68.6875 
z
M 35.796875 11.796875 
C 35.796875 8.796875 34 6.09375 31.703125 4.09375 
C 28.296875 1.09375 24.90625 0.59375 23 0.59375 
C 20.09375 0.59375 9.703125 2.09375 9.703125 21.1875 
C 9.703125 40.8125 21.296875 42 23.90625 42 
C 28.5 42 32.203125 39.40625 34.5 35.796875 
C 35.796875 33.703125 35.796875 33.40625 35.796875 31.609375 
z
" id="CMR17-100"/>
     <path d="M 29.40625 42.078125 
L 29.40625 39.5 
C 35.296875 39.5 36.203125 38.890625 36.203125 34.15625 
L 36.203125 16.125 
C 36.203125 7.8125 31.703125 0.59375 24.296875 0.59375 
C 16.09375 0.59375 15.40625 5.4375 15.40625 10.59375 
L 15.40625 43.171875 
L 3.296875 42.078125 
L 3.296875 39.5 
C 7.296875 39.5 10 39.5 10.09375 35.53125 
L 10.09375 16.53125 
C 10.09375 9.890625 10.09375 5.640625 12.703125 2.859375 
C 14 1.578125 16.5 -1 23.703125 -1 
C 32.203125 -1 35.5 5.890625 36.296875 7.90625 
L 36.40625 7.90625 
L 36.40625 -0.984375 
L 48.296875 -0.984375 
L 48.296875 2 
C 42.40625 2 41.5 2.59375 41.5 7.390625 
L 41.5 43.171875 
z
" id="CMR17-117"/>
     <path d="M 15.09375 40 
L 29.09375 40 
L 29.09375 42.578125 
L 15.09375 42.578125 
L 15.09375 61 
L 13.296875 61 
C 13.09375 50.703125 9.59375 41.6875 1.09375 41.6875 
L 1.09375 40 
L 9.796875 40 
L 9.796875 12.046875 
C 9.796875 10.15625 9.796875 -1 21.40625 -1 
C 27.296875 -1 30.703125 4.78125 30.703125 12.140625 
L 30.703125 17.8125 
L 28.90625 17.8125 
L 28.90625 12.234375 
C 28.90625 5.375 26.203125 0.796875 22 0.796875 
C 19.09375 0.796875 15.09375 2.78125 15.09375 11.84375 
z
" id="CMR17-116"/>
     <path d="M 15.5 61.078125 
C 15.5 63.265625 13.703125 65.15625 11.40625 65.15625 
C 9.203125 65.15625 7.296875 63.375 7.296875 61.078125 
C 7.296875 58.890625 9.09375 57 11.40625 57 
C 13.59375 57 15.5 58.796875 15.5 61.078125 
z
M 3.796875 42.28125 
L 3.796875 39.703125 
C 9.40625 39.703125 10.203125 39.09375 10.203125 34.328125 
L 10.203125 6.671875 
C 10.203125 2.875 9.796875 2.390625 3.40625 2.390625 
L 3.40625 -0.203125 
C 5.796875 0 10.09375 0 12.59375 0 
C 15 0 19.09375 0 21.40625 -0.203125 
L 21.40625 2.390625 
C 15.5 2.390625 15.296875 2.984375 15.296875 6.5625 
L 15.296875 43.375 
z
" id="CMR17-105"/>
     <path d="M 41.5 30.203125 
C 41.5 35.296875 40.5 43.59375 28.703125 43.59375 
C 20.796875 43.59375 16.703125 37.5 15.203125 33.5 
L 15.09375 33.5 
L 15.09375 43.59375 
L 3.296875 42.5 
L 3.296875 39.90625 
C 9.203125 39.90625 10.09375 39.296875 10.09375 34.5 
L 10.09375 6.6875 
C 10.09375 2.875 9.703125 2.390625 3.296875 2.390625 
L 3.296875 -0.203125 
C 5.703125 0 10.09375 0 12.703125 0 
C 15.296875 0 19.796875 0 22.203125 -0.203125 
L 22.203125 2.390625 
C 15.796875 2.390625 15.40625 2.78125 15.40625 6.6875 
L 15.40625 25.90625 
C 15.40625 35.109375 21 42 28 42 
C 35.40625 42 36.203125 35.40625 36.203125 30.59375 
L 36.203125 6.6875 
C 36.203125 2.875 35.796875 2.390625 29.40625 2.390625 
L 29.40625 -0.203125 
C 31.796875 0 36.203125 0 38.796875 0 
C 41.40625 0 45.90625 0 48.296875 -0.203125 
L 48.296875 2.390625 
C 41.90625 2.390625 41.5 2.78125 41.5 6.6875 
z
" id="CMR17-110"/>
     <path d="M 36 25.828125 
C 36 32.375 36 35.84375 31.796875 39.734375 
C 28.09375 43 23.796875 44 20.40625 44 
C 12.5 44 6.796875 37.609375 6.796875 30.796875 
C 6.796875 27 9.796875 27 10.40625 27 
C 11.703125 27 14 27.78125 14 30.53125 
C 14 33 12.09375 34.078125 10.40625 34.078125 
C 10 34.078125 9.5 33.96875 9.203125 33.875 
C 11.296875 40.5 16.703125 42.40625 20.203125 42.40625 
C 25.203125 42.40625 30.703125 37.953125 30.703125 29.453125 
L 30.703125 25 
C 24.796875 25 17.703125 24.203125 12.09375 21.203125 
C 5.796875 17.703125 4 12.703125 4 8.90625 
C 4 1.203125 13 -1 18.296875 -1 
C 23.796875 -1 28.90625 2.171875 31.09375 7.984375 
C 31.296875 3.640625 34.09375 -0.28125 38.5 -0.28125 
C 40.59375 -0.28125 45.90625 1.09375 45.90625 8.859375 
L 45.90625 14.375 
L 44.09375 14.375 
L 44.09375 8.78125 
C 44.09375 2.78125 41.40625 2 40.09375 2 
C 36 2 36 7.15625 36 11.53125 
z
M 30.703125 13.59375 
C 30.703125 4.953125 24.5 0.59375 19 0.59375 
C 14 0.59375 10.09375 4.296875 10.09375 8.90625 
C 10.09375 11.890625 11.40625 17.1875 17.203125 20.390625 
C 22 23.09375 27.5 23.5 30.703125 23.5 
z
" id="CMR17-97"/>
     <path d="M 38.09375 23 
C 38.5 23.40625 38.5 23.609375 38.5 24.625 
C 38.5 34.96875 33.09375 44 21.703125 44 
C 11.09375 44 2.703125 33.890625 2.703125 21.609375 
C 2.703125 8.609375 12.203125 -1 22.796875 -1 
C 34 -1 38.40625 9.484375 38.40625 11.5625 
C 38.40625 12.25 37.796875 12.25 37.59375 12.25 
C 36.90625 12.25 36.796875 12.046875 36.40625 10.875 
C 34.203125 4.140625 28.703125 0.796875 23.5 0.796875 
C 19.203125 0.796875 14.90625 3.171875 12.203125 7.5 
C 9.09375 12.546875 9.09375 18.375 9.09375 23 
z
M 9.203125 24.5 
C 9.90625 39.140625 17.59375 42.40625 21.59375 42.40625 
C 28.40625 42.40625 33 35.890625 33.09375 24.5 
z
" id="CMR17-101"/>
    </defs>
    <g style="fill:#262626;" transform="translate(288.566039 37.2)scale(0.2 -0.2)">
     <use transform="scale(0.996264)" xlink:href="#CMR17-50"/>
     <use transform="translate(45.690477 0)scale(0.996264)" xlink:href="#CMR17-48"/>
     <use transform="translate(91.380954 0)scale(0.996264)" xlink:href="#CMR17-50"/>
     <use transform="translate(137.071431 0)scale(0.996264)" xlink:href="#CMR17-52"/>
     <use transform="translate(212.837875 0)scale(0.996264)" xlink:href="#CMR17-80"/>
     <use transform="translate(275.424175 0)scale(0.996264)" xlink:href="#CMR17-114"/>
     <use transform="translate(310.704943 0)scale(0.996264)" xlink:href="#CMR17-111"/>
     <use transform="translate(358.997859 0)scale(0.996264)" xlink:href="#CMR17-100"/>
     <use transform="translate(409.893229 0)scale(0.996264)" xlink:href="#CMR17-117"/>
     <use transform="translate(460.788599 0)scale(0.996264)" xlink:href="#CMR17-116"/>
     <use transform="translate(496.069366 0)scale(0.996264)" xlink:href="#CMR17-105"/>
     <use transform="translate(520.940425 0)scale(0.996264)" xlink:href="#CMR17-111"/>
     <use transform="translate(566.630902 0)scale(0.996264)" xlink:href="#CMR17-110"/>
     <use transform="translate(647.602238 0)scale(0.996264)" xlink:href="#CMR17-114"/>
     <use transform="translate(682.883006 0)scale(0.996264)" xlink:href="#CMR17-97"/>
     <use transform="translate(728.573483 0)scale(0.996264)" xlink:href="#CMR17-116"/>
     <use transform="translate(763.854251 0)scale(0.996264)" xlink:href="#CMR17-101"/>
    </g>
   </g>
   <g id="legend_1">
    <g id="patch_7">
     <path d="M 97 95.230773 
L 235.811447 95.230773 
Q 237.811447 95.230773 237.811447 93.230773 
L 237.811447 50.2 
Q 237.811447 48.2 235.811447 48.2 
L 97 48.2 
Q 95 48.2 95 50.2 
L 95 93.230773 
Q 95 95.230773 97 95.230773 
z
" style="fill:#ffffff;opacity:0.8;stroke:#cccccc;stroke-linejoin:miter;"/>
    </g>
    <g id="LineCollection_7">
     <path d="M 104 55.7 
L 114 55.7 
" style="fill:none;stroke:#000000;"/>
    </g>
    <g id="LineCollection_8">
     <path d="M 109 60.7 
L 109 50.7 
" style="fill:none;stroke:#000000;"/>
    </g>
    <g id="line2d_43"/>
    <g id="line2d_44">
     <g>
      <use style="stroke:#1a1a1a;stroke-width:0.5;" x="109" xlink:href="#mdfbb2f1328" y="55.7"/>
     </g>
    </g>
    <g id="text_7">
     <!-- All $\beta$ -->
     <defs>
      <path d="M 36.296875 68.40625 
C 35.796875 69.703125 35.59375 70 34.59375 70 
C 33.59375 70 33.40625 69.703125 32.90625 68.40625 
L 11.703125 8.84375 
C 9.796875 3.484375 5.796875 2.390625 2.296875 2.390625 
L 2.296875 -0.203125 
C 4.09375 0 8.09375 0 10 0 
C 12.5 0 16.5 0 18.90625 -0.203125 
L 18.90625 2.390625 
C 14.203125 2.390625 13.5 5.640625 13.5 6.859375 
C 13.5 7.765625 13.703125 8.28125 13.90625 8.890625 
L 19.203125 24 
L 45.40625 24 
L 51.40625 6.90625 
C 51.90625 5.703125 51.90625 5.5 51.90625 5.109375 
C 51.90625 2.390625 47.59375 2.390625 45.703125 2.390625 
L 45.703125 0 
C 48.59375 0 53.796875 0 56.90625 0 
C 59.5 0 64.5 0 66.90625 -0.203125 
L 66.90625 2.390625 
C 61.59375 2.390625 59.796875 2.390625 58.5 6.046875 
z
M 32.296875 60.828125 
L 44.5 26.59375 
L 20.09375 26.59375 
z
" id="CMR17-65"/>
      <path d="M 15.296875 68.6875 
L 3.40625 67.59375 
L 3.40625 65 
C 9.296875 65 10.203125 64.40625 10.203125 59.640625 
L 10.203125 6.65625 
C 10.203125 2.875 9.796875 2.390625 3.40625 2.390625 
L 3.40625 -0.203125 
C 5.796875 0 10.203125 0 12.703125 0 
C 15.296875 0 19.703125 0 22.09375 -0.203125 
L 22.09375 2.390625 
C 15.703125 2.390625 15.296875 2.78125 15.296875 6.65625 
z
" id="CMR17-108"/>
     </defs>
     <g style="fill:#262626;" transform="translate(127 59.2)scale(0.1 -0.1)">
      <use transform="scale(0.996264)" xlink:href="#CMR17-65"/>
      <use transform="translate(69.07243 0)scale(0.996264)" xlink:href="#CMR17-108"/>
      <use transform="translate(93.943488 0)scale(0.996264)" xlink:href="#CMR17-108"/>
      <use transform="translate(148.890513 0)scale(0.996264)" xlink:href="#CMMI12-12"/>
     </g>
    </g>
    <g id="LineCollection_9">
     <path d="M 104 70.746797 
L 114 70.746797 
" style="fill:none;stroke:#0000ff;"/>
    </g>
    <g id="LineCollection_10">
     <path d="M 109 75.746797 
L 109 65.746797 
" style="fill:none;stroke:#0000ff;"/>
    </g>
    <g id="line2d_45"/>
    <g id="line2d_46">
     <g>
      <use style="fill:#0000ff;stroke:#1a1a1a;stroke-width:0.5;" x="109" xlink:href="#m39aff74483" y="70.746797"/>
     </g>
    </g>
    <g id="text_8">
     <!-- $\beta$ from $^{18}\mathrm{N}$ decay chain -->
     <defs>
      <path d="M 15.296875 40 
L 26.703125 40 
L 26.703125 42.578125 
L 15.09375 42.578125 
L 15.09375 54.59375 
C 15.09375 62.84375 19.296875 68 23.59375 68 
C 24.90625 68 26.40625 67.609375 27.40625 66.90625 
C 26.59375 66.703125 24.5 66.015625 24.5 63.546875 
C 24.5 60.953125 26.5 60.15625 27.90625 60.15625 
C 29.296875 60.15625 31.296875 60.953125 31.296875 63.546875 
C 31.296875 67.3125 27.703125 69.59375 23.703125 69.59375 
C 18 69.59375 10.203125 64.9375 10.203125 54.390625 
L 10.203125 42.578125 
L 2.203125 42.578125 
L 2.203125 40 
L 10.203125 40 
L 10.203125 6.671875 
C 10.203125 2.875 9.796875 2.390625 3.40625 2.390625 
L 3.40625 -0.203125 
C 5.796875 0 10.40625 0 13 0 
C 15.90625 0 21 0 23.703125 -0.203125 
L 23.703125 2.390625 
C 16.5 2.390625 15.296875 2.390625 15.296875 6.859375 
z
" id="CMR17-102"/>
      <path d="M 67.59375 30.203125 
C 67.59375 35.1875 66.703125 43.59375 54.796875 43.59375 
C 48 43.59375 43.296875 39 41.5 33.609375 
L 41.40625 33.609375 
C 40.203125 41.8125 34.296875 43.59375 28.703125 43.59375 
C 20.796875 43.59375 16.703125 37.5 15.203125 33.5 
L 15.09375 33.5 
L 15.09375 43.59375 
L 3.296875 42.5 
L 3.296875 39.90625 
C 9.203125 39.90625 10.09375 39.296875 10.09375 34.5 
L 10.09375 6.6875 
C 10.09375 2.875 9.703125 2.390625 3.296875 2.390625 
L 3.296875 -0.203125 
C 5.703125 0 10.09375 0 12.703125 0 
C 15.296875 0 19.796875 0 22.203125 -0.203125 
L 22.203125 2.390625 
C 15.796875 2.390625 15.40625 2.78125 15.40625 6.6875 
L 15.40625 25.90625 
C 15.40625 35.109375 21 42 28 42 
C 35.40625 42 36.203125 35.40625 36.203125 30.59375 
L 36.203125 6.6875 
C 36.203125 2.875 35.796875 2.390625 29.40625 2.390625 
L 29.40625 -0.203125 
C 31.796875 0 36.203125 0 38.796875 0 
C 41.40625 0 45.90625 0 48.296875 -0.203125 
L 48.296875 2.390625 
C 41.90625 2.390625 41.5 2.78125 41.5 6.6875 
L 41.5 25.90625 
C 41.5 35.109375 47.09375 42 54.09375 42 
C 61.5 42 62.296875 35.40625 62.296875 30.59375 
L 62.296875 6.6875 
C 62.296875 2.875 61.90625 2.390625 55.5 2.390625 
L 55.5 -0.203125 
C 57.90625 0 62.296875 0 64.90625 0 
C 67.5 0 72 0 74.40625 -0.203125 
L 74.40625 2.390625 
C 68 2.390625 67.59375 2.78125 67.59375 6.6875 
z
" id="CMR17-109"/>
      <path d="M 27.203125 35.375 
C 33.5 38.546875 39.90625 43.328125 39.90625 50.984375 
C 39.90625 60.015625 31.09375 65.296875 23 65.296875 
C 13.90625 65.296875 5.90625 58.734375 5.90625 49.6875 
C 5.90625 47.203125 6.5 42.921875 10.40625 39.140625 
C 11.40625 38.15625 15.59375 35.171875 18.296875 33.28125 
C 13.796875 30.984375 3.296875 25.53125 3.296875 14.59375 
C 3.296875 4.359375 13.09375 -2 22.796875 -2 
C 33.5 -2 42.5 5.65625 42.5 15.78125 
C 42.5 24.84375 36.40625 29.015625 32.40625 31.703125 
z
M 14.09375 44.09375 
C 13.296875 44.59375 9.296875 47.671875 9.296875 52.359375 
C 9.296875 58.421875 15.59375 63 22.796875 63 
C 30.703125 63 36.5 57.4375 36.5 50.96875 
C 36.5 41.703125 26.09375 36.421875 25.59375 36.421875 
C 25.5 36.421875 25.40625 36.421875 24.59375 37.03125 
z
M 32.5 23.734375 
C 34 22.640625 38.796875 19.375 38.796875 13.296875 
C 38.796875 5.953125 31.40625 0.390625 23 0.390625 
C 13.90625 0.390625 7 6.84375 7 14.6875 
C 7 22.546875 13.09375 29.09375 20 32.1875 
z
" id="CMR17-56"/>
      <path d="M 20.5 66.40625 
C 19.796875 67.5 19.703125 67.5 17.796875 67.5 
L 5.09375 67.5 
L 5.09375 65 
L 7 65 
C 11 65 12.796875 64.515625 13.09375 64.40625 
L 13.09375 9.53125 
C 13.09375 7.046875 13.09375 2.390625 5.09375 2.390625 
L 5.09375 -0.203125 
C 7.40625 0 11.59375 0 14.09375 0 
C 16.59375 0 20.796875 0 23.09375 -0.203125 
L 23.09375 2.390625 
C 15.09375 2.390625 15.09375 7.046875 15.09375 9.53125 
L 15.09375 63.015625 
C 15.796875 62.421875 15.796875 62.21875 16.5 61.234375 
L 53.59375 1.1875 
C 54.296875 0 54.59375 0 55.09375 0 
C 56.09375 0 56.09375 0.296875 56.09375 2.171875 
L 56.09375 57.890625 
C 56.09375 60.359375 56.09375 65 64.09375 65 
L 64.09375 67.59375 
C 61.796875 67.5 57.59375 67.5 55.09375 67.5 
C 52.59375 67.5 48.40625 67.5 46.09375 67.59375 
L 46.09375 65 
C 54.09375 65 54.09375 60.34375 54.09375 57.859375 
L 54.09375 11.921875 
z
" id="CMR17-78"/>
      <path d="M 34.90625 35 
C 33 35 30.203125 35 30.203125 31.515625 
C 30.203125 28.71875 32.5 27.921875 33.796875 27.921875 
C 34.5 27.921875 37.40625 28.234375 37.40625 31.625 
C 37.40625 38.546875 30.59375 43.796875 22.90625 43.796875 
C 12.296875 43.796875 3.296875 34.03125 3.296875 21.296875 
C 3.296875 8.0625 12.703125 -1 22.90625 -1 
C 35.296875 -1 38.40625 10.578125 38.40625 11.6875 
C 38.40625 12.09375 38.296875 12.390625 37.59375 12.390625 
C 36.90625 12.390625 36.796875 12.296875 36.40625 10.984375 
C 33.796875 2.8125 28.09375 0.796875 23.796875 0.796875 
C 17.40625 0.796875 9.703125 6.671875 9.703125 21.390625 
C 9.703125 36.53125 17.09375 42 23 42 
C 26.90625 42 32.703125 40.203125 34.90625 35 
z
" id="CMR17-99"/>
      <path d="M 39 34.328125 
C 41.5 40.40625 46 40.40625 47.40625 40.40625 
L 47.40625 43 
C 45.5 43 43 43 41.09375 43 
C 39 43 35.703125 43 33.703125 43.09375 
L 33.703125 40.5 
C 37.5 40.203125 37.59375 37.40625 37.59375 36.609375 
C 37.59375 35.625 37.40625 35.125 36.90625 33.921875 
L 26 7.015625 
L 14.09375 36.03125 
C 13.59375 37.21875 13.59375 37.90625 13.59375 38.015625 
C 13.59375 40.203125 15.90625 40.40625 18.296875 40.40625 
L 18.296875 43.09375 
C 15.90625 43 11.59375 43 9.09375 43 
C 6.40625 43 3.203125 43 1 43.09375 
L 1 40.40625 
C 6.40625 40.40625 7 39.90625 8.296875 36.71875 
L 23.203125 0.234375 
C 18.703125 -11.53125 16.09375 -18.40625 9.796875 -18.40625 
C 8.703125 -18.40625 6.203125 -18.109375 4.40625 -16.3125 
C 6.703125 -16.109375 7.703125 -14.71875 7.703125 -13.015625 
C 7.703125 -11.328125 6.5 -9.828125 4.5 -9.828125 
C 2.296875 -9.828125 1.203125 -11.328125 1.203125 -13.125 
C 1.203125 -17.109375 5.296875 -20 9.796875 -20 
C 15.59375 -20 19.203125 -14.40625 21.203125 -9.4375 
z
" id="CMR17-121"/>
      <path d="M 41.5 30.203125 
C 41.5 35.296875 40.5 43.59375 28.703125 43.59375 
C 20.5 43.59375 16.5 37 15.296875 33.703125 
L 15.203125 33.703125 
L 15.203125 68.6875 
L 3.296875 67.59375 
L 3.296875 65 
C 9.203125 65 10.09375 64.40625 10.09375 59.640625 
L 10.09375 6.65625 
C 10.09375 2.875 9.703125 2.390625 3.296875 2.390625 
L 3.296875 -0.203125 
C 5.703125 0 10.09375 0 12.703125 0 
C 15.296875 0 19.796875 0 22.203125 -0.203125 
L 22.203125 2.390625 
C 15.796875 2.390625 15.40625 2.78125 15.40625 6.6875 
L 15.40625 25.90625 
C 15.40625 35.109375 21 42 28 42 
C 35.40625 42 36.203125 35.40625 36.203125 30.59375 
L 36.203125 6.6875 
C 36.203125 2.875 35.796875 2.390625 29.40625 2.390625 
L 29.40625 -0.203125 
C 31.796875 0 36.203125 0 38.796875 0 
C 41.40625 0 45.90625 0 48.296875 -0.203125 
L 48.296875 2.390625 
C 41.90625 2.390625 41.5 2.78125 41.5 6.6875 
z
" id="CMR17-104"/>
     </defs>
     <g style="fill:#262626;" transform="translate(127 74.246797)scale(0.1 -0.1)">
      <use transform="scale(0.996264)" xlink:href="#CMMI12-12"/>
      <use transform="translate(90.669982 0)scale(0.996264)" xlink:href="#CMR17-102"/>
      <use transform="translate(118.143494 0)scale(0.996264)" xlink:href="#CMR17-114"/>
      <use transform="translate(153.424262 0)scale(0.996264)" xlink:href="#CMR17-111"/>
      <use transform="translate(199.114739 0)scale(0.996264)" xlink:href="#CMR17-109"/>
      <use transform="translate(306.110296 36.153639)scale(0.697382)" xlink:href="#CMR17-49"/>
      <use transform="translate(338.093478 36.153639)scale(0.697382)" xlink:href="#CMR17-56"/>
      <use transform="translate(370.574792 0)scale(0.996264)" xlink:href="#CMR17-78"/>
      <use transform="translate(469.723188 0)scale(0.996264)" xlink:href="#CMR17-100"/>
      <use transform="translate(520.618557 0)scale(0.996264)" xlink:href="#CMR17-101"/>
      <use transform="translate(561.104218 0)scale(0.996264)" xlink:href="#CMR17-99"/>
      <use transform="translate(601.589878 0)scale(0.996264)" xlink:href="#CMR17-97"/>
      <use transform="translate(644.677902 0)scale(0.996264)" xlink:href="#CMR17-121"/>
      <use transform="translate(723.046784 0)scale(0.996264)" xlink:href="#CMR17-99"/>
      <use transform="translate(760.92999 0)scale(0.996264)" xlink:href="#CMR17-104"/>
      <use transform="translate(811.82536 0)scale(0.996264)" xlink:href="#CMR17-97"/>
      <use transform="translate(857.515837 0)scale(0.996264)" xlink:href="#CMR17-105"/>
      <use transform="translate(882.386896 0)scale(0.996264)" xlink:href="#CMR17-110"/>
     </g>
    </g>
    <g id="LineCollection_11">
     <path d="M 104 85.793594 
L 114 85.793594 
" style="fill:none;stroke:#ff0000;"/>
    </g>
    <g id="LineCollection_12">
     <path d="M 109 90.793594 
L 109 80.793594 
" style="fill:none;stroke:#ff0000;"/>
    </g>
    <g id="line2d_47"/>
    <g id="line2d_48">
     <g>
      <use style="fill:#ff0000;stroke:#1a1a1a;stroke-width:0.5;" x="109" xlink:href="#m91e7c5ed64" y="85.793594"/>
     </g>
    </g>
    <g id="text_9">
     <!-- $\beta$ from $^{32}\mathrm{Ar}$ decay chain -->
     <g style="fill:#262626;" transform="translate(127 89.293594)scale(0.1 -0.1)">
      <use transform="scale(0.996264)" xlink:href="#CMMI12-12"/>
      <use transform="translate(90.669982 0)scale(0.996264)" xlink:href="#CMR17-102"/>
      <use transform="translate(118.143494 0)scale(0.996264)" xlink:href="#CMR17-114"/>
      <use transform="translate(153.424262 0)scale(0.996264)" xlink:href="#CMR17-111"/>
      <use transform="translate(199.114739 0)scale(0.996264)" xlink:href="#CMR17-109"/>
      <use transform="translate(306.110296 36.153639)scale(0.697382)" xlink:href="#CMR17-51"/>
      <use transform="translate(338.093478 36.153639)scale(0.697382)" xlink:href="#CMR17-50"/>
      <use transform="translate(370.574792 0)scale(0.996264)" xlink:href="#CMR17-65"/>
      <use transform="translate(439.647221 0)scale(0.996264)" xlink:href="#CMR17-114"/>
      <use transform="translate(505.003956 0)scale(0.996264)" xlink:href="#CMR17-100"/>
      <use transform="translate(555.899325 0)scale(0.996264)" xlink:href="#CMR17-101"/>
      <use transform="translate(596.384986 0)scale(0.996264)" xlink:href="#CMR17-99"/>
      <use transform="translate(636.870646 0)scale(0.996264)" xlink:href="#CMR17-97"/>
      <use transform="translate(679.958669 0)scale(0.996264)" xlink:href="#CMR17-121"/>
      <use transform="translate(758.327552 0)scale(0.996264)" xlink:href="#CMR17-99"/>
      <use transform="translate(796.210758 0)scale(0.996264)" xlink:href="#CMR17-104"/>
      <use transform="translate(847.106128 0)scale(0.996264)" xlink:href="#CMR17-97"/>
      <use transform="translate(892.796605 0)scale(0.996264)" xlink:href="#CMR17-105"/>
      <use transform="translate(917.667663 0)scale(0.996264)" xlink:href="#CMR17-110"/>
     </g>
    </g>
   </g>
  </g>
  <g id="axes_2">
   <g id="patch_8">
    <path d="M 90 306 
L 648 306 
L 648 246.272727 
L 90 246.272727 
z
" style="fill:#ffffff;"/>
   </g>
   <g id="matplotlib.axis_3">
    <g id="xtick_6">
     <g id="line2d_49">
      <g>
       <use style="fill:#262626;stroke:#1a1a1a;stroke-width:1.25;" x="122.521737" xlink:href="#mad3358873a" y="306"/>
      </g>
     </g>
     <g id="text_10">
      <!-- $-50$ -->
      <defs>
       <path d="M 65.90625 23 
C 67.59375 23 69.40625 23 69.40625 25 
C 69.40625 27 67.59375 27 65.90625 27 
L 11.796875 27 
C 10.09375 27 8.296875 27 8.296875 25 
C 8.296875 23 10.09375 23 11.796875 23 
z
" id="CMSY10-0"/>
      </defs>
      <g style="fill:#262626;" transform="translate(109.393941 325.877725)scale(0.15 -0.15)">
       <use transform="scale(0.996264)" xlink:href="#CMSY10-0"/>
       <use transform="translate(77.487468 0)scale(0.996264)" xlink:href="#CMR17-53"/>
       <use transform="translate(123.177945 0)scale(0.996264)" xlink:href="#CMR17-48"/>
      </g>
     </g>
    </g>
    <g id="xtick_7">
     <g id="line2d_50">
      <g>
       <use style="fill:#262626;stroke:#1a1a1a;stroke-width:1.25;" x="241.823416" xlink:href="#mad3358873a" y="306"/>
      </g>
     </g>
     <g id="text_11">
      <!-- $0$ -->
      <g style="fill:#262626;" transform="translate(238.165297 325.877725)scale(0.15 -0.15)">
       <use transform="scale(0.996264)" xlink:href="#CMR17-48"/>
      </g>
     </g>
    </g>
    <g id="xtick_8">
     <g id="line2d_51">
      <g>
       <use style="fill:#262626;stroke:#1a1a1a;stroke-width:1.25;" x="361.125095" xlink:href="#mad3358873a" y="306"/>
      </g>
     </g>
     <g id="text_12">
      <!-- $50$ -->
      <g style="fill:#262626;" transform="translate(353.808857 325.877725)scale(0.15 -0.15)">
       <use transform="scale(0.996264)" xlink:href="#CMR17-53"/>
       <use transform="translate(45.690477 0)scale(0.996264)" xlink:href="#CMR17-48"/>
      </g>
     </g>
    </g>
    <g id="xtick_9">
     <g id="line2d_52">
      <g>
       <use style="fill:#262626;stroke:#1a1a1a;stroke-width:1.25;" x="480.426774" xlink:href="#mad3358873a" y="306"/>
      </g>
     </g>
     <g id="text_13">
      <!-- $100$ -->
      <g style="fill:#262626;" transform="translate(469.452417 325.877725)scale(0.15 -0.15)">
       <use transform="scale(0.996264)" xlink:href="#CMR17-49"/>
       <use transform="translate(45.690477 0)scale(0.996264)" xlink:href="#CMR17-48"/>
       <use transform="translate(91.380954 0)scale(0.996264)" xlink:href="#CMR17-48"/>
      </g>
     </g>
    </g>
    <g id="xtick_10">
     <g id="line2d_53">
      <g>
       <use style="fill:#262626;stroke:#1a1a1a;stroke-width:1.25;" x="599.728453" xlink:href="#mad3358873a" y="306"/>
      </g>
     </g>
     <g id="text_14">
      <!-- $150$ -->
      <g style="fill:#262626;" transform="translate(588.754096 325.877725)scale(0.15 -0.15)">
       <use transform="scale(0.996264)" xlink:href="#CMR17-49"/>
       <use transform="translate(45.690477 0)scale(0.996264)" xlink:href="#CMR17-53"/>
       <use transform="translate(91.380954 0)scale(0.996264)" xlink:href="#CMR17-48"/>
      </g>
     </g>
    </g>
    <g id="text_15">
     <!-- Time [h] -->
     <defs>
      <path d="M 62.203125 67.59375 
L 4.5 67.59375 
L 2.796875 45.59375 
L 4.59375 45.59375 
C 5.90625 62.125 7.296875 65 22.703125 65 
C 24.5 65 27.40625 65 28.203125 64.90625 
C 30.09375 64.609375 30.09375 63.40625 30.09375 61.125 
L 30.09375 7.171875 
C 30.09375 3.59375 29.796875 2.5 21.5 2.5 
L 18.703125 2.5 
L 18.703125 0 
C 23.5 0 28.5 0 33.40625 0 
C 38.296875 0 43.296875 0 48.09375 0 
L 48.09375 2.5 
L 45.296875 2.5 
C 37 2.5 36.703125 3.59375 36.703125 7.171875 
L 36.703125 61.125 
C 36.703125 63.3125 36.703125 64.515625 38.5 64.90625 
C 39.296875 65 42.203125 65 44 65 
C 59.296875 65 60.796875 62.125 62.09375 45.59375 
L 63.90625 45.59375 
z
" id="CMR17-84"/>
      <path d="M 23.5 -25 
L 23.5 -21.515625 
L 14.09375 -21.515625 
L 14.09375 71 
L 23.5 71 
L 23.5 74.484375 
L 10.59375 74.484375 
L 10.59375 -25 
z
" id="CMR17-91"/>
      <path d="M 14.296875 74.484375 
L 1.40625 74.484375 
L 1.40625 71 
L 10.796875 71 
L 10.796875 -21.515625 
L 1.40625 -21.515625 
L 1.40625 -25 
L 14.296875 -25 
z
" id="CMR17-93"/>
     </defs>
     <g style="fill:#262626;" transform="translate(335.050057 347.709492)scale(0.2 -0.2)">
      <use transform="scale(0.996264)" xlink:href="#CMR17-84"/>
      <use transform="translate(66.509881 0)scale(0.996264)" xlink:href="#CMR17-105"/>
      <use transform="translate(91.380939 0)scale(0.996264)" xlink:href="#CMR17-109"/>
      <use transform="translate(168.300529 0)scale(0.996264)" xlink:href="#CMR17-101"/>
      <use transform="translate(238.862156 0)scale(0.996264)" xlink:href="#CMR17-91"/>
      <use transform="translate(263.733214 0)scale(0.996264)" xlink:href="#CMR17-104"/>
      <use transform="translate(314.628584 0)scale(0.996264)" xlink:href="#CMR17-93"/>
     </g>
    </g>
   </g>
   <g id="matplotlib.axis_4"/>
   <g id="PolyCollection_1">
    <defs>
     <path d="M 115.363636 -113.727273 
L 115.363636 -54 
L 230.01255 -54 
L 230.01255 -113.727273 
L 230.01255 -113.727273 
L 115.363636 -113.727273 
z
" id="m91a9276b13" style="stroke:#808080;stroke-opacity:0.5;"/>
    </defs>
    <g clip-path="url(#p940eb57846)">
     <use style="fill:#808080;fill-opacity:0.5;stroke:#808080;stroke-opacity:0.5;" x="0" xlink:href="#m91a9276b13" y="360"/>
    </g>
   </g>
   <g id="PolyCollection_2">
    <defs>
     <path d="M 229.773946 -113.727273 
L 229.773946 -54 
L 241.823416 -54 
L 241.823416 -113.727273 
L 241.823416 -113.727273 
L 229.773946 -113.727273 
z
" id="m4d2cb7b2fe" style="stroke:#808080;stroke-opacity:0.5;"/>
    </defs>
    <g clip-path="url(#p940eb57846)">
     <use style="fill:#808080;fill-opacity:0.5;stroke:#808080;stroke-opacity:0.5;" x="0" xlink:href="#m4d2cb7b2fe" y="360"/>
    </g>
   </g>
   <g id="PolyCollection_3">
    <defs>
     <path d="M 263.297718 -113.727273 
L 263.297718 -54 
L 275.227886 -54 
L 275.227886 -113.727273 
L 275.227886 -113.727273 
L 263.297718 -113.727273 
z
" id="m35300808a4" style="stroke:#808080;stroke-opacity:0.5;"/>
    </defs>
    <g clip-path="url(#p940eb57846)">
     <use style="fill:#808080;fill-opacity:0.5;stroke:#808080;stroke-opacity:0.5;" x="0" xlink:href="#m35300808a4" y="360"/>
    </g>
   </g>
   <g id="PolyCollection_4">
    <defs>
     <path d="M 351.580961 -113.727273 
L 351.580961 -54 
L 368.283196 -54 
L 368.283196 -113.727273 
L 368.283196 -113.727273 
L 351.580961 -113.727273 
z
" id="m4436afffef" style="stroke:#808080;stroke-opacity:0.5;"/>
    </defs>
    <g clip-path="url(#p940eb57846)">
     <use style="fill:#808080;fill-opacity:0.5;stroke:#808080;stroke-opacity:0.5;" x="0" xlink:href="#m4436afffef" y="360"/>
    </g>
   </g>
   <g id="PolyCollection_5">
    <defs>
     <path d="M 401.687666 -113.727273 
L 401.687666 -54 
L 568.710016 -54 
L 568.710016 -113.727273 
L 568.710016 -113.727273 
L 401.687666 -113.727273 
z
" id="m13083ac08d" style="stroke:#808080;stroke-opacity:0.5;"/>
    </defs>
    <g clip-path="url(#p940eb57846)">
     <use style="fill:#808080;fill-opacity:0.5;stroke:#808080;stroke-opacity:0.5;" x="0" xlink:href="#m13083ac08d" y="360"/>
    </g>
   </g>
   <g id="patch_9">
    <path d="M 90 306 
L 90 246.272727 
" style="fill:none;stroke:#262626;stroke-linecap:square;stroke-linejoin:miter;stroke-width:1.25;"/>
   </g>
   <g id="patch_10">
    <path d="M 648 306 
L 648 246.272727 
" style="fill:none;stroke:#262626;stroke-linecap:square;stroke-linejoin:miter;stroke-width:1.25;"/>
   </g>
   <g id="patch_11">
    <path d="M 90 306 
L 648 306 
" style="fill:none;stroke:#262626;stroke-linecap:square;stroke-linejoin:miter;stroke-width:1.25;"/>
   </g>
   <g id="patch_12">
    <path d="M 90 246.272727 
L 648 246.272727 
" style="fill:none;stroke:#262626;stroke-linecap:square;stroke-linejoin:miter;stroke-width:1.25;"/>
   </g>
   <g id="text_16">
    <!-- First Target Heating -->
    <defs>
     <path d="M 54.40625 67.578125 
L 5.09375 67.578125 
L 5.09375 65 
C 12 65 13.09375 65 13.09375 60.53125 
L 13.09375 6.96875 
C 13.09375 2.5 12 2.5 5.09375 2.5 
L 5.09375 0 
C 8 0 13.59375 0 16.703125 0 
C 20.796875 0 25.59375 0 29.703125 0 
L 29.703125 2.5 
L 27.5 2.5 
C 19.90625 2.5 19.703125 3.484375 19.703125 7.0625 
L 19.703125 32.421875 
L 28.703125 32.421875 
C 38 32.421875 38.90625 29.140625 38.90625 20.8125 
L 40.703125 20.8125 
L 40.703125 46.671875 
L 38.90625 46.671875 
C 38.90625 38.28125 38 35 28.703125 35 
L 19.703125 35 
L 19.703125 61.109375 
C 19.703125 64.5 19.90625 65 23.90625 65 
L 36.796875 65 
C 51.90625 65 53.59375 58.828125 55 45.5625 
L 56.796875 45.5625 
z
" id="CMR17-70"/>
     <path d="M 11.09375 18.1875 
C 13 16.6875 16.296875 15 20.296875 15 
C 28.203125 15 35 21.203125 35 29.5 
C 35 32.09375 34.203125 36.09375 31.203125 39.203125 
C 34 42.0625 38.09375 43 40.40625 43 
C 40.796875 43 41.40625 43 41.90625 42.71875 
C 41.5 42.625 40.59375 42.234375 40.59375 40.703125 
C 40.59375 39.484375 41.5 38.609375 42.796875 38.609375 
C 44.296875 38.609375 45.09375 39.578125 45.09375 40.84375 
C 45.09375 42.671875 43.59375 44.59375 40.40625 44.59375 
C 36.40625 44.59375 32.90625 42.78125 30.09375 40.3125 
C 27.09375 43.015625 23.5 44 20.296875 44 
C 12.40625 44 5.59375 37.796875 5.59375 29.5 
C 5.59375 23.78125 8.90625 20.1875 9.90625 19.1875 
C 6.90625 15.6875 6.90625 11.609375 6.90625 11.109375 
C 6.90625 8.515625 7.90625 4.71875 11.296875 2.625 
C 6.09375 1.328125 2 -2.640625 2 -7.59375 
C 2 -14.734375 11.5 -20 22.90625 -20 
C 33.90625 -20 43.796875 -14.9375 43.796875 -7.484375 
C 43.796875 6 29 6 21.296875 6 
C 19 6 14.90625 6 14.40625 6.109375 
C 11.296875 6.609375 9.203125 9.40625 9.203125 12.90625 
C 9.203125 13.796875 9.203125 16 11.09375 18.1875 
z
M 20.296875 16.6875 
C 11.5 16.6875 11.5 27.5 11.5 29.515625 
C 11.5 31.5 11.5 42.3125 20.296875 42.3125 
C 29.09375 42.3125 29.09375 31.5 29.09375 29.515625 
C 29.09375 27.5 29.09375 16.6875 20.296875 16.6875 
z
M 22.90625 -18.296875 
C 12.90625 -18.296875 6 -13.046875 6 -7.59375 
C 6 -4.515625 7.703125 -1.640625 9.90625 -0.0625 
C 12.40625 1.625 13.40625 1.625 20.203125 1.625 
C 28.40625 1.625 39.796875 1.625 39.796875 -7.59375 
C 39.796875 -13.046875 32.90625 -18.296875 22.90625 -18.296875 
z
" id="CMR17-103"/>
     <path d="M 56.09375 61.015625 
C 56.09375 65.5 57.203125 65.5 64.09375 65.5 
L 64.09375 68 
C 61.203125 68 55.90625 68 52.796875 68 
C 49.703125 68 44.40625 68 41.5 68 
L 41.5 65.5 
C 48.40625 65.5 49.5 65.5 49.5 61 
L 49.5 36.578125 
L 19.703125 36.578125 
L 19.703125 61 
C 19.703125 65.5 20.796875 65.5 27.703125 65.5 
L 27.703125 68 
C 24.796875 68 19.5 68 16.40625 68 
C 13.296875 68 8 68 5.09375 68 
L 5.09375 65.5 
C 12 65.5 13.09375 65.5 13.09375 61.015625 
L 13.09375 6.984375 
C 13.09375 2.5 12 2.5 5.09375 2.5 
L 5.09375 0 
C 8 0 13.296875 0 16.40625 0 
C 19.5 0 24.796875 0 27.703125 0 
L 27.703125 2.5 
C 20.796875 2.5 19.703125 2.5 19.703125 6.96875 
L 19.703125 34 
L 49.5 34 
L 49.5 6.96875 
C 49.5 2.5 48.40625 2.5 41.5 2.5 
L 41.5 0 
C 44.40625 0 49.703125 0 52.796875 0 
C 55.90625 0 61.203125 0 64.09375 0 
L 64.09375 2.5 
C 57.203125 2.5 56.09375 2.5 56.09375 6.984375 
z
" id="CMR17-72"/>
    </defs>
    <g style="fill:#262626;" transform="translate(123.024076 276.136364)scale(0.11 -0.11)">
     <use transform="scale(0.996264)" xlink:href="#CMR17-70"/>
     <use transform="translate(59.983847 0)scale(0.996264)" xlink:href="#CMR17-105"/>
     <use transform="translate(84.854905 0)scale(0.996264)" xlink:href="#CMR17-114"/>
     <use transform="translate(120.135673 0)scale(0.996264)" xlink:href="#CMR17-115"/>
     <use transform="translate(155.937011 0)scale(0.996264)" xlink:href="#CMR17-116"/>
     <use transform="translate(221.293745 0)scale(0.996264)" xlink:href="#CMR17-84"/>
     <use transform="translate(279.99637 0)scale(0.996264)" xlink:href="#CMR17-97"/>
     <use transform="translate(325.686847 0)scale(0.996264)" xlink:href="#CMR17-114"/>
     <use transform="translate(360.967615 0)scale(0.996264)" xlink:href="#CMR17-103"/>
     <use transform="translate(406.658092 0)scale(0.996264)" xlink:href="#CMR17-101"/>
     <use transform="translate(447.143752 0)scale(0.996264)" xlink:href="#CMR17-116"/>
     <use transform="translate(512.500486 0)scale(0.996264)" xlink:href="#CMR17-72"/>
     <use transform="translate(581.572916 0)scale(0.996264)" xlink:href="#CMR17-101"/>
     <use transform="translate(622.058577 0)scale(0.996264)" xlink:href="#CMR17-97"/>
     <use transform="translate(667.749054 0)scale(0.996264)" xlink:href="#CMR17-116"/>
     <use transform="translate(703.029822 0)scale(0.996264)" xlink:href="#CMR17-105"/>
     <use transform="translate(727.90088 0)scale(0.996264)" xlink:href="#CMR17-110"/>
     <use transform="translate(778.79625 0)scale(0.996264)" xlink:href="#CMR17-103"/>
    </g>
   </g>
   <g id="text_17">
    <!-- DAQ -->
    <defs>
     <path d="M 5.203125 68 
L 5.203125 65.40625 
C 12.09375 65.40625 13.203125 65.40625 13.203125 60.9375 
L 13.203125 7.0625 
C 13.203125 2.59375 12.09375 2.59375 5.203125 2.59375 
L 5.203125 0 
L 37 0 
C 53.09375 0 66 14.734375 66 33.453125 
C 66 52.28125 53.296875 68 37 68 
z
M 23.796875 2.59375 
C 19.796875 2.59375 19.59375 3.078125 19.59375 6.46875 
L 19.59375 61.53125 
C 19.59375 64.921875 19.796875 65.40625 23.796875 65.40625 
L 35 65.40625 
C 43.296875 65.40625 58.59375 60.53125 58.59375 33.453125 
C 58.59375 19.40625 54.5 13.734375 52.59375 11.046875 
C 50.203125 7.96875 44.5 2.59375 35 2.59375 
z
" id="CMR17-68"/>
     <path d="M 47.296875 1.296875 
C 59.203125 6.375 67.296875 19.3125 67.296875 34.265625 
C 67.296875 54.671875 52.59375 70 36 70 
C 19 70 4.59375 54.5 4.59375 34.359375 
C 4.59375 14.5 19 -1 36 -1 
C 38.296875 -1 41.5 -0.703125 45.296875 0.59375 
C 47 -11.671875 48.09375 -19 56.703125 -19 
C 67.296875 -19 67.796875 -3.328125 67.796875 -0.515625 
C 67.796875 0.5 67.796875 1.1875 67.09375 1.1875 
C 66.59375 1.1875 66.5 0.484375 66.5 0.28125 
C 65.796875 -9.421875 60.40625 -11.4375 57.203125 -11.4375 
C 51.296875 -11.4375 49.203125 -6.15625 47.296875 1.296875 
z
M 30.59375 1.5625 
C 20.203125 4.84375 12 15.890625 12 34.359375 
C 12 57.984375 25.09375 68.203125 35.90625 68.203125 
C 47.09375 68.203125 59.90625 57.59375 59.90625 34.34375 
C 59.90625 17.5625 53.203125 8.234375 46.5 3.96875 
C 45 9.046875 42.59375 15 36.09375 15 
C 31.296875 15 28.59375 10.8125 28.59375 7.03125 
C 28.59375 4.75 29.5 2.859375 30.59375 1.5625 
z
M 44.90625 3 
C 40.90625 0.890625 37.703125 0.890625 36 0.890625 
C 31.5 0.890625 30.203125 4.921875 30.203125 7.09375 
C 30.203125 10.15625 32.296875 13.40625 36.09375 13.40625 
C 42.5 13.40625 44.09375 7.703125 44.90625 3 
z
" id="CMR17-81"/>
    </defs>
    <g style="fill:#262626;" transform="translate(239.075265 284.239986)rotate(-90)scale(0.11 -0.11)">
     <use transform="scale(0.996264)" xlink:href="#CMR17-68"/>
     <use transform="translate(67.791102 0)scale(0.996264)" xlink:href="#CMR17-65"/>
     <use transform="translate(134.261078 0)scale(0.996264)" xlink:href="#CMR17-81"/>
    </g>
   </g>
   <g id="text_18">
    <!-- HRS tripped -->
    <defs>
     <path d="M 39.203125 33.53125 
C 48.703125 35.4375 56.703125 41.8125 56.703125 49.78125 
C 56.703125 59.140625 46.09375 67.59375 32.09375 67.59375 
L 5.203125 67.59375 
L 5.203125 65 
C 12.09375 65 13.203125 65 13.203125 60.515625 
L 13.203125 6.484375 
C 13.203125 2 12.09375 2 5.203125 2 
L 5.203125 -0.40625 
C 8.09375 -0.40625 13.296875 -0.40625 16.40625 -0.40625 
C 19.5 -0.40625 24.703125 -0.40625 27.59375 -0.40625 
L 27.59375 2 
C 20.703125 2 19.59375 2 19.59375 6.515625 
L 19.59375 33 
L 31.296875 33 
C 37 33 40.203125 30.6875 41.59375 29.390625 
C 45.59375 25.5 45.59375 22.796875 45.59375 16 
C 45.59375 9.296875 45.59375 5.890625 48.59375 2.5 
C 52.40625 -1.59375 57.5 -2 59.703125 -2 
C 67.09375 -2 68.203125 6.1875 68.203125 7.859375 
C 68.203125 8.4375 68.203125 9.140625 67.296875 9.140625 
C 66.5 9.140625 66.40625 8.546875 66.40625 8.15625 
C 65.90625 1.75 63 -0.40625 59.90625 -0.40625 
C 54.40625 -0.40625 53.796875 5.859375 53.203125 11.9375 
C 52.90625 14.03125 52.703125 15.515625 52.5 17.703125 
C 51.90625 22.6875 51.09375 29.953125 39.203125 33.53125 
z
M 31 34.59375 
L 19.59375 34.59375 
L 19.59375 61.140625 
C 19.59375 64.515625 19.796875 65 23.796875 65 
L 31.09375 65 
C 39.40625 65 49.09375 62.140625 49.09375 49.84375 
C 49.09375 37.0625 38.5 34.59375 31 34.59375 
z
" id="CMR17-82"/>
     <path d="M 43.796875 67.03125 
C 43.796875 68.8125 43.703125 68.921875 43.09375 68.921875 
C 42.5 68.921875 42.296875 68.515625 41.90625 67.625 
L 38.90625 61.046875 
C 35.09375 66.515625 29.296875 69 23 69 
C 12.796875 69 4.59375 60.953125 4.59375 50.828125 
C 4.59375 47.75 5.296875 43.375 8.703125 39.21875 
C 12.40625 34.65625 15.90625 33.859375 23.90625 31.765625 
C 26.90625 30.96875 31.90625 29.671875 32.90625 29.28125 
C 38.59375 26.90625 41.59375 20.953125 41.59375 15.390625 
C 41.59375 8.234375 36.5 0.59375 27.796875 0.59375 
C 17.09375 0.59375 7.09375 6.546875 6.40625 20.484375 
C 6.296875 22.078125 6.203125 22.171875 5.5 22.171875 
C 4.703125 22.171875 4.59375 22.078125 4.59375 20.078125 
L 4.59375 -0.015625 
C 4.59375 -1.796875 4.703125 -1.90625 5.296875 -1.90625 
C 6 -1.90625 6.203125 -1.40625 7.59375 1.6875 
C 7.703125 1.984375 7.703125 2.1875 9.59375 5.953125 
C 14.59375 -0.609375 23 -2 27.796875 -2 
C 38.703125 -2 46.40625 7.046875 46.40625 17.5625 
C 46.40625 22.71875 44.5 26.6875 43.40625 28.484375 
C 39.203125 34.84375 34.703125 36.03125 29.90625 37.21875 
C 29.203125 37.53125 29 37.53125 23.40625 38.90625 
C 18 40.296875 15.703125 41 13.203125 43.6875 
C 10.40625 46.75 9.40625 49.9375 9.40625 53.109375 
C 9.40625 59.5625 14.59375 66.609375 23.09375 66.609375 
C 33.703125 66.609375 40.296875 59.15625 41.796875 46.765625 
C 42.09375 44.96875 42.203125 44.875 42.90625 44.875 
C 43.796875 44.875 43.796875 45.171875 43.796875 46.859375 
z
" id="CMR17-83"/>
     <path d="M 22 -16.609375 
C 15.59375 -16.609375 15.203125 -16.203125 15.203125 -12.328125 
L 15.203125 6.28125 
C 18.09375 2.09375 22.296875 -0.59375 27.59375 -0.59375 
C 37.59375 -0.59375 47.703125 8.171875 47.703125 21.6875 
C 47.703125 34.234375 39 43.78125 28.703125 43.78125 
C 22.703125 43.78125 17.796875 40.5 15 36.53125 
L 15 43.78125 
L 3.09375 42.6875 
L 3.09375 40.109375 
C 9 40.109375 9.90625 39.5 9.90625 34.734375 
L 9.90625 -12.328125 
C 9.90625 -16.109375 9.5 -16.609375 3.09375 -16.609375 
L 3.09375 -19.1875 
C 5.5 -19 9.90625 -19 12.5 -19 
C 15.09375 -19 19.59375 -19 22 -19.1875 
z
M 15.203125 31.4375 
C 15.203125 32.84375 15.203125 34.921875 19.09375 38.609375 
C 19.59375 39.015625 23 42 28 42 
C 35.296875 42 41.296875 32.9375 41.296875 21.59375 
C 41.296875 10.25 34.90625 1 27 1 
C 23.40625 1 19.5 2.6875 16.5 7.375 
C 15.203125 9.5625 15.203125 10.15625 15.203125 11.75 
z
" id="CMR17-112"/>
    </defs>
    <g style="fill:#262626;" transform="translate(272.718338 305.144531)rotate(-90)scale(0.11 -0.11)">
     <use transform="scale(0.996264)" xlink:href="#CMR17-72"/>
     <use transform="translate(69.07243 0)scale(0.996264)" xlink:href="#CMR17-82"/>
     <use transform="translate(136.863532 0)scale(0.996264)" xlink:href="#CMR17-83"/>
     <use transform="translate(217.834868 0)scale(0.996264)" xlink:href="#CMR17-116"/>
     <use transform="translate(253.115636 0)scale(0.996264)" xlink:href="#CMR17-114"/>
     <use transform="translate(288.396404 0)scale(0.996264)" xlink:href="#CMR17-105"/>
     <use transform="translate(313.267462 0)scale(0.996264)" xlink:href="#CMR17-112"/>
     <use transform="translate(364.162832 0)scale(0.996264)" xlink:href="#CMR17-112"/>
     <use transform="translate(417.66064 0)scale(0.996264)" xlink:href="#CMR17-101"/>
     <use transform="translate(458.146301 0)scale(0.996264)" xlink:href="#CMR17-100"/>
    </g>
   </g>
   <g id="text_19">
    <!-- HRS tripped -->
    <g style="fill:#262626;" transform="translate(365.057838 305.144531)rotate(-90)scale(0.11 -0.11)">
     <use transform="scale(0.996264)" xlink:href="#CMR17-72"/>
     <use transform="translate(69.07243 0)scale(0.996264)" xlink:href="#CMR17-82"/>
     <use transform="translate(136.863532 0)scale(0.996264)" xlink:href="#CMR17-83"/>
     <use transform="translate(217.834868 0)scale(0.996264)" xlink:href="#CMR17-116"/>
     <use transform="translate(253.115636 0)scale(0.996264)" xlink:href="#CMR17-114"/>
     <use transform="translate(288.396404 0)scale(0.996264)" xlink:href="#CMR17-105"/>
     <use transform="translate(313.267462 0)scale(0.996264)" xlink:href="#CMR17-112"/>
     <use transform="translate(364.162832 0)scale(0.996264)" xlink:href="#CMR17-112"/>
     <use transform="translate(417.66064 0)scale(0.996264)" xlink:href="#CMR17-101"/>
     <use transform="translate(458.146301 0)scale(0.996264)" xlink:href="#CMR17-100"/>
    </g>
   </g>
   <g id="text_20">
    <!-- Second Target Heating -->
    <g style="fill:#262626;" transform="translate(425.616907 276.136364)scale(0.11 -0.11)">
     <use transform="scale(0.996264)" xlink:href="#CMR17-83"/>
     <use transform="translate(50.89537 0)scale(0.996264)" xlink:href="#CMR17-101"/>
     <use transform="translate(91.38103 0)scale(0.996264)" xlink:href="#CMR17-99"/>
     <use transform="translate(131.866691 0)scale(0.996264)" xlink:href="#CMR17-111"/>
     <use transform="translate(177.557168 0)scale(0.996264)" xlink:href="#CMR17-110"/>
     <use transform="translate(228.452538 0)scale(0.996264)" xlink:href="#CMR17-100"/>
     <use transform="translate(309.423874 0)scale(0.996264)" xlink:href="#CMR17-84"/>
     <use transform="translate(368.126499 0)scale(0.996264)" xlink:href="#CMR17-97"/>
     <use transform="translate(413.816976 0)scale(0.996264)" xlink:href="#CMR17-114"/>
     <use transform="translate(449.097744 0)scale(0.996264)" xlink:href="#CMR17-103"/>
     <use transform="translate(494.788221 0)scale(0.996264)" xlink:href="#CMR17-101"/>
     <use transform="translate(535.273881 0)scale(0.996264)" xlink:href="#CMR17-116"/>
     <use transform="translate(600.630616 0)scale(0.996264)" xlink:href="#CMR17-72"/>
     <use transform="translate(669.703045 0)scale(0.996264)" xlink:href="#CMR17-101"/>
     <use transform="translate(710.188706 0)scale(0.996264)" xlink:href="#CMR17-97"/>
     <use transform="translate(755.879183 0)scale(0.996264)" xlink:href="#CMR17-116"/>
     <use transform="translate(791.159951 0)scale(0.996264)" xlink:href="#CMR17-105"/>
     <use transform="translate(816.031009 0)scale(0.996264)" xlink:href="#CMR17-110"/>
     <use transform="translate(866.926379 0)scale(0.996264)" xlink:href="#CMR17-103"/>
    </g>
   </g>
  </g>
 </g>
 <defs>
  <clipPath id="p8286c73cc7">
   <rect height="179.181818" width="558" x="90" y="43.2"/>
  </clipPath>
  <clipPath id="p940eb57846">
   <rect height="59.727273" width="558" x="90" y="246.272727"/>
  </clipPath>
 </defs>
</svg>
