<?xml version="1.0" encoding="utf-8" standalone="no"?>
<!DOCTYPE svg PUBLIC "-//W3C//DTD SVG 1.1//EN"
  "http://www.w3.org/Graphics/SVG/1.1/DTD/svg11.dtd">
<!-- Created with matplotlib (https://matplotlib.org/) -->
<svg height="360pt" version="1.1" viewBox="0 0 720 360" width="720pt" xmlns="http://www.w3.org/2000/svg" xmlns:xlink="http://www.w3.org/1999/xlink">
 <defs>
  <style type="text/css">
*{stroke-linecap:butt;stroke-linejoin:round;}
  </style>
 </defs>
 <g id="figure_1">
  <g id="patch_1">
   <path d="M 0 360 
L 720 360 
L 720 0 
L 0 0 
z
" style="fill:#ffffff;"/>
  </g>
  <g id="axes_1">
   <g id="patch_2">
    <path d="M 90 222.381818 
L 648 222.381818 
L 648 43.2 
L 90 43.2 
z
" style="fill:#ffffff;"/>
   </g>
   <g id="matplotlib.axis_1">
    <g id="xtick_1">
     <g id="line2d_1">
      <defs>
       <path d="M 0 0 
L 0 6 
" id="m0d50b24da8" style="stroke:#1a1a1a;stroke-width:1.25;"/>
      </defs>
      <g>
       <use style="fill:#262626;stroke:#1a1a1a;stroke-width:1.25;" x="122.521737" xlink:href="#m0d50b24da8" y="222.381818"/>
      </g>
     </g>
    </g>
    <g id="xtick_2">
     <g id="line2d_2">
      <g>
       <use style="fill:#262626;stroke:#1a1a1a;stroke-width:1.25;" x="241.823416" xlink:href="#m0d50b24da8" y="222.381818"/>
      </g>
     </g>
    </g>
    <g id="xtick_3">
     <g id="line2d_3">
      <g>
       <use style="fill:#262626;stroke:#1a1a1a;stroke-width:1.25;" x="361.125095" xlink:href="#m0d50b24da8" y="222.381818"/>
      </g>
     </g>
    </g>
    <g id="xtick_4">
     <g id="line2d_4">
      <g>
       <use style="fill:#262626;stroke:#1a1a1a;stroke-width:1.25;" x="480.426774" xlink:href="#m0d50b24da8" y="222.381818"/>
      </g>
     </g>
    </g>
    <g id="xtick_5">
     <g id="line2d_5">
      <g>
       <use style="fill:#262626;stroke:#1a1a1a;stroke-width:1.25;" x="599.728453" xlink:href="#m0d50b24da8" y="222.381818"/>
      </g>
     </g>
    </g>
   </g>
   <g id="matplotlib.axis_2">
    <g id="ytick_1">
     <g id="line2d_6">
      <defs>
       <path d="M 0 0 
L -6 0 
" id="m2994962f43" style="stroke:#1a1a1a;stroke-width:1.25;"/>
      </defs>
      <g>
       <use style="fill:#262626;stroke:#1a1a1a;stroke-width:1.25;" x="90" xlink:href="#m2994962f43" y="222.381818"/>
      </g>
     </g>
     <g id="text_1">
      <!-- $0.0$ -->
      <defs>
       <path d="M 42 31.640625 
C 42 37.75 41.90625 48.125 37.703125 56.109375 
C 34 63.109375 28.09375 65.59375 22.90625 65.59375 
C 18.09375 65.59375 12 63.40625 8.203125 56.203125 
C 4.203125 48.71875 3.796875 39.4375 3.796875 31.640625 
C 3.796875 25.953125 3.90625 17.28125 7 9.671875 
C 11.296875 -0.609375 19 -2 22.90625 -2 
C 27.5 -2 34.5 -0.109375 38.59375 9.375 
C 41.59375 16.28125 42 24.359375 42 31.640625 
z
M 22.90625 -0.40625 
C 16.5 -0.40625 12.703125 5.078125 11.296875 12.6875 
C 10.203125 18.5625 10.203125 27.15625 10.203125 32.75 
C 10.203125 40.4375 10.203125 46.828125 11.5 52.921875 
C 13.40625 61.390625 19 64 22.90625 64 
C 27 64 32.296875 61.296875 34.203125 53.125 
C 35.5 47.4375 35.59375 40.734375 35.59375 32.75 
C 35.59375 26.25 35.59375 18.265625 34.40625 12.375 
C 32.296875 1.484375 26.40625 -0.40625 22.90625 -0.40625 
z
" id="CMR17-48"/>
       <path d="M 18.40625 4.796875 
C 18.40625 7.6875 16 9.671875 13.59375 9.671875 
C 10.703125 9.671875 8.703125 7.28125 8.703125 4.890625 
C 8.703125 2 11.09375 0 13.5 0 
C 16.40625 0 18.40625 2.390625 18.40625 4.796875 
z
" id="CMMI12-58"/>
      </defs>
      <g style="fill:#262626;" transform="translate(61.802948 227.570681)scale(0.15 -0.15)">
       <use transform="scale(0.996264)" xlink:href="#CMR17-48"/>
       <use transform="translate(45.690477 0)scale(0.996264)" xlink:href="#CMMI12-58"/>
       <use transform="translate(72.787654 0)scale(0.996264)" xlink:href="#CMR17-48"/>
      </g>
     </g>
    </g>
    <g id="ytick_2">
     <g id="line2d_7">
      <g>
       <use style="fill:#262626;stroke:#1a1a1a;stroke-width:1.25;" x="90" xlink:href="#m2994962f43" y="152.114439"/>
      </g>
     </g>
     <g id="text_2">
      <!-- $0.2$ -->
      <defs>
       <path d="M 41.703125 15.453125 
L 39.90625 15.453125 
C 38.90625 8.375 38.09375 7.171875 37.703125 6.5625 
C 37.203125 5.765625 30 5.765625 28.59375 5.765625 
L 9.40625 5.765625 
C 13 9.671875 20 16.75 28.5 24.953125 
C 34.59375 30.734375 41.703125 37.53125 41.703125 47.421875 
C 41.703125 59.21875 32.296875 66 21.796875 66 
C 10.796875 66 4.09375 56.3125 4.09375 47.34375 
C 4.09375 43.4375 7 42.9375 8.203125 42.9375 
C 9.203125 42.9375 12.203125 43.546875 12.203125 47.03125 
C 12.203125 50.109375 9.59375 51 8.203125 51 
C 7.59375 51 7 50.90625 6.59375 50.703125 
C 8.5 59.21875 14.296875 63.40625 20.40625 63.40625 
C 29.09375 63.40625 34.796875 56.515625 34.796875 47.421875 
C 34.796875 38.734375 29.703125 31.25 24 24.75 
L 4.09375 2.28125 
L 4.09375 0 
L 39.296875 0 
z
" id="CMR17-50"/>
      </defs>
      <g style="fill:#262626;" transform="translate(61.802948 157.303301)scale(0.15 -0.15)">
       <use transform="scale(0.996264)" xlink:href="#CMR17-48"/>
       <use transform="translate(45.690477 0)scale(0.996264)" xlink:href="#CMMI12-58"/>
       <use transform="translate(72.787654 0)scale(0.996264)" xlink:href="#CMR17-50"/>
      </g>
     </g>
    </g>
    <g id="ytick_3">
     <g id="line2d_8">
      <g>
       <use style="fill:#262626;stroke:#1a1a1a;stroke-width:1.25;" x="90" xlink:href="#m2994962f43" y="81.847059"/>
      </g>
     </g>
     <g id="text_3">
      <!-- $0.4$ -->
      <defs>
       <path d="M 33.59375 64.40625 
C 33.59375 66.5 33.5 66.5 31.703125 66.5 
L 2 19.59375 
L 2 17 
L 27.796875 17 
L 27.796875 7.140625 
C 27.796875 3.5 27.59375 2.5 20.59375 2.5 
L 18.703125 2.5 
L 18.703125 0 
C 21.90625 0 27.296875 0 30.703125 0 
C 34.09375 0 39.5 0 42.703125 0 
L 42.703125 2.5 
L 40.796875 2.5 
C 33.796875 2.5 33.59375 3.5 33.59375 7.140625 
L 33.59375 17 
L 43.796875 17 
L 43.796875 19.59375 
L 33.59375 19.59375 
z
M 28.09375 57.859375 
L 28.09375 19.59375 
L 4 19.59375 
z
" id="CMR17-52"/>
      </defs>
      <g style="fill:#262626;" transform="translate(61.802948 87.035921)scale(0.15 -0.15)">
       <use transform="scale(0.996264)" xlink:href="#CMR17-48"/>
       <use transform="translate(45.690477 0)scale(0.996264)" xlink:href="#CMMI12-58"/>
       <use transform="translate(72.787654 0)scale(0.996264)" xlink:href="#CMR17-52"/>
      </g>
     </g>
    </g>
    <g id="text_4">
     <!-- Beam proportion [$\beta$/s] -->
     <defs>
      <path d="M 5.203125 68 
L 5.203125 65.40625 
C 12.09375 65.40625 13.203125 65.40625 13.203125 60.9375 
L 13.203125 7.0625 
C 13.203125 2.59375 12.09375 2.59375 5.203125 2.59375 
L 5.203125 0 
L 39.59375 0 
C 52.40625 0 60.703125 9.109375 60.703125 18.1875 
C 60.703125 27.203125 52.5 34.890625 41.796875 34.890625 
C 51.40625 36.8125 58.09375 43.296875 58.09375 51 
C 58.09375 59.40625 49.90625 68 37 68 
z
M 19.5 36 
L 19.5 61.515625 
C 19.5 64.921875 19.703125 65.40625 23.703125 65.40625 
L 36.5 65.40625 
C 46.40625 65.40625 50.796875 57.40625 50.796875 51.203125 
C 50.796875 43.609375 44.703125 36 33.90625 36 
z
M 23.703125 2.59375 
C 19.703125 2.59375 19.5 3.078125 19.5 6.453125 
L 19.5 34.40625 
L 38 34.40625 
C 48.296875 34.40625 53.296875 25.390625 53.296875 18.15625 
C 53.296875 10.921875 47.59375 2.59375 36.703125 2.59375 
z
" id="CMR17-66"/>
      <path d="M 38.09375 23 
C 38.5 23.40625 38.5 23.609375 38.5 24.625 
C 38.5 34.96875 33.09375 44 21.703125 44 
C 11.09375 44 2.703125 33.890625 2.703125 21.609375 
C 2.703125 8.609375 12.203125 -1 22.796875 -1 
C 34 -1 38.40625 9.484375 38.40625 11.5625 
C 38.40625 12.25 37.796875 12.25 37.59375 12.25 
C 36.90625 12.25 36.796875 12.046875 36.40625 10.875 
C 34.203125 4.140625 28.703125 0.796875 23.5 0.796875 
C 19.203125 0.796875 14.90625 3.171875 12.203125 7.5 
C 9.09375 12.546875 9.09375 18.375 9.09375 23 
z
M 9.203125 24.5 
C 9.90625 39.140625 17.59375 42.40625 21.59375 42.40625 
C 28.40625 42.40625 33 35.890625 33.09375 24.5 
z
" id="CMR17-101"/>
      <path d="M 36 25.828125 
C 36 32.375 36 35.84375 31.796875 39.734375 
C 28.09375 43 23.796875 44 20.40625 44 
C 12.5 44 6.796875 37.609375 6.796875 30.796875 
C 6.796875 27 9.796875 27 10.40625 27 
C 11.703125 27 14 27.78125 14 30.53125 
C 14 33 12.09375 34.078125 10.40625 34.078125 
C 10 34.078125 9.5 33.96875 9.203125 33.875 
C 11.296875 40.5 16.703125 42.40625 20.203125 42.40625 
C 25.203125 42.40625 30.703125 37.953125 30.703125 29.453125 
L 30.703125 25 
C 24.796875 25 17.703125 24.203125 12.09375 21.203125 
C 5.796875 17.703125 4 12.703125 4 8.90625 
C 4 1.203125 13 -1 18.296875 -1 
C 23.796875 -1 28.90625 2.171875 31.09375 7.984375 
C 31.296875 3.640625 34.09375 -0.28125 38.5 -0.28125 
C 40.59375 -0.28125 45.90625 1.09375 45.90625 8.859375 
L 45.90625 14.375 
L 44.09375 14.375 
L 44.09375 8.78125 
C 44.09375 2.78125 41.40625 2 40.09375 2 
C 36 2 36 7.15625 36 11.53125 
z
M 30.703125 13.59375 
C 30.703125 4.953125 24.5 0.59375 19 0.59375 
C 14 0.59375 10.09375 4.296875 10.09375 8.90625 
C 10.09375 11.890625 11.40625 17.1875 17.203125 20.390625 
C 22 23.09375 27.5 23.5 30.703125 23.5 
z
" id="CMR17-97"/>
      <path d="M 67.59375 30.203125 
C 67.59375 35.1875 66.703125 43.59375 54.796875 43.59375 
C 48 43.59375 43.296875 39 41.5 33.609375 
L 41.40625 33.609375 
C 40.203125 41.8125 34.296875 43.59375 28.703125 43.59375 
C 20.796875 43.59375 16.703125 37.5 15.203125 33.5 
L 15.09375 33.5 
L 15.09375 43.59375 
L 3.296875 42.5 
L 3.296875 39.90625 
C 9.203125 39.90625 10.09375 39.296875 10.09375 34.5 
L 10.09375 6.6875 
C 10.09375 2.875 9.703125 2.390625 3.296875 2.390625 
L 3.296875 -0.203125 
C 5.703125 0 10.09375 0 12.703125 0 
C 15.296875 0 19.796875 0 22.203125 -0.203125 
L 22.203125 2.390625 
C 15.796875 2.390625 15.40625 2.78125 15.40625 6.6875 
L 15.40625 25.90625 
C 15.40625 35.109375 21 42 28 42 
C 35.40625 42 36.203125 35.40625 36.203125 30.59375 
L 36.203125 6.6875 
C 36.203125 2.875 35.796875 2.390625 29.40625 2.390625 
L 29.40625 -0.203125 
C 31.796875 0 36.203125 0 38.796875 0 
C 41.40625 0 45.90625 0 48.296875 -0.203125 
L 48.296875 2.390625 
C 41.90625 2.390625 41.5 2.78125 41.5 6.6875 
L 41.5 25.90625 
C 41.5 35.109375 47.09375 42 54.09375 42 
C 61.5 42 62.296875 35.40625 62.296875 30.59375 
L 62.296875 6.6875 
C 62.296875 2.875 61.90625 2.390625 55.5 2.390625 
L 55.5 -0.203125 
C 57.90625 0 62.296875 0 64.90625 0 
C 67.5 0 72 0 74.40625 -0.203125 
L 74.40625 2.390625 
C 68 2.390625 67.59375 2.78125 67.59375 6.6875 
z
" id="CMR17-109"/>
      <path d="M 22 -16.609375 
C 15.59375 -16.609375 15.203125 -16.203125 15.203125 -12.328125 
L 15.203125 6.28125 
C 18.09375 2.09375 22.296875 -0.59375 27.59375 -0.59375 
C 37.59375 -0.59375 47.703125 8.171875 47.703125 21.6875 
C 47.703125 34.234375 39 43.78125 28.703125 43.78125 
C 22.703125 43.78125 17.796875 40.5 15 36.53125 
L 15 43.78125 
L 3.09375 42.6875 
L 3.09375 40.109375 
C 9 40.109375 9.90625 39.5 9.90625 34.734375 
L 9.90625 -12.328125 
C 9.90625 -16.109375 9.5 -16.609375 3.09375 -16.609375 
L 3.09375 -19.1875 
C 5.5 -19 9.90625 -19 12.5 -19 
C 15.09375 -19 19.59375 -19 22 -19.1875 
z
M 15.203125 31.4375 
C 15.203125 32.84375 15.203125 34.921875 19.09375 38.609375 
C 19.59375 39.015625 23 42 28 42 
C 35.296875 42 41.296875 32.9375 41.296875 21.59375 
C 41.296875 10.25 34.90625 1 27 1 
C 23.40625 1 19.5 2.6875 16.5 7.375 
C 15.203125 9.5625 15.203125 10.15625 15.203125 11.75 
z
" id="CMR17-112"/>
      <path d="M 15 23.390625 
C 15 33 19.09375 42 26.59375 42 
C 27.296875 42 28 41.90625 28.703125 41.59375 
C 28.703125 41.59375 26.5 40.890625 26.5 38.3125 
C 26.5 35.90625 28.40625 34.90625 29.90625 34.90625 
C 31.09375 34.90625 33.296875 35.609375 33.296875 38.40625 
C 33.296875 41.609375 30.09375 43.59375 26.703125 43.59375 
C 19.09375 43.59375 15.796875 36.203125 14.796875 32.703125 
L 14.703125 32.703125 
L 14.703125 43.59375 
L 3.09375 42.5 
L 3.09375 39.90625 
C 9 39.90625 9.90625 39.296875 9.90625 34.5 
L 9.90625 6.6875 
C 9.90625 2.875 9.5 2.390625 3.09375 2.390625 
L 3.09375 -0.203125 
C 5.5 0 10.09375 0 12.703125 0 
C 15.59375 0 20.703125 0 23.40625 -0.203125 
L 23.40625 2.390625 
C 16.203125 2.390625 15 2.390625 15 6.875 
z
" id="CMR17-114"/>
      <path d="M 43.09375 21.1875 
C 43.09375 34 33.796875 44 22.90625 44 
C 12 44 2.703125 34 2.703125 21.1875 
C 2.703125 8.609375 12 -1 22.90625 -1 
C 33.796875 -1 43.09375 8.609375 43.09375 21.1875 
z
M 22.90625 0.796875 
C 18.203125 0.796875 14.203125 3.59375 11.90625 7.5 
C 9.40625 11.984375 9.09375 17.59375 9.09375 22 
C 9.09375 26.203125 9.296875 31.40625 11.90625 35.90625 
C 13.90625 39.203125 17.796875 42.40625 22.90625 42.40625 
C 27.40625 42.40625 31.203125 39.90625 33.59375 36.40625 
C 36.703125 31.703125 36.703125 25.109375 36.703125 22 
C 36.703125 18.09375 36.5 12.109375 33.796875 7.296875 
C 31 2.703125 26.703125 0.796875 22.90625 0.796875 
z
" id="CMR17-111"/>
      <path d="M 15.09375 40 
L 29.09375 40 
L 29.09375 42.578125 
L 15.09375 42.578125 
L 15.09375 61 
L 13.296875 61 
C 13.09375 50.703125 9.59375 41.6875 1.09375 41.6875 
L 1.09375 40 
L 9.796875 40 
L 9.796875 12.046875 
C 9.796875 10.15625 9.796875 -1 21.40625 -1 
C 27.296875 -1 30.703125 4.78125 30.703125 12.140625 
L 30.703125 17.8125 
L 28.90625 17.8125 
L 28.90625 12.234375 
C 28.90625 5.375 26.203125 0.796875 22 0.796875 
C 19.09375 0.796875 15.09375 2.78125 15.09375 11.84375 
z
" id="CMR17-116"/>
      <path d="M 15.5 61.078125 
C 15.5 63.265625 13.703125 65.15625 11.40625 65.15625 
C 9.203125 65.15625 7.296875 63.375 7.296875 61.078125 
C 7.296875 58.890625 9.09375 57 11.40625 57 
C 13.59375 57 15.5 58.796875 15.5 61.078125 
z
M 3.796875 42.28125 
L 3.796875 39.703125 
C 9.40625 39.703125 10.203125 39.09375 10.203125 34.328125 
L 10.203125 6.671875 
C 10.203125 2.875 9.796875 2.390625 3.40625 2.390625 
L 3.40625 -0.203125 
C 5.796875 0 10.09375 0 12.59375 0 
C 15 0 19.09375 0 21.40625 -0.203125 
L 21.40625 2.390625 
C 15.5 2.390625 15.296875 2.984375 15.296875 6.5625 
L 15.296875 43.375 
z
" id="CMR17-105"/>
      <path d="M 41.5 30.203125 
C 41.5 35.296875 40.5 43.59375 28.703125 43.59375 
C 20.796875 43.59375 16.703125 37.5 15.203125 33.5 
L 15.09375 33.5 
L 15.09375 43.59375 
L 3.296875 42.5 
L 3.296875 39.90625 
C 9.203125 39.90625 10.09375 39.296875 10.09375 34.5 
L 10.09375 6.6875 
C 10.09375 2.875 9.703125 2.390625 3.296875 2.390625 
L 3.296875 -0.203125 
C 5.703125 0 10.09375 0 12.703125 0 
C 15.296875 0 19.796875 0 22.203125 -0.203125 
L 22.203125 2.390625 
C 15.796875 2.390625 15.40625 2.78125 15.40625 6.6875 
L 15.40625 25.90625 
C 15.40625 35.109375 21 42 28 42 
C 35.40625 42 36.203125 35.40625 36.203125 30.59375 
L 36.203125 6.6875 
C 36.203125 2.875 35.796875 2.390625 29.40625 2.390625 
L 29.40625 -0.203125 
C 31.796875 0 36.203125 0 38.796875 0 
C 41.40625 0 45.90625 0 48.296875 -0.203125 
L 48.296875 2.390625 
C 41.90625 2.390625 41.5 2.78125 41.5 6.6875 
z
" id="CMR17-110"/>
      <path d="M 23.5 -25 
L 23.5 -21.515625 
L 14.09375 -21.515625 
L 14.09375 71 
L 23.5 71 
L 23.5 74.484375 
L 10.59375 74.484375 
L 10.59375 -25 
z
" id="CMR17-91"/>
      <path d="M 56.59375 57.828125 
C 56.59375 63.765625 51.5 70 42.40625 70 
C 29.5 70 21.296875 54.328125 18.703125 44 
L 2.90625 -18.3125 
C 2.703125 -19.109375 3.296875 -19.3125 3.796875 -19.3125 
C 4.5 -19.3125 5 -19.21875 5.09375 -18.71875 
L 12.09375 9.15625 
C 13.09375 3.578125 18.59375 -1 24.5 -1 
C 38.796875 -1 52.296875 10.15625 52.296875 24.984375 
C 52.296875 28.765625 51.40625 32.546875 49.296875 35.734375 
C 48.09375 37.625 46.59375 39.015625 45 40.21875 
C 52.203125 43.984375 56.59375 50 56.59375 57.828125 
z
M 39.203125 40.3125 
C 37.59375 39.71875 36 39.515625 34.09375 39.515625 
C 32.703125 39.515625 31.40625 39.421875 29.59375 40.015625 
C 30.59375 40.71875 32.09375 40.90625 34.203125 40.90625 
C 36 40.90625 37.796875 40.71875 39.203125 40.3125 
z
M 51.40625 58.71875 
C 51.40625 53.28125 48.703125 45.359375 42.203125 41.703125 
C 40.296875 42.46875 37.703125 43 35.5 43 
C 33.40625 43 27.40625 43 27.40625 39.921875 
C 27.40625 37.328125 32.90625 37.328125 34.59375 37.328125 
C 37.203125 37.328125 39.5 38 41.90625 38.8125 
C 45.09375 36.21875 46.5 32.828125 46.5 27.859375 
C 46.5 22.078125 44.90625 17.421875 43 13.140625 
C 39.703125 5.765625 31.90625 1 25 1 
C 17.703125 1 13.90625 6.75 13.90625 13.5 
C 13.90625 14.40625 13.90625 15.703125 14.296875 17.171875 
L 20.796875 43.296875 
C 24.09375 56.296875 32.5 68.015625 42.203125 68.015625 
C 49.40625 68.015625 51.40625 63.0625 51.40625 58.71875 
z
" id="CMMI12-12"/>
      <path d="M 40.703125 71.015625 
C 41.203125 72.296875 41.203125 72.5 41.203125 72.703125 
C 41.203125 73.890625 40.296875 74.5 39.5 74.5 
C 38.296875 74.5 37.90625 73.703125 37.5 72.5 
L 5.09375 -21.515625 
C 4.59375 -22.8125 4.59375 -23.015625 4.59375 -23.21875 
C 4.59375 -24.40625 5.5 -25 6.296875 -25 
C 7.5 -25 7.90625 -24.203125 8.296875 -23.015625 
z
" id="CMR17-47"/>
      <path d="M 30.90625 42.140625 
C 30.90625 43.953125 30.796875 44.046875 30.203125 44.046875 
C 29.796875 44.046875 29.703125 43.953125 28.5 42.453125 
C 28.203125 42.046875 27.296875 41.03125 27 40.640625 
C 23.796875 44.046875 19.296875 44.046875 17.59375 44.046875 
C 6.5 44.046875 2.5 38.234375 2.5 32.4375 
C 2.5 23.40625 12.703125 21.328125 15.59375 20.703125 
C 21.90625 19.421875 24.09375 19.015625 26.203125 17.203125 
C 27.5 16.015625 29.703125 13.8125 29.703125 10.21875 
C 29.703125 6 27.296875 0.59375 18.09375 0.59375 
C 9.40625 0.59375 6.296875 7.1875 4.5 15.953125 
C 4.203125 17.34375 4.203125 17.453125 3.40625 17.453125 
C 2.59375 17.453125 2.5 17.34375 2.5 15.359375 
L 2.5 0.984375 
C 2.5 -0.796875 2.59375 -0.90625 3.203125 -0.90625 
C 3.703125 -0.90625 3.796875 -0.796875 4.296875 0 
C 4.90625 0.890625 6.40625 3.296875 7 4.3125 
C 9 1.609375 12.5 -1 18.09375 -1 
C 28 -1 33.296875 4.421875 33.296875 12.25 
C 33.296875 17.375 30.59375 20.078125 29.296875 21.28125 
C 26.296875 24.390625 22.796875 25.09375 18.59375 25.890625 
C 13.09375 27.109375 6.09375 28.515625 6.09375 34.640625 
C 6.09375 37.234375 7.5 42.765625 17.59375 42.765625 
C 28.296875 42.765625 28.90625 32.71875 29.09375 29.5 
C 29.203125 29 29.703125 28.890625 30 28.890625 
C 30.90625 28.890625 30.90625 29.203125 30.90625 30.90625 
z
" id="CMR17-115"/>
      <path d="M 14.296875 74.484375 
L 1.40625 74.484375 
L 1.40625 71 
L 10.796875 71 
L 10.796875 -21.515625 
L 1.40625 -21.515625 
L 1.40625 -25 
L 14.296875 -25 
z
" id="CMR17-93"/>
     </defs>
     <g style="fill:#262626;" transform="translate(52.838304 223.124643)rotate(-90)scale(0.2 -0.2)">
      <use transform="scale(0.996264)" xlink:href="#CMR17-66"/>
      <use transform="translate(65.188754 0)scale(0.996264)" xlink:href="#CMR17-101"/>
      <use transform="translate(105.674415 0)scale(0.996264)" xlink:href="#CMR17-97"/>
      <use transform="translate(151.364892 0)scale(0.996264)" xlink:href="#CMR17-109"/>
      <use transform="translate(258.360448 0)scale(0.996264)" xlink:href="#CMR17-112"/>
      <use transform="translate(309.255818 0)scale(0.996264)" xlink:href="#CMR17-114"/>
      <use transform="translate(344.536586 0)scale(0.996264)" xlink:href="#CMR17-111"/>
      <use transform="translate(390.227063 0)scale(0.996264)" xlink:href="#CMR17-112"/>
      <use transform="translate(443.724871 0)scale(0.996264)" xlink:href="#CMR17-111"/>
      <use transform="translate(489.415349 0)scale(0.996264)" xlink:href="#CMR17-114"/>
      <use transform="translate(524.696116 0)scale(0.996264)" xlink:href="#CMR17-116"/>
      <use transform="translate(559.976884 0)scale(0.996264)" xlink:href="#CMR17-105"/>
      <use transform="translate(584.847943 0)scale(0.996264)" xlink:href="#CMR17-111"/>
      <use transform="translate(630.53842 0)scale(0.996264)" xlink:href="#CMR17-110"/>
      <use transform="translate(711.509756 0)scale(0.996264)" xlink:href="#CMR17-91"/>
      <use transform="translate(736.380814 0)scale(0.996264)" xlink:href="#CMMI12-12"/>
      <use transform="translate(796.97483 0)scale(0.996264)" xlink:href="#CMR17-47"/>
      <use transform="translate(842.665307 0)scale(0.996264)" xlink:href="#CMR17-115"/>
      <use transform="translate(878.466645 0)scale(0.996264)" xlink:href="#CMR17-93"/>
     </g>
    </g>
   </g>
   <g id="LineCollection_1">
    <path clip-path="url(#p51cd0928ad)" d="M 241.823416 158.652094 
L 245.344804 158.652094 
" style="fill:none;stroke:#0000ff;"/>
    <path clip-path="url(#p51cd0928ad)" d="M 245.511164 170.814246 
L 248.479787 170.814246 
" style="fill:none;stroke:#0000ff;"/>
    <path clip-path="url(#p51cd0928ad)" d="M 249.910082 171.634426 
L 256.380872 171.634426 
" style="fill:none;stroke:#0000ff;"/>
    <path clip-path="url(#p51cd0928ad)" d="M 259.092997 189.64802 
L 264.724699 189.64802 
" style="fill:none;stroke:#0000ff;"/>
    <path clip-path="url(#p51cd0928ad)" d="M 278.358892 154.977129 
L 297.229767 154.977129 
" style="fill:none;stroke:#0000ff;"/>
    <path clip-path="url(#p51cd0928ad)" d="M 297.283453 157.612417 
L 307.149702 157.612417 
" style="fill:none;stroke:#0000ff;"/>
    <path clip-path="url(#p51cd0928ad)" d="M 307.180853 159.749111 
L 316.974195 159.749111 
" style="fill:none;stroke:#0000ff;"/>
    <path clip-path="url(#p51cd0928ad)" d="M 317.029869 161.102994 
L 326.578643 161.102994 
" style="fill:none;stroke:#0000ff;"/>
    <path clip-path="url(#p51cd0928ad)" d="M 326.636305 158.524093 
L 336.143986 158.524093 
" style="fill:none;stroke:#0000ff;"/>
    <path clip-path="url(#p51cd0928ad)" d="M 336.167184 157.73563 
L 347.311949 157.73563 
" style="fill:none;stroke:#0000ff;"/>
    <path clip-path="url(#p51cd0928ad)" d="M 347.3431 156.057833 
L 357.136442 156.057833 
" style="fill:none;stroke:#0000ff;"/>
    <path clip-path="url(#p51cd0928ad)" d="M 357.202058 150.335485 
L 360.244914 150.335485 
" style="fill:none;stroke:#0000ff;"/>
    <path clip-path="url(#p51cd0928ad)" d="M 360.273414 157.152875 
L 365.949522 157.152875 
" style="fill:none;stroke:#0000ff;"/>
    <path clip-path="url(#p51cd0928ad)" d="M 369.667095 156.798319 
L 379.197974 156.798319 
" style="fill:none;stroke:#0000ff;"/>
    <path clip-path="url(#p51cd0928ad)" d="M 389.970253 153.857081 
L 395.047865 153.857081 
" style="fill:none;stroke:#0000ff;"/>
    <path clip-path="url(#p51cd0928ad)" d="M 576.712508 49.193778 
L 584.775313 49.193778 
" style="fill:none;stroke:#0000ff;"/>
    <path clip-path="url(#p51cd0928ad)" d="M 584.805801 101.701365 
L 594.027821 101.701365 
" style="fill:none;stroke:#0000ff;"/>
    <path clip-path="url(#p51cd0928ad)" d="M 594.106693 81.789643 
L 601.549792 81.789643 
" style="fill:none;stroke:#0000ff;"/>
    <path clip-path="url(#p51cd0928ad)" d="M 615.439821 68.726381 
L 622.636364 68.726381 
" style="fill:none;stroke:#0000ff;"/>
   </g>
   <g id="LineCollection_2">
    <path clip-path="url(#p51cd0928ad)" d="M 243.58411 158.652094 
L 243.58411 158.652094 
" style="fill:none;stroke:#0000ff;"/>
    <path clip-path="url(#p51cd0928ad)" d="M 246.995475 170.814246 
L 246.995475 170.814246 
" style="fill:none;stroke:#0000ff;"/>
    <path clip-path="url(#p51cd0928ad)" d="M 253.145477 171.634426 
L 253.145477 171.634426 
" style="fill:none;stroke:#0000ff;"/>
    <path clip-path="url(#p51cd0928ad)" d="M 261.908848 189.64802 
L 261.908848 189.64802 
" style="fill:none;stroke:#0000ff;"/>
    <path clip-path="url(#p51cd0928ad)" d="M 287.79433 154.977129 
L 287.79433 154.977129 
" style="fill:none;stroke:#0000ff;"/>
    <path clip-path="url(#p51cd0928ad)" d="M 302.216577 157.612417 
L 302.216577 157.612417 
" style="fill:none;stroke:#0000ff;"/>
    <path clip-path="url(#p51cd0928ad)" d="M 312.077524 159.749111 
L 312.077524 159.749111 
" style="fill:none;stroke:#0000ff;"/>
    <path clip-path="url(#p51cd0928ad)" d="M 321.804256 161.102994 
L 321.804256 161.102994 
" style="fill:none;stroke:#0000ff;"/>
    <path clip-path="url(#p51cd0928ad)" d="M 331.390146 158.524093 
L 331.390146 158.524093 
" style="fill:none;stroke:#0000ff;"/>
    <path clip-path="url(#p51cd0928ad)" d="M 341.739566 157.73563 
L 341.739566 157.73563 
" style="fill:none;stroke:#0000ff;"/>
    <path clip-path="url(#p51cd0928ad)" d="M 352.239771 156.057833 
L 352.239771 156.057833 
" style="fill:none;stroke:#0000ff;"/>
    <path clip-path="url(#p51cd0928ad)" d="M 358.723486 150.335485 
L 358.723486 150.335485 
" style="fill:none;stroke:#0000ff;"/>
    <path clip-path="url(#p51cd0928ad)" d="M 363.111468 157.152875 
L 363.111468 157.152875 
" style="fill:none;stroke:#0000ff;"/>
    <path clip-path="url(#p51cd0928ad)" d="M 374.432535 156.798319 
L 374.432535 156.798319 
" style="fill:none;stroke:#0000ff;"/>
    <path clip-path="url(#p51cd0928ad)" d="M 392.509059 153.857081 
L 392.509059 153.857081 
" style="fill:none;stroke:#0000ff;"/>
    <path clip-path="url(#p51cd0928ad)" d="M 580.74391 49.193778 
L 580.74391 49.193778 
" style="fill:none;stroke:#0000ff;"/>
    <path clip-path="url(#p51cd0928ad)" d="M 589.416811 101.701365 
L 589.416811 101.701365 
" style="fill:none;stroke:#0000ff;"/>
    <path clip-path="url(#p51cd0928ad)" d="M 597.828242 81.789643 
L 597.828242 81.789643 
" style="fill:none;stroke:#0000ff;"/>
    <path clip-path="url(#p51cd0928ad)" d="M 619.038092 68.726381 
L 619.038092 68.726381 
" style="fill:none;stroke:#0000ff;"/>
   </g>
   <g id="LineCollection_3">
    <path clip-path="url(#p51cd0928ad)" d="M 241.823416 218.511464 
L 245.344804 218.511464 
" style="fill:none;stroke:#ff0000;"/>
    <path clip-path="url(#p51cd0928ad)" d="M 245.511164 218.775847 
L 248.479787 218.775847 
" style="fill:none;stroke:#ff0000;"/>
    <path clip-path="url(#p51cd0928ad)" d="M 249.910082 219.421042 
L 256.380872 219.421042 
" style="fill:none;stroke:#ff0000;"/>
    <path clip-path="url(#p51cd0928ad)" d="M 259.092997 220.043424 
L 264.724699 220.043424 
" style="fill:none;stroke:#ff0000;"/>
    <path clip-path="url(#p51cd0928ad)" d="M 278.358892 220.217211 
L 297.229767 220.217211 
" style="fill:none;stroke:#ff0000;"/>
    <path clip-path="url(#p51cd0928ad)" d="M 297.283453 220.062884 
L 307.149702 220.062884 
" style="fill:none;stroke:#ff0000;"/>
    <path clip-path="url(#p51cd0928ad)" d="M 307.180853 219.902971 
L 316.974195 219.902971 
" style="fill:none;stroke:#ff0000;"/>
    <path clip-path="url(#p51cd0928ad)" d="M 317.029869 219.846867 
L 326.578643 219.846867 
" style="fill:none;stroke:#ff0000;"/>
    <path clip-path="url(#p51cd0928ad)" d="M 326.636305 219.721336 
L 336.143986 219.721336 
" style="fill:none;stroke:#ff0000;"/>
    <path clip-path="url(#p51cd0928ad)" d="M 336.167184 219.543427 
L 347.311949 219.543427 
" style="fill:none;stroke:#ff0000;"/>
    <path clip-path="url(#p51cd0928ad)" d="M 347.3431 219.476644 
L 357.136442 219.476644 
" style="fill:none;stroke:#ff0000;"/>
    <path clip-path="url(#p51cd0928ad)" d="M 357.202058 219.508333 
L 360.244914 219.508333 
" style="fill:none;stroke:#ff0000;"/>
    <path clip-path="url(#p51cd0928ad)" d="M 360.273414 219.394598 
L 365.949522 219.394598 
" style="fill:none;stroke:#ff0000;"/>
    <path clip-path="url(#p51cd0928ad)" d="M 369.667095 219.031376 
L 379.197974 219.031376 
" style="fill:none;stroke:#ff0000;"/>
    <path clip-path="url(#p51cd0928ad)" d="M 389.970253 219.024062 
L 395.047865 219.024062 
" style="fill:none;stroke:#ff0000;"/>
    <path clip-path="url(#p51cd0928ad)" d="M 576.712508 219.795019 
L 584.775313 219.795019 
" style="fill:none;stroke:#ff0000;"/>
    <path clip-path="url(#p51cd0928ad)" d="M 584.805801 220.885582 
L 594.027821 220.885582 
" style="fill:none;stroke:#ff0000;"/>
    <path clip-path="url(#p51cd0928ad)" d="M 594.106693 221.021806 
L 601.549792 221.021806 
" style="fill:none;stroke:#ff0000;"/>
    <path clip-path="url(#p51cd0928ad)" d="M 615.439821 220.441687 
L 622.636364 220.441687 
" style="fill:none;stroke:#ff0000;"/>
   </g>
   <g id="LineCollection_4">
    <path clip-path="url(#p51cd0928ad)" d="M 243.58411 218.511464 
L 243.58411 218.511464 
" style="fill:none;stroke:#ff0000;"/>
    <path clip-path="url(#p51cd0928ad)" d="M 246.995475 218.775847 
L 246.995475 218.775847 
" style="fill:none;stroke:#ff0000;"/>
    <path clip-path="url(#p51cd0928ad)" d="M 253.145477 219.421042 
L 253.145477 219.421042 
" style="fill:none;stroke:#ff0000;"/>
    <path clip-path="url(#p51cd0928ad)" d="M 261.908848 220.043424 
L 261.908848 220.043424 
" style="fill:none;stroke:#ff0000;"/>
    <path clip-path="url(#p51cd0928ad)" d="M 287.79433 220.217211 
L 287.79433 220.217211 
" style="fill:none;stroke:#ff0000;"/>
    <path clip-path="url(#p51cd0928ad)" d="M 302.216577 220.062884 
L 302.216577 220.062884 
" style="fill:none;stroke:#ff0000;"/>
    <path clip-path="url(#p51cd0928ad)" d="M 312.077524 219.902971 
L 312.077524 219.902971 
" style="fill:none;stroke:#ff0000;"/>
    <path clip-path="url(#p51cd0928ad)" d="M 321.804256 219.846867 
L 321.804256 219.846867 
" style="fill:none;stroke:#ff0000;"/>
    <path clip-path="url(#p51cd0928ad)" d="M 331.390146 219.721336 
L 331.390146 219.721336 
" style="fill:none;stroke:#ff0000;"/>
    <path clip-path="url(#p51cd0928ad)" d="M 341.739566 219.543427 
L 341.739566 219.543427 
" style="fill:none;stroke:#ff0000;"/>
    <path clip-path="url(#p51cd0928ad)" d="M 352.239771 219.476644 
L 352.239771 219.476644 
" style="fill:none;stroke:#ff0000;"/>
    <path clip-path="url(#p51cd0928ad)" d="M 358.723486 219.508333 
L 358.723486 219.508333 
" style="fill:none;stroke:#ff0000;"/>
    <path clip-path="url(#p51cd0928ad)" d="M 363.111468 219.394598 
L 363.111468 219.394598 
" style="fill:none;stroke:#ff0000;"/>
    <path clip-path="url(#p51cd0928ad)" d="M 374.432535 219.031376 
L 374.432535 219.031376 
" style="fill:none;stroke:#ff0000;"/>
    <path clip-path="url(#p51cd0928ad)" d="M 392.509059 219.024062 
L 392.509059 219.024062 
" style="fill:none;stroke:#ff0000;"/>
    <path clip-path="url(#p51cd0928ad)" d="M 580.74391 219.795019 
L 580.74391 219.795019 
" style="fill:none;stroke:#ff0000;"/>
    <path clip-path="url(#p51cd0928ad)" d="M 589.416811 220.885582 
L 589.416811 220.885582 
" style="fill:none;stroke:#ff0000;"/>
    <path clip-path="url(#p51cd0928ad)" d="M 597.828242 221.021806 
L 597.828242 221.021806 
" style="fill:none;stroke:#ff0000;"/>
    <path clip-path="url(#p51cd0928ad)" d="M 619.038092 220.441687 
L 619.038092 220.441687 
" style="fill:none;stroke:#ff0000;"/>
   </g>
   <g id="line2d_9">
    <defs>
     <path d="M 0 2.5 
C 0.663008 2.5 1.29895 2.236584 1.767767 1.767767 
C 2.236584 1.29895 2.5 0.663008 2.5 0 
C 2.5 -0.663008 2.236584 -1.29895 1.767767 -1.767767 
C 1.29895 -2.236584 0.663008 -2.5 0 -2.5 
C -0.663008 -2.5 -1.29895 -2.236584 -1.767767 -1.767767 
C -2.236584 -1.29895 -2.5 -0.663008 -2.5 0 
C -2.5 0.663008 -2.236584 1.29895 -1.767767 1.767767 
C -1.29895 2.236584 -0.663008 2.5 0 2.5 
z
" id="ma860fe7d3f" style="stroke:#1a1a1a;stroke-width:0.5;"/>
    </defs>
    <g clip-path="url(#p51cd0928ad)">
     <use style="fill:#0000ff;stroke:#1a1a1a;stroke-width:0.5;" x="243.58411" xlink:href="#ma860fe7d3f" y="158.652094"/>
     <use style="fill:#0000ff;stroke:#1a1a1a;stroke-width:0.5;" x="246.995475" xlink:href="#ma860fe7d3f" y="170.814246"/>
     <use style="fill:#0000ff;stroke:#1a1a1a;stroke-width:0.5;" x="253.145477" xlink:href="#ma860fe7d3f" y="171.634426"/>
     <use style="fill:#0000ff;stroke:#1a1a1a;stroke-width:0.5;" x="261.908848" xlink:href="#ma860fe7d3f" y="189.64802"/>
     <use style="fill:#0000ff;stroke:#1a1a1a;stroke-width:0.5;" x="287.79433" xlink:href="#ma860fe7d3f" y="154.977129"/>
     <use style="fill:#0000ff;stroke:#1a1a1a;stroke-width:0.5;" x="302.216577" xlink:href="#ma860fe7d3f" y="157.612417"/>
     <use style="fill:#0000ff;stroke:#1a1a1a;stroke-width:0.5;" x="312.077524" xlink:href="#ma860fe7d3f" y="159.749111"/>
     <use style="fill:#0000ff;stroke:#1a1a1a;stroke-width:0.5;" x="321.804256" xlink:href="#ma860fe7d3f" y="161.102994"/>
     <use style="fill:#0000ff;stroke:#1a1a1a;stroke-width:0.5;" x="331.390146" xlink:href="#ma860fe7d3f" y="158.524093"/>
     <use style="fill:#0000ff;stroke:#1a1a1a;stroke-width:0.5;" x="341.739566" xlink:href="#ma860fe7d3f" y="157.73563"/>
     <use style="fill:#0000ff;stroke:#1a1a1a;stroke-width:0.5;" x="352.239771" xlink:href="#ma860fe7d3f" y="156.057833"/>
     <use style="fill:#0000ff;stroke:#1a1a1a;stroke-width:0.5;" x="358.723486" xlink:href="#ma860fe7d3f" y="150.335485"/>
     <use style="fill:#0000ff;stroke:#1a1a1a;stroke-width:0.5;" x="363.111468" xlink:href="#ma860fe7d3f" y="157.152875"/>
     <use style="fill:#0000ff;stroke:#1a1a1a;stroke-width:0.5;" x="374.432535" xlink:href="#ma860fe7d3f" y="156.798319"/>
     <use style="fill:#0000ff;stroke:#1a1a1a;stroke-width:0.5;" x="392.509059" xlink:href="#ma860fe7d3f" y="153.857081"/>
     <use style="fill:#0000ff;stroke:#1a1a1a;stroke-width:0.5;" x="580.74391" xlink:href="#ma860fe7d3f" y="49.193778"/>
     <use style="fill:#0000ff;stroke:#1a1a1a;stroke-width:0.5;" x="589.416811" xlink:href="#ma860fe7d3f" y="101.701365"/>
     <use style="fill:#0000ff;stroke:#1a1a1a;stroke-width:0.5;" x="597.828242" xlink:href="#ma860fe7d3f" y="81.789643"/>
     <use style="fill:#0000ff;stroke:#1a1a1a;stroke-width:0.5;" x="619.038092" xlink:href="#ma860fe7d3f" y="68.726381"/>
    </g>
   </g>
   <g id="line2d_10">
    <defs>
     <path d="M 0 2.5 
C 0.663008 2.5 1.29895 2.236584 1.767767 1.767767 
C 2.236584 1.29895 2.5 0.663008 2.5 0 
C 2.5 -0.663008 2.236584 -1.29895 1.767767 -1.767767 
C 1.29895 -2.236584 0.663008 -2.5 0 -2.5 
C -0.663008 -2.5 -1.29895 -2.236584 -1.767767 -1.767767 
C -2.236584 -1.29895 -2.5 -0.663008 -2.5 0 
C -2.5 0.663008 -2.236584 1.29895 -1.767767 1.767767 
C -1.29895 2.236584 -0.663008 2.5 0 2.5 
z
" id="m0b2b3ccd3c" style="stroke:#1a1a1a;stroke-width:0.5;"/>
    </defs>
    <g clip-path="url(#p51cd0928ad)">
     <use style="fill:#ff0000;stroke:#1a1a1a;stroke-width:0.5;" x="243.58411" xlink:href="#m0b2b3ccd3c" y="218.511464"/>
     <use style="fill:#ff0000;stroke:#1a1a1a;stroke-width:0.5;" x="246.995475" xlink:href="#m0b2b3ccd3c" y="218.775847"/>
     <use style="fill:#ff0000;stroke:#1a1a1a;stroke-width:0.5;" x="253.145477" xlink:href="#m0b2b3ccd3c" y="219.421042"/>
     <use style="fill:#ff0000;stroke:#1a1a1a;stroke-width:0.5;" x="261.908848" xlink:href="#m0b2b3ccd3c" y="220.043424"/>
     <use style="fill:#ff0000;stroke:#1a1a1a;stroke-width:0.5;" x="287.79433" xlink:href="#m0b2b3ccd3c" y="220.217211"/>
     <use style="fill:#ff0000;stroke:#1a1a1a;stroke-width:0.5;" x="302.216577" xlink:href="#m0b2b3ccd3c" y="220.062884"/>
     <use style="fill:#ff0000;stroke:#1a1a1a;stroke-width:0.5;" x="312.077524" xlink:href="#m0b2b3ccd3c" y="219.902971"/>
     <use style="fill:#ff0000;stroke:#1a1a1a;stroke-width:0.5;" x="321.804256" xlink:href="#m0b2b3ccd3c" y="219.846867"/>
     <use style="fill:#ff0000;stroke:#1a1a1a;stroke-width:0.5;" x="331.390146" xlink:href="#m0b2b3ccd3c" y="219.721336"/>
     <use style="fill:#ff0000;stroke:#1a1a1a;stroke-width:0.5;" x="341.739566" xlink:href="#m0b2b3ccd3c" y="219.543427"/>
     <use style="fill:#ff0000;stroke:#1a1a1a;stroke-width:0.5;" x="352.239771" xlink:href="#m0b2b3ccd3c" y="219.476644"/>
     <use style="fill:#ff0000;stroke:#1a1a1a;stroke-width:0.5;" x="358.723486" xlink:href="#m0b2b3ccd3c" y="219.508333"/>
     <use style="fill:#ff0000;stroke:#1a1a1a;stroke-width:0.5;" x="363.111468" xlink:href="#m0b2b3ccd3c" y="219.394598"/>
     <use style="fill:#ff0000;stroke:#1a1a1a;stroke-width:0.5;" x="374.432535" xlink:href="#m0b2b3ccd3c" y="219.031376"/>
     <use style="fill:#ff0000;stroke:#1a1a1a;stroke-width:0.5;" x="392.509059" xlink:href="#m0b2b3ccd3c" y="219.024062"/>
     <use style="fill:#ff0000;stroke:#1a1a1a;stroke-width:0.5;" x="580.74391" xlink:href="#m0b2b3ccd3c" y="219.795019"/>
     <use style="fill:#ff0000;stroke:#1a1a1a;stroke-width:0.5;" x="589.416811" xlink:href="#m0b2b3ccd3c" y="220.885582"/>
     <use style="fill:#ff0000;stroke:#1a1a1a;stroke-width:0.5;" x="597.828242" xlink:href="#m0b2b3ccd3c" y="221.021806"/>
     <use style="fill:#ff0000;stroke:#1a1a1a;stroke-width:0.5;" x="619.038092" xlink:href="#m0b2b3ccd3c" y="220.441687"/>
    </g>
   </g>
   <g id="patch_3">
    <path d="M 90 222.381818 
L 90 43.2 
" style="fill:none;stroke:#262626;stroke-linecap:square;stroke-linejoin:miter;stroke-width:1.25;"/>
   </g>
   <g id="patch_4">
    <path d="M 648 222.381818 
L 648 43.2 
" style="fill:none;stroke:#262626;stroke-linecap:square;stroke-linejoin:miter;stroke-width:1.25;"/>
   </g>
   <g id="patch_5">
    <path d="M 90 222.381818 
L 648 222.381818 
" style="fill:none;stroke:#262626;stroke-linecap:square;stroke-linejoin:miter;stroke-width:1.25;"/>
   </g>
   <g id="patch_6">
    <path d="M 90 43.2 
L 648 43.2 
" style="fill:none;stroke:#262626;stroke-linecap:square;stroke-linejoin:miter;stroke-width:1.25;"/>
   </g>
   <g id="legend_1">
    <g id="patch_7">
     <path d="M 100.5 100.34027 
L 255.377682 100.34027 
Q 258.377682 100.34027 258.377682 97.34027 
L 258.377682 53.7 
Q 258.377682 50.7 255.377682 50.7 
L 100.5 50.7 
Q 97.5 50.7 97.5 53.7 
L 97.5 97.34027 
Q 97.5 100.34027 100.5 100.34027 
z
" style="fill:#ffffff;opacity:0.8;stroke:#cccccc;stroke-linejoin:miter;"/>
    </g>
    <g id="LineCollection_5">
     <path d="M 111 63.61439 
L 126 63.61439 
" style="fill:none;stroke:#0000ff;"/>
    </g>
    <g id="LineCollection_6">
     <path d="M 118.5 71.11439 
L 118.5 56.11439 
" style="fill:none;stroke:#0000ff;"/>
    </g>
    <g id="line2d_11"/>
    <g id="line2d_12">
     <g>
      <use style="fill:#0000ff;stroke:#1a1a1a;stroke-width:0.5;" x="118.5" xlink:href="#ma860fe7d3f" y="63.61439"/>
     </g>
    </g>
    <g id="text_5">
     <!-- $^{18}\mathrm{N}$ decay chain -->
     <defs>
      <path d="M 26.59375 63.40625 
C 26.59375 65.5 26.5 65.5 25.09375 65.5 
C 21.203125 61.1875 15.296875 59.796875 9.703125 59.796875 
C 9.40625 59.796875 8.90625 59.796875 8.796875 59.5 
C 8.703125 59.296875 8.703125 59.09375 8.703125 57 
C 11.796875 57 17 57.59375 21 59.984375 
L 21 7.203125 
C 21 3.6875 20.796875 2.5 12.203125 2.5 
L 9.203125 2.5 
L 9.203125 0 
C 14 0 19 0 23.796875 0 
C 28.59375 0 33.59375 0 38.40625 0 
L 38.40625 2.5 
L 35.40625 2.5 
C 26.796875 2.5 26.59375 3.59375 26.59375 7.15625 
z
" id="CMR17-49"/>
      <path d="M 27.203125 35.375 
C 33.5 38.546875 39.90625 43.328125 39.90625 50.984375 
C 39.90625 60.015625 31.09375 65.296875 23 65.296875 
C 13.90625 65.296875 5.90625 58.734375 5.90625 49.6875 
C 5.90625 47.203125 6.5 42.921875 10.40625 39.140625 
C 11.40625 38.15625 15.59375 35.171875 18.296875 33.28125 
C 13.796875 30.984375 3.296875 25.53125 3.296875 14.59375 
C 3.296875 4.359375 13.09375 -2 22.796875 -2 
C 33.5 -2 42.5 5.65625 42.5 15.78125 
C 42.5 24.84375 36.40625 29.015625 32.40625 31.703125 
z
M 14.09375 44.09375 
C 13.296875 44.59375 9.296875 47.671875 9.296875 52.359375 
C 9.296875 58.421875 15.59375 63 22.796875 63 
C 30.703125 63 36.5 57.4375 36.5 50.96875 
C 36.5 41.703125 26.09375 36.421875 25.59375 36.421875 
C 25.5 36.421875 25.40625 36.421875 24.59375 37.03125 
z
M 32.5 23.734375 
C 34 22.640625 38.796875 19.375 38.796875 13.296875 
C 38.796875 5.953125 31.40625 0.390625 23 0.390625 
C 13.90625 0.390625 7 6.84375 7 14.6875 
C 7 22.546875 13.09375 29.09375 20 32.1875 
z
" id="CMR17-56"/>
      <path d="M 20.5 66.40625 
C 19.796875 67.5 19.703125 67.5 17.796875 67.5 
L 5.09375 67.5 
L 5.09375 65 
L 7 65 
C 11 65 12.796875 64.515625 13.09375 64.40625 
L 13.09375 9.53125 
C 13.09375 7.046875 13.09375 2.390625 5.09375 2.390625 
L 5.09375 -0.203125 
C 7.40625 0 11.59375 0 14.09375 0 
C 16.59375 0 20.796875 0 23.09375 -0.203125 
L 23.09375 2.390625 
C 15.09375 2.390625 15.09375 7.046875 15.09375 9.53125 
L 15.09375 63.015625 
C 15.796875 62.421875 15.796875 62.21875 16.5 61.234375 
L 53.59375 1.1875 
C 54.296875 0 54.59375 0 55.09375 0 
C 56.09375 0 56.09375 0.296875 56.09375 2.171875 
L 56.09375 57.890625 
C 56.09375 60.359375 56.09375 65 64.09375 65 
L 64.09375 67.59375 
C 61.796875 67.5 57.59375 67.5 55.09375 67.5 
C 52.59375 67.5 48.40625 67.5 46.09375 67.59375 
L 46.09375 65 
C 54.09375 65 54.09375 60.34375 54.09375 57.859375 
L 54.09375 11.921875 
z
" id="CMR17-78"/>
      <path d="M 29.203125 67.59375 
L 29.203125 65 
C 35.09375 65 36 64.40625 36 59.6875 
L 36 36.640625 
C 35.59375 37.140625 31.5 43.59375 23.40625 43.59375 
C 13.203125 43.59375 3.296875 34.5 3.296875 21.3125 
C 3.296875 8.203125 12.59375 -1 22.40625 -1 
C 30.90625 -1 35.296875 5.265625 35.796875 5.9375 
L 35.796875 -0.984375 
L 47.90625 -0.984375 
L 47.90625 2 
C 42 2 41.09375 2.59375 41.09375 7.390625 
L 41.09375 68.6875 
z
M 35.796875 11.796875 
C 35.796875 8.796875 34 6.09375 31.703125 4.09375 
C 28.296875 1.09375 24.90625 0.59375 23 0.59375 
C 20.09375 0.59375 9.703125 2.09375 9.703125 21.1875 
C 9.703125 40.8125 21.296875 42 23.90625 42 
C 28.5 42 32.203125 39.40625 34.5 35.796875 
C 35.796875 33.703125 35.796875 33.40625 35.796875 31.609375 
z
" id="CMR17-100"/>
      <path d="M 34.90625 35 
C 33 35 30.203125 35 30.203125 31.515625 
C 30.203125 28.71875 32.5 27.921875 33.796875 27.921875 
C 34.5 27.921875 37.40625 28.234375 37.40625 31.625 
C 37.40625 38.546875 30.59375 43.796875 22.90625 43.796875 
C 12.296875 43.796875 3.296875 34.03125 3.296875 21.296875 
C 3.296875 8.0625 12.703125 -1 22.90625 -1 
C 35.296875 -1 38.40625 10.578125 38.40625 11.6875 
C 38.40625 12.09375 38.296875 12.390625 37.59375 12.390625 
C 36.90625 12.390625 36.796875 12.296875 36.40625 10.984375 
C 33.796875 2.8125 28.09375 0.796875 23.796875 0.796875 
C 17.40625 0.796875 9.703125 6.671875 9.703125 21.390625 
C 9.703125 36.53125 17.09375 42 23 42 
C 26.90625 42 32.703125 40.203125 34.90625 35 
z
" id="CMR17-99"/>
      <path d="M 39 34.328125 
C 41.5 40.40625 46 40.40625 47.40625 40.40625 
L 47.40625 43 
C 45.5 43 43 43 41.09375 43 
C 39 43 35.703125 43 33.703125 43.09375 
L 33.703125 40.5 
C 37.5 40.203125 37.59375 37.40625 37.59375 36.609375 
C 37.59375 35.625 37.40625 35.125 36.90625 33.921875 
L 26 7.015625 
L 14.09375 36.03125 
C 13.59375 37.21875 13.59375 37.90625 13.59375 38.015625 
C 13.59375 40.203125 15.90625 40.40625 18.296875 40.40625 
L 18.296875 43.09375 
C 15.90625 43 11.59375 43 9.09375 43 
C 6.40625 43 3.203125 43 1 43.09375 
L 1 40.40625 
C 6.40625 40.40625 7 39.90625 8.296875 36.71875 
L 23.203125 0.234375 
C 18.703125 -11.53125 16.09375 -18.40625 9.796875 -18.40625 
C 8.703125 -18.40625 6.203125 -18.109375 4.40625 -16.3125 
C 6.703125 -16.109375 7.703125 -14.71875 7.703125 -13.015625 
C 7.703125 -11.328125 6.5 -9.828125 4.5 -9.828125 
C 2.296875 -9.828125 1.203125 -11.328125 1.203125 -13.125 
C 1.203125 -17.109375 5.296875 -20 9.796875 -20 
C 15.59375 -20 19.203125 -14.40625 21.203125 -9.4375 
z
" id="CMR17-121"/>
      <path d="M 41.5 30.203125 
C 41.5 35.296875 40.5 43.59375 28.703125 43.59375 
C 20.5 43.59375 16.5 37 15.296875 33.703125 
L 15.203125 33.703125 
L 15.203125 68.6875 
L 3.296875 67.59375 
L 3.296875 65 
C 9.203125 65 10.09375 64.40625 10.09375 59.640625 
L 10.09375 6.65625 
C 10.09375 2.875 9.703125 2.390625 3.296875 2.390625 
L 3.296875 -0.203125 
C 5.703125 0 10.09375 0 12.703125 0 
C 15.296875 0 19.796875 0 22.203125 -0.203125 
L 22.203125 2.390625 
C 15.796875 2.390625 15.40625 2.78125 15.40625 6.6875 
L 15.40625 25.90625 
C 15.40625 35.109375 21 42 28 42 
C 35.40625 42 36.203125 35.40625 36.203125 30.59375 
L 36.203125 6.6875 
C 36.203125 2.875 35.796875 2.390625 29.40625 2.390625 
L 29.40625 -0.203125 
C 31.796875 0 36.203125 0 38.796875 0 
C 41.40625 0 45.90625 0 48.296875 -0.203125 
L 48.296875 2.390625 
C 41.90625 2.390625 41.5 2.78125 41.5 6.6875 
z
" id="CMR17-104"/>
     </defs>
     <g style="fill:#262626;" transform="translate(145.5 68.86439)scale(0.15 -0.15)">
      <use transform="translate(0 36.153639)scale(0.697382)" xlink:href="#CMR17-49"/>
      <use transform="translate(31.983182 36.153639)scale(0.697382)" xlink:href="#CMR17-56"/>
      <use transform="translate(64.464496 0)scale(0.996264)" xlink:href="#CMR17-78"/>
      <use transform="translate(163.612892 0)scale(0.996264)" xlink:href="#CMR17-100"/>
      <use transform="translate(214.508262 0)scale(0.996264)" xlink:href="#CMR17-101"/>
      <use transform="translate(254.993922 0)scale(0.996264)" xlink:href="#CMR17-99"/>
      <use transform="translate(295.479583 0)scale(0.996264)" xlink:href="#CMR17-97"/>
      <use transform="translate(338.567606 0)scale(0.996264)" xlink:href="#CMR17-121"/>
      <use transform="translate(416.936488 0)scale(0.996264)" xlink:href="#CMR17-99"/>
      <use transform="translate(454.819695 0)scale(0.996264)" xlink:href="#CMR17-104"/>
      <use transform="translate(505.715064 0)scale(0.996264)" xlink:href="#CMR17-97"/>
      <use transform="translate(551.405542 0)scale(0.996264)" xlink:href="#CMR17-105"/>
      <use transform="translate(576.2766 0)scale(0.996264)" xlink:href="#CMR17-110"/>
     </g>
    </g>
    <g id="LineCollection_7">
     <path d="M 111 86.184525 
L 126 86.184525 
" style="fill:none;stroke:#ff0000;"/>
    </g>
    <g id="LineCollection_8">
     <path d="M 118.5 93.684525 
L 118.5 78.684525 
" style="fill:none;stroke:#ff0000;"/>
    </g>
    <g id="line2d_13"/>
    <g id="line2d_14">
     <g>
      <use style="fill:#ff0000;stroke:#1a1a1a;stroke-width:0.5;" x="118.5" xlink:href="#m0b2b3ccd3c" y="86.184525"/>
     </g>
    </g>
    <g id="text_6">
     <!-- $^{32}\mathrm{Ar}$ decay chain -->
     <defs>
      <path d="M 22.09375 33.703125 
C 31 33.703125 34.90625 25.96875 34.90625 17.03125 
C 34.90625 5 28.5 0.390625 22.703125 0.390625 
C 17.40625 0.390625 8.796875 3.03125 6.09375 10.828125 
C 6.59375 10.625 7.09375 10.625 7.59375 10.625 
C 10 10.625 11.796875 12.21875 11.796875 14.8125 
C 11.796875 17.703125 9.59375 19 7.59375 19 
C 5.90625 19 3.296875 18.203125 3.296875 14.46875 
C 3.296875 5.234375 12.296875 -2 22.90625 -2 
C 34 -2 42.5 6.71875 42.5 16.953125 
C 42.5 26.671875 34.5 33.703125 25 34.796875 
C 32.59375 36.375 39.90625 43.0625 39.90625 52.015625 
C 39.90625 59.6875 32 65.296875 23 65.296875 
C 13.90625 65.296875 5.90625 59.828125 5.90625 52.015625 
C 5.90625 48.59375 8.5 48 9.796875 48 
C 11.90625 48 13.703125 49.296875 13.703125 51.890625 
C 13.703125 54.46875 11.90625 55.765625 9.796875 55.765625 
C 9.40625 55.765625 8.90625 55.765625 8.5 55.578125 
C 11.40625 61.859375 19.296875 63 22.796875 63 
C 26.296875 63 32.90625 61.328125 32.90625 51.875 
C 32.90625 49.109375 32.5 44.1875 29.09375 39.84375 
C 26.09375 36 22.703125 36 19.40625 35.6875 
C 18.90625 35.6875 16.59375 35.453125 16.203125 35.453125 
C 15.5 35.359375 15.09375 35.265625 15.09375 34.5 
C 15.09375 33.796875 15.203125 33.703125 17.203125 33.703125 
z
" id="CMR17-51"/>
      <path d="M 36.296875 68.40625 
C 35.796875 69.703125 35.59375 70 34.59375 70 
C 33.59375 70 33.40625 69.703125 32.90625 68.40625 
L 11.703125 8.84375 
C 9.796875 3.484375 5.796875 2.390625 2.296875 2.390625 
L 2.296875 -0.203125 
C 4.09375 0 8.09375 0 10 0 
C 12.5 0 16.5 0 18.90625 -0.203125 
L 18.90625 2.390625 
C 14.203125 2.390625 13.5 5.640625 13.5 6.859375 
C 13.5 7.765625 13.703125 8.28125 13.90625 8.890625 
L 19.203125 24 
L 45.40625 24 
L 51.40625 6.90625 
C 51.90625 5.703125 51.90625 5.5 51.90625 5.109375 
C 51.90625 2.390625 47.59375 2.390625 45.703125 2.390625 
L 45.703125 0 
C 48.59375 0 53.796875 0 56.90625 0 
C 59.5 0 64.5 0 66.90625 -0.203125 
L 66.90625 2.390625 
C 61.59375 2.390625 59.796875 2.390625 58.5 6.046875 
z
M 32.296875 60.828125 
L 44.5 26.59375 
L 20.09375 26.59375 
z
" id="CMR17-65"/>
     </defs>
     <g style="fill:#262626;" transform="translate(145.5 91.434525)scale(0.15 -0.15)">
      <use transform="translate(0 36.153639)scale(0.697382)" xlink:href="#CMR17-51"/>
      <use transform="translate(31.983182 36.153639)scale(0.697382)" xlink:href="#CMR17-50"/>
      <use transform="translate(64.464496 0)scale(0.996264)" xlink:href="#CMR17-65"/>
      <use transform="translate(133.536926 0)scale(0.996264)" xlink:href="#CMR17-114"/>
      <use transform="translate(198.89366 0)scale(0.996264)" xlink:href="#CMR17-100"/>
      <use transform="translate(249.78903 0)scale(0.996264)" xlink:href="#CMR17-101"/>
      <use transform="translate(290.27469 0)scale(0.996264)" xlink:href="#CMR17-99"/>
      <use transform="translate(330.760351 0)scale(0.996264)" xlink:href="#CMR17-97"/>
      <use transform="translate(373.848374 0)scale(0.996264)" xlink:href="#CMR17-121"/>
      <use transform="translate(452.217256 0)scale(0.996264)" xlink:href="#CMR17-99"/>
      <use transform="translate(490.100462 0)scale(0.996264)" xlink:href="#CMR17-104"/>
      <use transform="translate(540.995832 0)scale(0.996264)" xlink:href="#CMR17-97"/>
      <use transform="translate(586.686309 0)scale(0.996264)" xlink:href="#CMR17-105"/>
      <use transform="translate(611.557368 0)scale(0.996264)" xlink:href="#CMR17-110"/>
     </g>
    </g>
   </g>
  </g>
  <g id="axes_2">
   <g id="patch_8">
    <path d="M 90 306 
L 648 306 
L 648 246.272727 
L 90 246.272727 
z
" style="fill:#ffffff;"/>
   </g>
   <g id="matplotlib.axis_3">
    <g id="xtick_6">
     <g id="line2d_15">
      <g>
       <use style="fill:#262626;stroke:#1a1a1a;stroke-width:1.25;" x="122.521737" xlink:href="#m0d50b24da8" y="306"/>
      </g>
     </g>
     <g id="text_7">
      <!-- $-50$ -->
      <defs>
       <path d="M 65.90625 23 
C 67.59375 23 69.40625 23 69.40625 25 
C 69.40625 27 67.59375 27 65.90625 27 
L 11.796875 27 
C 10.09375 27 8.296875 27 8.296875 25 
C 8.296875 23 10.09375 23 11.796875 23 
z
" id="CMSY10-0"/>
       <path d="M 11.40625 57.6875 
C 12.40625 57.28125 16.5 56 20.703125 56 
C 30 56 35.09375 61.109375 38 64.0625 
C 38 64.953125 38 65.5 37.40625 65.5 
C 37.296875 65.5 37.09375 65.5 36.296875 65.046875 
C 32.796875 63.40625 28.703125 62.078125 23.703125 62.078125 
C 20.703125 62.078125 16.203125 62.484375 11.296875 64.671875 
C 10.203125 65.171875 10 65.171875 9.90625 65.171875 
C 9.40625 65.171875 9.296875 65.0625 9.296875 63.078125 
L 9.296875 34.421875 
C 9.296875 32.640625 9.296875 32.140625 10.296875 32.140625 
C 10.796875 32.140625 11 32.34375 11.5 33.03125 
C 14.703125 37.515625 19.09375 39.40625 24.09375 39.40625 
C 27.59375 39.40625 35.09375 37.21875 35.09375 20.140625 
C 35.09375 16.953125 35.09375 11.171875 32.09375 6.578125 
C 29.59375 2.484375 25.703125 0.390625 21.40625 0.390625 
C 14.796875 0.390625 8.09375 5 6.296875 12.71875 
C 6.703125 12.609375 7.5 12.421875 7.90625 12.421875 
C 9.203125 12.421875 11.703125 13.125 11.703125 16.21875 
C 11.703125 18.90625 9.796875 20 7.90625 20 
C 5.59375 20 4.09375 18.59375 4.09375 15.796875 
C 4.09375 7.09375 11 -2 21.59375 -2 
C 31.90625 -2 41.703125 6.875 41.703125 19.75 
C 41.703125 31.71875 33.90625 41 24.203125 41 
C 19.09375 41 14.796875 39.109375 11.40625 35.53125 
z
" id="CMR17-53"/>
      </defs>
      <g style="fill:#262626;" transform="translate(109.393941 325.877725)scale(0.15 -0.15)">
       <use transform="scale(0.996264)" xlink:href="#CMSY10-0"/>
       <use transform="translate(77.487468 0)scale(0.996264)" xlink:href="#CMR17-53"/>
       <use transform="translate(123.177945 0)scale(0.996264)" xlink:href="#CMR17-48"/>
      </g>
     </g>
    </g>
    <g id="xtick_7">
     <g id="line2d_16">
      <g>
       <use style="fill:#262626;stroke:#1a1a1a;stroke-width:1.25;" x="241.823416" xlink:href="#m0d50b24da8" y="306"/>
      </g>
     </g>
     <g id="text_8">
      <!-- $0$ -->
      <g style="fill:#262626;" transform="translate(238.165297 325.877725)scale(0.15 -0.15)">
       <use transform="scale(0.996264)" xlink:href="#CMR17-48"/>
      </g>
     </g>
    </g>
    <g id="xtick_8">
     <g id="line2d_17">
      <g>
       <use style="fill:#262626;stroke:#1a1a1a;stroke-width:1.25;" x="361.125095" xlink:href="#m0d50b24da8" y="306"/>
      </g>
     </g>
     <g id="text_9">
      <!-- $50$ -->
      <g style="fill:#262626;" transform="translate(353.808857 325.877725)scale(0.15 -0.15)">
       <use transform="scale(0.996264)" xlink:href="#CMR17-53"/>
       <use transform="translate(45.690477 0)scale(0.996264)" xlink:href="#CMR17-48"/>
      </g>
     </g>
    </g>
    <g id="xtick_9">
     <g id="line2d_18">
      <g>
       <use style="fill:#262626;stroke:#1a1a1a;stroke-width:1.25;" x="480.426774" xlink:href="#m0d50b24da8" y="306"/>
      </g>
     </g>
     <g id="text_10">
      <!-- $100$ -->
      <g style="fill:#262626;" transform="translate(469.452417 325.877725)scale(0.15 -0.15)">
       <use transform="scale(0.996264)" xlink:href="#CMR17-49"/>
       <use transform="translate(45.690477 0)scale(0.996264)" xlink:href="#CMR17-48"/>
       <use transform="translate(91.380954 0)scale(0.996264)" xlink:href="#CMR17-48"/>
      </g>
     </g>
    </g>
    <g id="xtick_10">
     <g id="line2d_19">
      <g>
       <use style="fill:#262626;stroke:#1a1a1a;stroke-width:1.25;" x="599.728453" xlink:href="#m0d50b24da8" y="306"/>
      </g>
     </g>
     <g id="text_11">
      <!-- $150$ -->
      <g style="fill:#262626;" transform="translate(588.754096 325.877725)scale(0.15 -0.15)">
       <use transform="scale(0.996264)" xlink:href="#CMR17-49"/>
       <use transform="translate(45.690477 0)scale(0.996264)" xlink:href="#CMR17-53"/>
       <use transform="translate(91.380954 0)scale(0.996264)" xlink:href="#CMR17-48"/>
      </g>
     </g>
    </g>
    <g id="text_12">
     <!-- Time [h] -->
     <defs>
      <path d="M 62.203125 67.59375 
L 4.5 67.59375 
L 2.796875 45.59375 
L 4.59375 45.59375 
C 5.90625 62.125 7.296875 65 22.703125 65 
C 24.5 65 27.40625 65 28.203125 64.90625 
C 30.09375 64.609375 30.09375 63.40625 30.09375 61.125 
L 30.09375 7.171875 
C 30.09375 3.59375 29.796875 2.5 21.5 2.5 
L 18.703125 2.5 
L 18.703125 0 
C 23.5 0 28.5 0 33.40625 0 
C 38.296875 0 43.296875 0 48.09375 0 
L 48.09375 2.5 
L 45.296875 2.5 
C 37 2.5 36.703125 3.59375 36.703125 7.171875 
L 36.703125 61.125 
C 36.703125 63.3125 36.703125 64.515625 38.5 64.90625 
C 39.296875 65 42.203125 65 44 65 
C 59.296875 65 60.796875 62.125 62.09375 45.59375 
L 63.90625 45.59375 
z
" id="CMR17-84"/>
     </defs>
     <g style="fill:#262626;" transform="translate(335.050057 347.709492)scale(0.2 -0.2)">
      <use transform="scale(0.996264)" xlink:href="#CMR17-84"/>
      <use transform="translate(66.509881 0)scale(0.996264)" xlink:href="#CMR17-105"/>
      <use transform="translate(91.380939 0)scale(0.996264)" xlink:href="#CMR17-109"/>
      <use transform="translate(168.300529 0)scale(0.996264)" xlink:href="#CMR17-101"/>
      <use transform="translate(238.862156 0)scale(0.996264)" xlink:href="#CMR17-91"/>
      <use transform="translate(263.733214 0)scale(0.996264)" xlink:href="#CMR17-104"/>
      <use transform="translate(314.628584 0)scale(0.996264)" xlink:href="#CMR17-93"/>
     </g>
    </g>
   </g>
   <g id="matplotlib.axis_4"/>
   <g id="PolyCollection_1">
    <defs>
     <path d="M 115.363636 -113.727273 
L 115.363636 -54 
L 230.01255 -54 
L 230.01255 -113.727273 
L 230.01255 -113.727273 
L 115.363636 -113.727273 
z
" id="m9976e1f796" style="stroke:#808080;stroke-opacity:0.5;"/>
    </defs>
    <g clip-path="url(#pb38618baee)">
     <use style="fill:#808080;fill-opacity:0.5;stroke:#808080;stroke-opacity:0.5;" x="0" xlink:href="#m9976e1f796" y="360"/>
    </g>
   </g>
   <g id="PolyCollection_2">
    <defs>
     <path d="M 229.773946 -113.727273 
L 229.773946 -54 
L 241.823416 -54 
L 241.823416 -113.727273 
L 241.823416 -113.727273 
L 229.773946 -113.727273 
z
" id="m7053caa7f0" style="stroke:#808080;stroke-opacity:0.5;"/>
    </defs>
    <g clip-path="url(#pb38618baee)">
     <use style="fill:#808080;fill-opacity:0.5;stroke:#808080;stroke-opacity:0.5;" x="0" xlink:href="#m7053caa7f0" y="360"/>
    </g>
   </g>
   <g id="PolyCollection_3">
    <defs>
     <path d="M 263.297718 -113.727273 
L 263.297718 -54 
L 275.227886 -54 
L 275.227886 -113.727273 
L 275.227886 -113.727273 
L 263.297718 -113.727273 
z
" id="m3fe3b8fbe1" style="stroke:#808080;stroke-opacity:0.5;"/>
    </defs>
    <g clip-path="url(#pb38618baee)">
     <use style="fill:#808080;fill-opacity:0.5;stroke:#808080;stroke-opacity:0.5;" x="0" xlink:href="#m3fe3b8fbe1" y="360"/>
    </g>
   </g>
   <g id="PolyCollection_4">
    <defs>
     <path d="M 351.580961 -113.727273 
L 351.580961 -54 
L 368.283196 -54 
L 368.283196 -113.727273 
L 368.283196 -113.727273 
L 351.580961 -113.727273 
z
" id="m6c7830620f" style="stroke:#808080;stroke-opacity:0.5;"/>
    </defs>
    <g clip-path="url(#pb38618baee)">
     <use style="fill:#808080;fill-opacity:0.5;stroke:#808080;stroke-opacity:0.5;" x="0" xlink:href="#m6c7830620f" y="360"/>
    </g>
   </g>
   <g id="PolyCollection_5">
    <defs>
     <path d="M 401.687666 -113.727273 
L 401.687666 -54 
L 568.710016 -54 
L 568.710016 -113.727273 
L 568.710016 -113.727273 
L 401.687666 -113.727273 
z
" id="m80f0ebdc09" style="stroke:#808080;stroke-opacity:0.5;"/>
    </defs>
    <g clip-path="url(#pb38618baee)">
     <use style="fill:#808080;fill-opacity:0.5;stroke:#808080;stroke-opacity:0.5;" x="0" xlink:href="#m80f0ebdc09" y="360"/>
    </g>
   </g>
   <g id="patch_9">
    <path d="M 90 306 
L 90 246.272727 
" style="fill:none;stroke:#262626;stroke-linecap:square;stroke-linejoin:miter;stroke-width:1.25;"/>
   </g>
   <g id="patch_10">
    <path d="M 648 306 
L 648 246.272727 
" style="fill:none;stroke:#262626;stroke-linecap:square;stroke-linejoin:miter;stroke-width:1.25;"/>
   </g>
   <g id="patch_11">
    <path d="M 90 306 
L 648 306 
" style="fill:none;stroke:#262626;stroke-linecap:square;stroke-linejoin:miter;stroke-width:1.25;"/>
   </g>
   <g id="patch_12">
    <path d="M 90 246.272727 
L 648 246.272727 
" style="fill:none;stroke:#262626;stroke-linecap:square;stroke-linejoin:miter;stroke-width:1.25;"/>
   </g>
   <g id="text_13">
    <!-- First Target Heating -->
    <defs>
     <path d="M 54.40625 67.578125 
L 5.09375 67.578125 
L 5.09375 65 
C 12 65 13.09375 65 13.09375 60.53125 
L 13.09375 6.96875 
C 13.09375 2.5 12 2.5 5.09375 2.5 
L 5.09375 0 
C 8 0 13.59375 0 16.703125 0 
C 20.796875 0 25.59375 0 29.703125 0 
L 29.703125 2.5 
L 27.5 2.5 
C 19.90625 2.5 19.703125 3.484375 19.703125 7.0625 
L 19.703125 32.421875 
L 28.703125 32.421875 
C 38 32.421875 38.90625 29.140625 38.90625 20.8125 
L 40.703125 20.8125 
L 40.703125 46.671875 
L 38.90625 46.671875 
C 38.90625 38.28125 38 35 28.703125 35 
L 19.703125 35 
L 19.703125 61.109375 
C 19.703125 64.5 19.90625 65 23.90625 65 
L 36.796875 65 
C 51.90625 65 53.59375 58.828125 55 45.5625 
L 56.796875 45.5625 
z
" id="CMR17-70"/>
     <path d="M 11.09375 18.1875 
C 13 16.6875 16.296875 15 20.296875 15 
C 28.203125 15 35 21.203125 35 29.5 
C 35 32.09375 34.203125 36.09375 31.203125 39.203125 
C 34 42.0625 38.09375 43 40.40625 43 
C 40.796875 43 41.40625 43 41.90625 42.71875 
C 41.5 42.625 40.59375 42.234375 40.59375 40.703125 
C 40.59375 39.484375 41.5 38.609375 42.796875 38.609375 
C 44.296875 38.609375 45.09375 39.578125 45.09375 40.84375 
C 45.09375 42.671875 43.59375 44.59375 40.40625 44.59375 
C 36.40625 44.59375 32.90625 42.78125 30.09375 40.3125 
C 27.09375 43.015625 23.5 44 20.296875 44 
C 12.40625 44 5.59375 37.796875 5.59375 29.5 
C 5.59375 23.78125 8.90625 20.1875 9.90625 19.1875 
C 6.90625 15.6875 6.90625 11.609375 6.90625 11.109375 
C 6.90625 8.515625 7.90625 4.71875 11.296875 2.625 
C 6.09375 1.328125 2 -2.640625 2 -7.59375 
C 2 -14.734375 11.5 -20 22.90625 -20 
C 33.90625 -20 43.796875 -14.9375 43.796875 -7.484375 
C 43.796875 6 29 6 21.296875 6 
C 19 6 14.90625 6 14.40625 6.109375 
C 11.296875 6.609375 9.203125 9.40625 9.203125 12.90625 
C 9.203125 13.796875 9.203125 16 11.09375 18.1875 
z
M 20.296875 16.6875 
C 11.5 16.6875 11.5 27.5 11.5 29.515625 
C 11.5 31.5 11.5 42.3125 20.296875 42.3125 
C 29.09375 42.3125 29.09375 31.5 29.09375 29.515625 
C 29.09375 27.5 29.09375 16.6875 20.296875 16.6875 
z
M 22.90625 -18.296875 
C 12.90625 -18.296875 6 -13.046875 6 -7.59375 
C 6 -4.515625 7.703125 -1.640625 9.90625 -0.0625 
C 12.40625 1.625 13.40625 1.625 20.203125 1.625 
C 28.40625 1.625 39.796875 1.625 39.796875 -7.59375 
C 39.796875 -13.046875 32.90625 -18.296875 22.90625 -18.296875 
z
" id="CMR17-103"/>
     <path d="M 56.09375 61.015625 
C 56.09375 65.5 57.203125 65.5 64.09375 65.5 
L 64.09375 68 
C 61.203125 68 55.90625 68 52.796875 68 
C 49.703125 68 44.40625 68 41.5 68 
L 41.5 65.5 
C 48.40625 65.5 49.5 65.5 49.5 61 
L 49.5 36.578125 
L 19.703125 36.578125 
L 19.703125 61 
C 19.703125 65.5 20.796875 65.5 27.703125 65.5 
L 27.703125 68 
C 24.796875 68 19.5 68 16.40625 68 
C 13.296875 68 8 68 5.09375 68 
L 5.09375 65.5 
C 12 65.5 13.09375 65.5 13.09375 61.015625 
L 13.09375 6.984375 
C 13.09375 2.5 12 2.5 5.09375 2.5 
L 5.09375 0 
C 8 0 13.296875 0 16.40625 0 
C 19.5 0 24.796875 0 27.703125 0 
L 27.703125 2.5 
C 20.796875 2.5 19.703125 2.5 19.703125 6.96875 
L 19.703125 34 
L 49.5 34 
L 49.5 6.96875 
C 49.5 2.5 48.40625 2.5 41.5 2.5 
L 41.5 0 
C 44.40625 0 49.703125 0 52.796875 0 
C 55.90625 0 61.203125 0 64.09375 0 
L 64.09375 2.5 
C 57.203125 2.5 56.09375 2.5 56.09375 6.984375 
z
" id="CMR17-72"/>
    </defs>
    <g style="fill:#262626;" transform="translate(123.024076 276.136364)scale(0.11 -0.11)">
     <use transform="scale(0.996264)" xlink:href="#CMR17-70"/>
     <use transform="translate(59.983847 0)scale(0.996264)" xlink:href="#CMR17-105"/>
     <use transform="translate(84.854905 0)scale(0.996264)" xlink:href="#CMR17-114"/>
     <use transform="translate(120.135673 0)scale(0.996264)" xlink:href="#CMR17-115"/>
     <use transform="translate(155.937011 0)scale(0.996264)" xlink:href="#CMR17-116"/>
     <use transform="translate(221.293745 0)scale(0.996264)" xlink:href="#CMR17-84"/>
     <use transform="translate(279.99637 0)scale(0.996264)" xlink:href="#CMR17-97"/>
     <use transform="translate(325.686847 0)scale(0.996264)" xlink:href="#CMR17-114"/>
     <use transform="translate(360.967615 0)scale(0.996264)" xlink:href="#CMR17-103"/>
     <use transform="translate(406.658092 0)scale(0.996264)" xlink:href="#CMR17-101"/>
     <use transform="translate(447.143752 0)scale(0.996264)" xlink:href="#CMR17-116"/>
     <use transform="translate(512.500486 0)scale(0.996264)" xlink:href="#CMR17-72"/>
     <use transform="translate(581.572916 0)scale(0.996264)" xlink:href="#CMR17-101"/>
     <use transform="translate(622.058577 0)scale(0.996264)" xlink:href="#CMR17-97"/>
     <use transform="translate(667.749054 0)scale(0.996264)" xlink:href="#CMR17-116"/>
     <use transform="translate(703.029822 0)scale(0.996264)" xlink:href="#CMR17-105"/>
     <use transform="translate(727.90088 0)scale(0.996264)" xlink:href="#CMR17-110"/>
     <use transform="translate(778.79625 0)scale(0.996264)" xlink:href="#CMR17-103"/>
    </g>
   </g>
   <g id="text_14">
    <!-- DAQ -->
    <defs>
     <path d="M 5.203125 68 
L 5.203125 65.40625 
C 12.09375 65.40625 13.203125 65.40625 13.203125 60.9375 
L 13.203125 7.0625 
C 13.203125 2.59375 12.09375 2.59375 5.203125 2.59375 
L 5.203125 0 
L 37 0 
C 53.09375 0 66 14.734375 66 33.453125 
C 66 52.28125 53.296875 68 37 68 
z
M 23.796875 2.59375 
C 19.796875 2.59375 19.59375 3.078125 19.59375 6.46875 
L 19.59375 61.53125 
C 19.59375 64.921875 19.796875 65.40625 23.796875 65.40625 
L 35 65.40625 
C 43.296875 65.40625 58.59375 60.53125 58.59375 33.453125 
C 58.59375 19.40625 54.5 13.734375 52.59375 11.046875 
C 50.203125 7.96875 44.5 2.59375 35 2.59375 
z
" id="CMR17-68"/>
     <path d="M 47.296875 1.296875 
C 59.203125 6.375 67.296875 19.3125 67.296875 34.265625 
C 67.296875 54.671875 52.59375 70 36 70 
C 19 70 4.59375 54.5 4.59375 34.359375 
C 4.59375 14.5 19 -1 36 -1 
C 38.296875 -1 41.5 -0.703125 45.296875 0.59375 
C 47 -11.671875 48.09375 -19 56.703125 -19 
C 67.296875 -19 67.796875 -3.328125 67.796875 -0.515625 
C 67.796875 0.5 67.796875 1.1875 67.09375 1.1875 
C 66.59375 1.1875 66.5 0.484375 66.5 0.28125 
C 65.796875 -9.421875 60.40625 -11.4375 57.203125 -11.4375 
C 51.296875 -11.4375 49.203125 -6.15625 47.296875 1.296875 
z
M 30.59375 1.5625 
C 20.203125 4.84375 12 15.890625 12 34.359375 
C 12 57.984375 25.09375 68.203125 35.90625 68.203125 
C 47.09375 68.203125 59.90625 57.59375 59.90625 34.34375 
C 59.90625 17.5625 53.203125 8.234375 46.5 3.96875 
C 45 9.046875 42.59375 15 36.09375 15 
C 31.296875 15 28.59375 10.8125 28.59375 7.03125 
C 28.59375 4.75 29.5 2.859375 30.59375 1.5625 
z
M 44.90625 3 
C 40.90625 0.890625 37.703125 0.890625 36 0.890625 
C 31.5 0.890625 30.203125 4.921875 30.203125 7.09375 
C 30.203125 10.15625 32.296875 13.40625 36.09375 13.40625 
C 42.5 13.40625 44.09375 7.703125 44.90625 3 
z
" id="CMR17-81"/>
    </defs>
    <g style="fill:#262626;" transform="translate(239.075265 284.239986)rotate(-90)scale(0.11 -0.11)">
     <use transform="scale(0.996264)" xlink:href="#CMR17-68"/>
     <use transform="translate(67.791102 0)scale(0.996264)" xlink:href="#CMR17-65"/>
     <use transform="translate(134.261078 0)scale(0.996264)" xlink:href="#CMR17-81"/>
    </g>
   </g>
   <g id="text_15">
    <!-- HRS tripped -->
    <defs>
     <path d="M 39.203125 33.53125 
C 48.703125 35.4375 56.703125 41.8125 56.703125 49.78125 
C 56.703125 59.140625 46.09375 67.59375 32.09375 67.59375 
L 5.203125 67.59375 
L 5.203125 65 
C 12.09375 65 13.203125 65 13.203125 60.515625 
L 13.203125 6.484375 
C 13.203125 2 12.09375 2 5.203125 2 
L 5.203125 -0.40625 
C 8.09375 -0.40625 13.296875 -0.40625 16.40625 -0.40625 
C 19.5 -0.40625 24.703125 -0.40625 27.59375 -0.40625 
L 27.59375 2 
C 20.703125 2 19.59375 2 19.59375 6.515625 
L 19.59375 33 
L 31.296875 33 
C 37 33 40.203125 30.6875 41.59375 29.390625 
C 45.59375 25.5 45.59375 22.796875 45.59375 16 
C 45.59375 9.296875 45.59375 5.890625 48.59375 2.5 
C 52.40625 -1.59375 57.5 -2 59.703125 -2 
C 67.09375 -2 68.203125 6.1875 68.203125 7.859375 
C 68.203125 8.4375 68.203125 9.140625 67.296875 9.140625 
C 66.5 9.140625 66.40625 8.546875 66.40625 8.15625 
C 65.90625 1.75 63 -0.40625 59.90625 -0.40625 
C 54.40625 -0.40625 53.796875 5.859375 53.203125 11.9375 
C 52.90625 14.03125 52.703125 15.515625 52.5 17.703125 
C 51.90625 22.6875 51.09375 29.953125 39.203125 33.53125 
z
M 31 34.59375 
L 19.59375 34.59375 
L 19.59375 61.140625 
C 19.59375 64.515625 19.796875 65 23.796875 65 
L 31.09375 65 
C 39.40625 65 49.09375 62.140625 49.09375 49.84375 
C 49.09375 37.0625 38.5 34.59375 31 34.59375 
z
" id="CMR17-82"/>
     <path d="M 43.796875 67.03125 
C 43.796875 68.8125 43.703125 68.921875 43.09375 68.921875 
C 42.5 68.921875 42.296875 68.515625 41.90625 67.625 
L 38.90625 61.046875 
C 35.09375 66.515625 29.296875 69 23 69 
C 12.796875 69 4.59375 60.953125 4.59375 50.828125 
C 4.59375 47.75 5.296875 43.375 8.703125 39.21875 
C 12.40625 34.65625 15.90625 33.859375 23.90625 31.765625 
C 26.90625 30.96875 31.90625 29.671875 32.90625 29.28125 
C 38.59375 26.90625 41.59375 20.953125 41.59375 15.390625 
C 41.59375 8.234375 36.5 0.59375 27.796875 0.59375 
C 17.09375 0.59375 7.09375 6.546875 6.40625 20.484375 
C 6.296875 22.078125 6.203125 22.171875 5.5 22.171875 
C 4.703125 22.171875 4.59375 22.078125 4.59375 20.078125 
L 4.59375 -0.015625 
C 4.59375 -1.796875 4.703125 -1.90625 5.296875 -1.90625 
C 6 -1.90625 6.203125 -1.40625 7.59375 1.6875 
C 7.703125 1.984375 7.703125 2.1875 9.59375 5.953125 
C 14.59375 -0.609375 23 -2 27.796875 -2 
C 38.703125 -2 46.40625 7.046875 46.40625 17.5625 
C 46.40625 22.71875 44.5 26.6875 43.40625 28.484375 
C 39.203125 34.84375 34.703125 36.03125 29.90625 37.21875 
C 29.203125 37.53125 29 37.53125 23.40625 38.90625 
C 18 40.296875 15.703125 41 13.203125 43.6875 
C 10.40625 46.75 9.40625 49.9375 9.40625 53.109375 
C 9.40625 59.5625 14.59375 66.609375 23.09375 66.609375 
C 33.703125 66.609375 40.296875 59.15625 41.796875 46.765625 
C 42.09375 44.96875 42.203125 44.875 42.90625 44.875 
C 43.796875 44.875 43.796875 45.171875 43.796875 46.859375 
z
" id="CMR17-83"/>
    </defs>
    <g style="fill:#262626;" transform="translate(272.718338 305.144531)rotate(-90)scale(0.11 -0.11)">
     <use transform="scale(0.996264)" xlink:href="#CMR17-72"/>
     <use transform="translate(69.07243 0)scale(0.996264)" xlink:href="#CMR17-82"/>
     <use transform="translate(136.863532 0)scale(0.996264)" xlink:href="#CMR17-83"/>
     <use transform="translate(217.834868 0)scale(0.996264)" xlink:href="#CMR17-116"/>
     <use transform="translate(253.115636 0)scale(0.996264)" xlink:href="#CMR17-114"/>
     <use transform="translate(288.396404 0)scale(0.996264)" xlink:href="#CMR17-105"/>
     <use transform="translate(313.267462 0)scale(0.996264)" xlink:href="#CMR17-112"/>
     <use transform="translate(364.162832 0)scale(0.996264)" xlink:href="#CMR17-112"/>
     <use transform="translate(417.66064 0)scale(0.996264)" xlink:href="#CMR17-101"/>
     <use transform="translate(458.146301 0)scale(0.996264)" xlink:href="#CMR17-100"/>
    </g>
   </g>
   <g id="text_16">
    <!-- HRS tripped -->
    <g style="fill:#262626;" transform="translate(365.057838 305.144531)rotate(-90)scale(0.11 -0.11)">
     <use transform="scale(0.996264)" xlink:href="#CMR17-72"/>
     <use transform="translate(69.07243 0)scale(0.996264)" xlink:href="#CMR17-82"/>
     <use transform="translate(136.863532 0)scale(0.996264)" xlink:href="#CMR17-83"/>
     <use transform="translate(217.834868 0)scale(0.996264)" xlink:href="#CMR17-116"/>
     <use transform="translate(253.115636 0)scale(0.996264)" xlink:href="#CMR17-114"/>
     <use transform="translate(288.396404 0)scale(0.996264)" xlink:href="#CMR17-105"/>
     <use transform="translate(313.267462 0)scale(0.996264)" xlink:href="#CMR17-112"/>
     <use transform="translate(364.162832 0)scale(0.996264)" xlink:href="#CMR17-112"/>
     <use transform="translate(417.66064 0)scale(0.996264)" xlink:href="#CMR17-101"/>
     <use transform="translate(458.146301 0)scale(0.996264)" xlink:href="#CMR17-100"/>
    </g>
   </g>
   <g id="text_17">
    <!-- Second Target Heating -->
    <g style="fill:#262626;" transform="translate(425.616907 276.136364)scale(0.11 -0.11)">
     <use transform="scale(0.996264)" xlink:href="#CMR17-83"/>
     <use transform="translate(50.89537 0)scale(0.996264)" xlink:href="#CMR17-101"/>
     <use transform="translate(91.38103 0)scale(0.996264)" xlink:href="#CMR17-99"/>
     <use transform="translate(131.866691 0)scale(0.996264)" xlink:href="#CMR17-111"/>
     <use transform="translate(177.557168 0)scale(0.996264)" xlink:href="#CMR17-110"/>
     <use transform="translate(228.452538 0)scale(0.996264)" xlink:href="#CMR17-100"/>
     <use transform="translate(309.423874 0)scale(0.996264)" xlink:href="#CMR17-84"/>
     <use transform="translate(368.126499 0)scale(0.996264)" xlink:href="#CMR17-97"/>
     <use transform="translate(413.816976 0)scale(0.996264)" xlink:href="#CMR17-114"/>
     <use transform="translate(449.097744 0)scale(0.996264)" xlink:href="#CMR17-103"/>
     <use transform="translate(494.788221 0)scale(0.996264)" xlink:href="#CMR17-101"/>
     <use transform="translate(535.273881 0)scale(0.996264)" xlink:href="#CMR17-116"/>
     <use transform="translate(600.630616 0)scale(0.996264)" xlink:href="#CMR17-72"/>
     <use transform="translate(669.703045 0)scale(0.996264)" xlink:href="#CMR17-101"/>
     <use transform="translate(710.188706 0)scale(0.996264)" xlink:href="#CMR17-97"/>
     <use transform="translate(755.879183 0)scale(0.996264)" xlink:href="#CMR17-116"/>
     <use transform="translate(791.159951 0)scale(0.996264)" xlink:href="#CMR17-105"/>
     <use transform="translate(816.031009 0)scale(0.996264)" xlink:href="#CMR17-110"/>
     <use transform="translate(866.926379 0)scale(0.996264)" xlink:href="#CMR17-103"/>
    </g>
   </g>
  </g>
 </g>
 <defs>
  <clipPath id="p51cd0928ad">
   <rect height="179.181818" width="558" x="90" y="43.2"/>
  </clipPath>
  <clipPath id="pb38618baee">
   <rect height="59.727273" width="558" x="90" y="246.272727"/>
  </clipPath>
 </defs>
</svg>
