<?xml version="1.0" encoding="utf-8" standalone="no"?>
<!DOCTYPE svg PUBLIC "-//W3C//DTD SVG 1.1//EN"
  "http://www.w3.org/Graphics/SVG/1.1/DTD/svg11.dtd">
<!-- Created with matplotlib (https://matplotlib.org/) -->
<svg height="576pt" version="1.1" viewBox="0 0 648 576" width="648pt" xmlns="http://www.w3.org/2000/svg" xmlns:xlink="http://www.w3.org/1999/xlink">
 <defs>
  <style type="text/css">
*{stroke-linecap:butt;stroke-linejoin:round;}
  </style>
 </defs>
 <g id="figure_1">
  <g id="patch_1">
   <path d="M 0 576 
L 648 576 
L 648 0 
L 0 0 
z
" style="fill:#ffffff;"/>
  </g>
  <g id="axes_1">
   <g id="patch_2">
    <path d="M 41.157052 540.256531 
L 625.691474 540.256531 
L 625.691474 18.148862 
L 41.157052 18.148862 
z
" style="fill:#ffffff;"/>
   </g>
   <g id="patch_3">
    <path clip-path="url(#p2b1276a8f8)" d="M 114.223855 409.729614 
L 479.557868 435.834997 
L 494.171229 148.675779 
L 187.290658 109.517704 
z
" style="fill:#89bad9;stroke:#89bad9;stroke-linejoin:miter;"/>
   </g>
   <g id="matplotlib.axis_1">
    <g id="text_1">
     <!-- $X$ -->
     <defs>
      <path d="M 47.5 40.5625 
L 38.09375 62.40625 
C 39.40625 64.796875 42.40625 65.1875 43.59375 65.296875 
C 44.203125 65.296875 45.296875 65.296875 45.296875 67.0625 
C 45.296875 68.1875 44.40625 68.1875 43.796875 68.1875 
C 42.09375 68.1875 40.09375 68.1875 38.40625 68.1875 
L 32.59375 68.1875 
C 26.5 68.1875 22.09375 68.1875 22 68.1875 
C 21.203125 68.1875 20.203125 68.1875 20.203125 66.296875 
C 20.203125 65.296875 21.09375 65.296875 22.40625 65.296875 
C 28.203125 65.296875 28.59375 64.296875 29.59375 61.90625 
L 41.5 34.140625 
L 19.796875 10.828125 
C 16.203125 6.90625 11.90625 3.09375 4.5 3.09375 
C 3.296875 3 2.5 3 2.5 1.0625 
C 2.5 0.75 2.59375 0 3.703125 0 
C 5.09375 0 6.59375 0 8 0 
L 12.703125 0 
C 15.90625 0 19.40625 0 22.5 0 
C 23.203125 0 24.40625 0 24.40625 1.796875 
C 24.40625 2.796875 23.703125 2.890625 23.09375 2.890625 
C 21.09375 3.09375 19.796875 4.1875 19.796875 5.78125 
C 19.796875 7.484375 21 8.703125 23.90625 11.6875 
L 32.796875 21.375 
C 35 23.6875 40.296875 29.46875 42.5 31.65625 
L 53 7.078125 
C 53.09375 6.890625 53.5 5.890625 53.5 5.78125 
C 53.5 4.890625 51.296875 3.09375 48.09375 3.09375 
C 47.5 3.09375 46.40625 3.09375 46.40625 1.109375 
C 46.40625 0 47.40625 0 47.90625 0 
C 49.59375 0 51.59375 0 53.296875 0 
L 64.296875 0 
C 66.09375 0 68 0 69.703125 0 
C 70.40625 0 71.5 0 71.5 2.03125 
C 71.5 3.09375 70.5 3.09375 69.59375 3.09375 
C 63.59375 3.09375 63.40625 3.59375 61.703125 7.265625 
L 48.5 38.140625 
L 61.203125 51.8125 
C 62.203125 52.828125 64.5 55.34375 65.40625 56.34375 
C 69.703125 60.875 73.703125 65 81.796875 65 
C 82.796875 65.296875 83.796875 65.296875 83.796875 67.0625 
C 83.796875 68.1875 82.90625 68.1875 82.5 68.1875 
C 81.09375 68.1875 79.59375 68.1875 78.203125 68.1875 
L 73.59375 68.1875 
C 70.40625 68.1875 66.90625 68.1875 63.796875 68.1875 
C 63.09375 68.1875 61.90625 68.1875 61.90625 66.390625 
C 61.90625 65.390625 62.59375 65.296875 63.203125 65.296875 
C 64.796875 65.109375 66.5 64.3125 66.5 62.40625 
L 66.40625 62.21875 
C 66.296875 61.515625 66.09375 60.515625 65 59.328125 
z
" id="CMMI12-88"/>
     </defs>
     <g style="fill:#262626;" transform="translate(325.328242 558.093527)scale(0.2 -0.2)">
      <use transform="scale(0.996264)" xlink:href="#CMMI12-88"/>
     </g>
    </g>
   </g>
   <g id="matplotlib.axis_2">
    <g id="text_2">
     <!-- $Y$ -->
     <defs>
      <path d="M 58.796875 56.953125 
L 61.09375 59.234375 
C 65.5 63.71875 69.203125 64.828125 72.703125 65.109375 
C 73.796875 65.203125 74.703125 65.296875 74.703125 67 
C 74.703125 68 73.703125 68 73.5 68 
C 72.296875 68 71 68 69.796875 68 
L 65.703125 68 
C 62.796875 68 59.703125 68 56.90625 68 
C 56.203125 68 55.09375 68 55.09375 66.03125 
C 55.09375 65.09375 56.09375 65 56.40625 65 
C 59.40625 65 59.40625 63.5 59.40625 62.90625 
C 59.40625 61.8125 58.59375 60.3125 56.59375 58.015625 
L 32.796875 30.765625 
L 21.5 61.109375 
C 20.90625 62.5 20.90625 62.703125 20.90625 62.90625 
C 20.90625 65 25 65 26.203125 65 
C 27.40625 65 28.5 65 28.5 66.859375 
C 28.5 68 27.59375 68 27 68 
C 25.296875 68 23.296875 68 21.59375 68 
L 10.5 68 
C 8.703125 68 6.796875 68 5.09375 68 
C 4.40625 68 3.296875 68 3.296875 66.03125 
C 3.296875 65 4.203125 65 5.703125 65 
C 10.59375 65 11.5 64.09375 12.40625 61.8125 
L 24.796875 28.671875 
C 24.90625 28.375 25.203125 27.265625 25.203125 26.96875 
C 25.203125 26.671875 20.296875 7.0625 20 6.0625 
C 19.203125 3.390625 18.203125 2.890625 11.796875 2.890625 
C 10.09375 2.890625 9.296875 2.890625 9.296875 1 
C 9.296875 0 10.40625 0 10.703125 0 
C 12.5 0 14.59375 0 16.5 0 
L 28.296875 0 
C 30.09375 0 32.203125 0 34 0 
C 34.703125 0 35.90625 0 35.90625 1.796875 
C 35.90625 2.890625 35.203125 2.890625 33.5 2.890625 
C 27.296875 2.890625 27.296875 3.59375 27.296875 4.6875 
C 27.296875 5.390625 28.09375 8.5625 28.59375 10.5625 
L 32.203125 24.90625 
C 32.796875 26.984375 32.796875 27.171875 33.703125 28.171875 
z
" id="CMMI12-89"/>
     </defs>
     <g style="fill:#262626;" transform="translate(33.281419 284.862556)rotate(-90)scale(0.2 -0.2)">
      <use transform="scale(0.996264)" xlink:href="#CMMI12-89"/>
     </g>
    </g>
   </g>
   <g id="PathCollection_1">
    <defs>
     <path d="M 0 2.5 
C 0.663008 2.5 1.29895 2.236584 1.767767 1.767767 
C 2.236584 1.29895 2.5 0.663008 2.5 0 
C 2.5 -0.663008 2.236584 -1.29895 1.767767 -1.767767 
C 1.29895 -2.236584 0.663008 -2.5 0 -2.5 
C -0.663008 -2.5 -1.29895 -2.236584 -1.767767 -1.767767 
C -2.236584 -1.29895 -2.5 -0.663008 -2.5 0 
C -2.5 0.663008 -2.236584 1.29895 -1.767767 1.767767 
C -1.29895 2.236584 -0.663008 2.5 0 2.5 
z
" id="mc86850ca6b" style="stroke:#ff0000;"/>
    </defs>
    <g clip-path="url(#p2b1276a8f8)">
     <use style="fill:#ff0000;stroke:#ff0000;" x="114.223855" xlink:href="#mc86850ca6b" y="409.729614"/>
    </g>
   </g>
   <g id="PathCollection_2">
    <g clip-path="url(#p2b1276a8f8)">
     <use style="fill:#ff0000;stroke:#ff0000;" x="479.557868" xlink:href="#mc86850ca6b" y="435.834997"/>
    </g>
   </g>
   <g id="PathCollection_3">
    <g clip-path="url(#p2b1276a8f8)">
     <use style="fill:#ff0000;stroke:#ff0000;" x="494.171229" xlink:href="#mc86850ca6b" y="148.675779"/>
    </g>
   </g>
   <g id="PathCollection_4">
    <g clip-path="url(#p2b1276a8f8)">
     <use style="fill:#ff0000;stroke:#ff0000;" x="187.290658" xlink:href="#mc86850ca6b" y="109.517704"/>
    </g>
   </g>
   <g id="line2d_1">
    <path clip-path="url(#p2b1276a8f8)" d="M 114.223855 409.729614 
L 117.914097 409.993304 
L 121.60434 410.256995 
L 125.294583 410.520686 
L 128.984825 410.784376 
L 132.675068 411.048067 
L 136.36531 411.311758 
L 140.055553 411.575449 
L 143.745795 411.839139 
L 147.436038 412.10283 
L 151.126281 412.366521 
L 154.816523 412.630212 
L 158.506766 412.893902 
L 162.197008 413.157593 
L 165.887251 413.421284 
L 169.577493 413.684975 
L 173.267736 413.948665 
L 176.957978 414.212356 
L 180.648221 414.476047 
L 184.338464 414.739738 
L 188.028706 415.003428 
L 191.718949 415.267119 
L 195.409191 415.53081 
L 199.099434 415.794501 
L 202.789676 416.058191 
L 206.479919 416.321882 
L 210.170162 416.585573 
L 213.860404 416.849264 
L 217.550647 417.112954 
L 221.240889 417.376645 
L 224.931132 417.640336 
L 228.621374 417.904026 
L 232.311617 418.167717 
L 236.001859 418.431408 
L 239.692102 418.695099 
L 243.382345 418.958789 
L 247.072587 419.22248 
L 250.76283 419.486171 
L 254.453072 419.749862 
L 258.143315 420.013552 
L 261.833557 420.277243 
L 265.5238 420.540934 
L 269.214042 420.804625 
L 272.904285 421.068315 
L 276.594528 421.332006 
L 280.28477 421.595697 
L 283.975013 421.859388 
L 287.665255 422.123078 
L 291.355498 422.386769 
L 295.04574 422.65046 
L 298.735983 422.914151 
L 302.426226 423.177841 
L 306.116468 423.441532 
L 309.806711 423.705223 
L 313.496953 423.968914 
L 317.187196 424.232604 
L 320.877438 424.496295 
L 324.567681 424.759986 
L 328.257923 425.023677 
L 331.948166 425.287367 
L 335.638409 425.551058 
L 339.328651 425.814749 
L 343.018894 426.078439 
L 346.709136 426.34213 
L 350.399379 426.605821 
L 354.089621 426.869512 
L 357.779864 427.133202 
L 361.470107 427.396893 
L 365.160349 427.660584 
L 368.850592 427.924275 
L 372.540834 428.187965 
L 376.231077 428.451656 
L 379.921319 428.715347 
L 383.611562 428.979038 
L 387.301804 429.242728 
L 390.992047 429.506419 
L 394.68229 429.77011 
L 398.372532 430.033801 
L 402.062775 430.297491 
L 405.753017 430.561182 
L 409.44326 430.824873 
L 413.133502 431.088564 
L 416.823745 431.352254 
L 420.513987 431.615945 
L 424.20423 431.879636 
L 427.894473 432.143327 
L 431.584715 432.407017 
L 435.274958 432.670708 
L 438.9652 432.934399 
L 442.655443 433.198089 
L 446.345685 433.46178 
L 450.035928 433.725471 
L 453.726171 433.989162 
L 457.416413 434.252852 
L 461.106656 434.516543 
L 464.796898 434.780234 
L 468.487141 435.043925 
L 472.177383 435.307615 
L 475.867626 435.571306 
L 479.557868 435.834997 
" style="fill:none;stroke:#ff0000;stroke-linecap:round;"/>
   </g>
   <g id="line2d_2">
    <path clip-path="url(#p2b1276a8f8)" d="M 479.557868 435.834997 
L 479.705478 432.934399 
L 479.853088 430.033801 
L 480.000698 427.133202 
L 480.148307 424.232604 
L 480.295917 421.332006 
L 480.443527 418.431408 
L 480.591136 415.53081 
L 480.738746 412.630212 
L 480.886356 409.729614 
L 481.033966 406.829015 
L 481.181575 403.928417 
L 481.329185 401.027819 
L 481.476795 398.127221 
L 481.624404 395.226623 
L 481.772014 392.326025 
L 481.919624 389.425426 
L 482.067233 386.524828 
L 482.214843 383.62423 
L 482.362453 380.723632 
L 482.510063 377.823034 
L 482.657672 374.922436 
L 482.805282 372.021837 
L 482.952892 369.121239 
L 483.100501 366.220641 
L 483.248111 363.320043 
L 483.395721 360.419445 
L 483.54333 357.518847 
L 483.69094 354.618249 
L 483.83855 351.71765 
L 483.98616 348.817052 
L 484.133769 345.916454 
L 484.281379 343.015856 
L 484.428989 340.115258 
L 484.576598 337.21466 
L 484.724208 334.314061 
L 484.871818 331.413463 
L 485.019427 328.512865 
L 485.167037 325.612267 
L 485.314647 322.711669 
L 485.462257 319.811071 
L 485.609866 316.910472 
L 485.757476 314.009874 
L 485.905086 311.109276 
L 486.052695 308.208678 
L 486.200305 305.30808 
L 486.347915 302.407482 
L 486.495524 299.506884 
L 486.643134 296.606285 
L 486.790744 293.705687 
L 486.938354 290.805089 
L 487.085963 287.904491 
L 487.233573 285.003893 
L 487.381183 282.103295 
L 487.528792 279.202696 
L 487.676402 276.302098 
L 487.824012 273.4015 
L 487.971622 270.500902 
L 488.119231 267.600304 
L 488.266841 264.699706 
L 488.414451 261.799108 
L 488.56206 258.898509 
L 488.70967 255.997911 
L 488.85728 253.097313 
L 489.004889 250.196715 
L 489.152499 247.296117 
L 489.300109 244.395519 
L 489.447719 241.49492 
L 489.595328 238.594322 
L 489.742938 235.693724 
L 489.890548 232.793126 
L 490.038157 229.892528 
L 490.185767 226.99193 
L 490.333377 224.091331 
L 490.480986 221.190733 
L 490.628596 218.290135 
L 490.776206 215.389537 
L 490.923816 212.488939 
L 491.071425 209.588341 
L 491.219035 206.687743 
L 491.366645 203.787144 
L 491.514254 200.886546 
L 491.661864 197.985948 
L 491.809474 195.08535 
L 491.957083 192.184752 
L 492.104693 189.284154 
L 492.252303 186.383555 
L 492.399913 183.482957 
L 492.547522 180.582359 
L 492.695132 177.681761 
L 492.842742 174.781163 
L 492.990351 171.880565 
L 493.137961 168.979967 
L 493.285571 166.079368 
L 493.433181 163.17877 
L 493.58079 160.278172 
L 493.7284 157.377574 
L 493.87601 154.476976 
L 494.023619 151.576378 
L 494.171229 148.675779 
" style="fill:none;stroke:#ff0000;stroke-linecap:round;"/>
   </g>
   <g id="line2d_3">
    <path clip-path="url(#p2b1276a8f8)" d="M 494.171229 148.675779 
L 491.071425 148.280243 
L 487.971622 147.884707 
L 484.871818 147.489171 
L 481.772014 147.093635 
L 478.67221 146.698099 
L 475.572407 146.302563 
L 472.472603 145.907027 
L 469.372799 145.511491 
L 466.272995 145.115954 
L 463.173192 144.720418 
L 460.073388 144.324882 
L 456.973584 143.929346 
L 453.87378 143.53381 
L 450.773976 143.138274 
L 447.674173 142.742738 
L 444.574369 142.347202 
L 441.474565 141.951666 
L 438.374761 141.556129 
L 435.274958 141.160593 
L 432.175154 140.765057 
L 429.07535 140.369521 
L 425.975546 139.973985 
L 422.875743 139.578449 
L 419.775939 139.182913 
L 416.676135 138.787377 
L 413.576331 138.391841 
L 410.476528 137.996304 
L 407.376724 137.600768 
L 404.27692 137.205232 
L 401.177116 136.809696 
L 398.077313 136.41416 
L 394.977509 136.018624 
L 391.877705 135.623088 
L 388.777901 135.227552 
L 385.678098 134.832015 
L 382.578294 134.436479 
L 379.47849 134.040943 
L 376.378686 133.645407 
L 373.278883 133.249871 
L 370.179079 132.854335 
L 367.079275 132.458799 
L 363.979471 132.063263 
L 360.879668 131.667727 
L 357.779864 131.27219 
L 354.68006 130.876654 
L 351.580256 130.481118 
L 348.480453 130.085582 
L 345.380649 129.690046 
L 342.280845 129.29451 
L 339.181041 128.898974 
L 336.081238 128.503438 
L 332.981434 128.107902 
L 329.88163 127.712365 
L 326.781826 127.316829 
L 323.682023 126.921293 
L 320.582219 126.525757 
L 317.482415 126.130221 
L 314.382611 125.734685 
L 311.282808 125.339149 
L 308.183004 124.943613 
L 305.0832 124.548077 
L 301.983396 124.15254 
L 298.883593 123.757004 
L 295.783789 123.361468 
L 292.683985 122.965932 
L 289.584181 122.570396 
L 286.484378 122.17486 
L 283.384574 121.779324 
L 280.28477 121.383788 
L 277.184966 120.988252 
L 274.085163 120.592715 
L 270.985359 120.197179 
L 267.885555 119.801643 
L 264.785751 119.406107 
L 261.685948 119.010571 
L 258.586144 118.615035 
L 255.48634 118.219499 
L 252.386536 117.823963 
L 249.286733 117.428427 
L 246.186929 117.03289 
L 243.087125 116.637354 
L 239.987321 116.241818 
L 236.887518 115.846282 
L 233.787714 115.450746 
L 230.68791 115.05521 
L 227.588106 114.659674 
L 224.488303 114.264138 
L 221.388499 113.868602 
L 218.288695 113.473065 
L 215.188891 113.077529 
L 212.089088 112.681993 
L 208.989284 112.286457 
L 205.88948 111.890921 
L 202.789676 111.495385 
L 199.689873 111.099849 
L 196.590069 110.704313 
L 193.490265 110.308777 
L 190.390461 109.91324 
L 187.290658 109.517704 
" style="fill:none;stroke:#ff0000;stroke-linecap:round;"/>
   </g>
   <g id="line2d_4">
    <path clip-path="url(#p2b1276a8f8)" d="M 187.290658 109.517704 
L 186.552609 112.550148 
L 185.814561 115.582591 
L 185.076512 118.615035 
L 184.338464 121.647478 
L 183.600415 124.679922 
L 182.862367 127.712365 
L 182.124318 130.744809 
L 181.38627 133.777253 
L 180.648221 136.809696 
L 179.910172 139.84214 
L 179.172124 142.874583 
L 178.434075 145.907027 
L 177.696027 148.93947 
L 176.957978 151.971914 
L 176.21993 155.004357 
L 175.481881 158.036801 
L 174.743833 161.069244 
L 174.005784 164.101688 
L 173.267736 167.134131 
L 172.529687 170.166575 
L 171.791639 173.199018 
L 171.05359 176.231462 
L 170.315542 179.263905 
L 169.577493 182.296349 
L 168.839445 185.328792 
L 168.101396 188.361236 
L 167.363348 191.39368 
L 166.625299 194.426123 
L 165.887251 197.458567 
L 165.149202 200.49101 
L 164.411154 203.523454 
L 163.673105 206.555897 
L 162.935057 209.588341 
L 162.197008 212.620784 
L 161.45896 215.653228 
L 160.720911 218.685671 
L 159.982863 221.718115 
L 159.244814 224.750558 
L 158.506766 227.783002 
L 157.768717 230.815445 
L 157.030669 233.847889 
L 156.29262 236.880332 
L 155.554572 239.912776 
L 154.816523 242.94522 
L 154.078475 245.977663 
L 153.340426 249.010107 
L 152.602378 252.04255 
L 151.864329 255.074994 
L 151.126281 258.107437 
L 150.388232 261.139881 
L 149.650183 264.172324 
L 148.912135 267.204768 
L 148.174086 270.237211 
L 147.436038 273.269655 
L 146.697989 276.302098 
L 145.959941 279.334542 
L 145.221892 282.366985 
L 144.483844 285.399429 
L 143.745795 288.431872 
L 143.007747 291.464316 
L 142.269698 294.496759 
L 141.53165 297.529203 
L 140.793601 300.561647 
L 140.055553 303.59409 
L 139.317504 306.626534 
L 138.579456 309.658977 
L 137.841407 312.691421 
L 137.103359 315.723864 
L 136.36531 318.756308 
L 135.627262 321.788751 
L 134.889213 324.821195 
L 134.151165 327.853638 
L 133.413116 330.886082 
L 132.675068 333.918525 
L 131.937019 336.950969 
L 131.198971 339.983412 
L 130.460922 343.015856 
L 129.722874 346.048299 
L 128.984825 349.080743 
L 128.246777 352.113186 
L 127.508728 355.14563 
L 126.77068 358.178074 
L 126.032631 361.210517 
L 125.294583 364.242961 
L 124.556534 367.275404 
L 123.818486 370.307848 
L 123.080437 373.340291 
L 122.342389 376.372735 
L 121.60434 379.405178 
L 120.866292 382.437622 
L 120.128243 385.470065 
L 119.390194 388.502509 
L 118.652146 391.534952 
L 117.914097 394.567396 
L 117.176049 397.599839 
L 116.438 400.632283 
L 115.699952 403.664726 
L 114.961903 406.69717 
L 114.223855 409.729614 
" style="fill:none;stroke:#ff0000;stroke-linecap:round;"/>
   </g>
   <g id="line2d_5">
    <path clip-path="url(#p2b1276a8f8)" d="M 41.157052 404.508537 
L 625.691474 446.27715 
L 625.691474 446.27715 
" style="fill:none;stroke:#ff0000;stroke-dasharray:3.7,1.6;stroke-dashoffset:0;"/>
   </g>
   <g id="line2d_6">
    <path clip-path="url(#p2b1276a8f8)" d="M 472.374066 577 
L 501.78814 -1 
L 501.78814 -1 
" style="fill:none;stroke:#ff0000;stroke-dasharray:3.7,1.6;stroke-dashoffset:0;"/>
   </g>
   <g id="line2d_7">
    <path clip-path="url(#p2b1276a8f8)" d="M 41.157052 90.871002 
L 625.691474 165.457812 
L 625.691474 165.457812 
" style="fill:none;stroke:#ff0000;stroke-dasharray:3.7,1.6;stroke-dashoffset:0;"/>
   </g>
   <g id="line2d_8">
    <path clip-path="url(#p2b1276a8f8)" d="M 73.512904 577 
L 214.188909 -1 
L 214.188909 -1 
" style="fill:none;stroke:#ff0000;stroke-dasharray:3.7,1.6;stroke-dashoffset:0;"/>
   </g>
   <g id="patch_4">
    <path d="M 41.157052 540.256531 
L 41.157052 18.148862 
" style="fill:none;stroke:#262626;stroke-linecap:square;stroke-linejoin:miter;stroke-width:1.25;"/>
   </g>
   <g id="patch_5">
    <path d="M 625.691474 540.256531 
L 625.691474 18.148862 
" style="fill:none;stroke:#262626;stroke-linecap:square;stroke-linejoin:miter;stroke-width:1.25;"/>
   </g>
   <g id="patch_6">
    <path d="M 41.157052 540.256531 
L 625.691474 540.256531 
" style="fill:none;stroke:#262626;stroke-linecap:square;stroke-linejoin:miter;stroke-width:1.25;"/>
   </g>
   <g id="patch_7">
    <path d="M 41.157052 18.148862 
L 625.691474 18.148862 
" style="fill:none;stroke:#262626;stroke-linecap:square;stroke-linejoin:miter;stroke-width:1.25;"/>
   </g>
   <g id="text_3">
    <!-- $f^{AB}_j(X)$ -->
    <defs>
     <path d="M 44.59375 40.09375 
C 46.59375 40.09375 47.40625 40.09375 47.40625 42 
C 47.40625 43 46.59375 43 44.796875 43 
L 36.703125 43 
C 38.59375 53.578125 40 60.890625 40.796875 64.171875 
C 41.40625 66.640625 43.5 69 46.09375 69 
C 48.203125 69 50.296875 68.09375 51.296875 67.15625 
C 47.40625 66.75 46.203125 63.78125 46.203125 62.015625 
C 46.203125 59.953125 47.703125 58.734375 49.59375 58.734375 
C 51.59375 58.734375 54.59375 60.46875 54.59375 64.359375 
C 54.59375 68.640625 50.40625 71 46 71 
C 41.703125 71 37.5 67.71875 35.5 63.71875 
C 33.703125 60.125 32.703125 56.421875 30.40625 43 
L 23.703125 43 
C 21.796875 43 20.796875 43 20.796875 41.203125 
C 20.796875 40.09375 21.40625 40.09375 23.40625 40.09375 
L 29.796875 40.09375 
C 28 30.875 23.90625 8.46875 21.59375 -2.140625 
C 19.90625 -10.765625 18.40625 -18 13.40625 -18 
C 13.09375 -18 10.203125 -18 8.40625 -16.109375 
C 13.5 -15.703125 13.5 -11.34375 13.5 -11.25 
C 13.5 -9.265625 12 -8.078125 10.09375 -8.078125 
C 8.09375 -8.078125 5.09375 -9.765625 5.09375 -13.546875 
C 5.09375 -17.8125 9.5 -20 13.40625 -20 
C 23.59375 -20 27.796875 -1.84375 28.90625 3.109375 
C 30.703125 10.75 35.59375 37.125 36.09375 40.09375 
z
" id="CMMI12-102"/>
     <path d="M 17 10.796875 
C 13.5 4.90625 10.09375 2.90625 5.296875 2.90625 
C 4.203125 2.8125 3.40625 2.8125 3.40625 0.90625 
C 3.40625 0.375 3.90625 0 4.59375 0 
C 6.40625 0 10.90625 0 12.703125 0 
C 15.59375 0 18.796875 0 21.59375 0 
C 22.203125 0 23.40625 0 23.40625 1.90625 
C 23.40625 2.8125 22.59375 2.90625 22 2.90625 
C 19.703125 2.90625 17.796875 3.6875 17.796875 6.0625 
C 17.796875 7.4375 18.40625 8.53125 19.703125 10.703125 
L 27.296875 23.109375 
L 52.796875 23.109375 
C 52.90625 22.234375 52.90625 21.453125 53 20.5625 
C 53.296875 18 54.5 7.734375 54.5 5.875 
C 54.5 2.90625 49.40625 2.90625 47.796875 2.90625 
C 46.703125 2.90625 45.59375 2.90625 45.59375 1.09375 
C 45.59375 0 46.5 0 47.09375 0 
C 48.796875 0 50.796875 0 52.5 0 
L 58.203125 0 
C 64.296875 0 68.703125 0 68.796875 0 
C 69.5 0 70.59375 0 70.59375 1.90625 
C 70.59375 2.90625 69.703125 2.90625 68.203125 2.90625 
C 62.703125 2.90625 62.59375 3.8125 62.296875 6.78125 
L 56.203125 68.8125 
C 56 70.796875 55.59375 71 54.5 71 
C 53.5 71 52.90625 70.796875 52 69.296875 
z
M 29 26 
L 49.09375 59.671875 
L 52.5 26 
z
" id="CMMI12-65"/>
     <path d="M 36.59375 61.265625 
C 37.5 65 37.90625 65 41.796875 65 
L 54.796875 65 
C 66.09375 65 66.09375 55.375 66.09375 54.453125 
C 66.09375 46.34375 58 36 44.796875 36 
L 30.40625 36 
z
M 53.5 35.546875 
C 64.40625 37.53125 74.296875 45.09375 74.296875 54.265625 
C 74.296875 62.03125 67.40625 68 56.09375 68 
L 24 68 
C 22.09375 68 21.203125 68 21.203125 66.03125 
C 21.203125 65 22.09375 65 23.59375 65 
C 29.703125 65 29.703125 64.25 29.703125 63.1875 
C 29.703125 63 29.703125 62.390625 29.296875 60.890625 
L 15.796875 7.375 
C 14.90625 3.890625 14.703125 2.890625 7.703125 2.890625 
C 5.796875 2.890625 4.796875 2.890625 4.796875 1.09375 
C 4.796875 0 5.40625 0 7.40625 0 
L 41.703125 0 
C 57 0 68.796875 11.546875 68.796875 21.609375 
C 68.796875 29.78125 61.59375 34.75 53.5 35.546875 
z
M 39.296875 2.890625 
L 25.796875 2.890625 
C 24.40625 2.890625 24.203125 2.890625 23.59375 3 
C 22.5 3.09375 22.40625 3.296875 22.40625 4.078125 
C 22.40625 4.765625 22.59375 5.359375 22.796875 6.234375 
L 29.796875 34 
L 48.59375 34 
C 60.40625 34 60.40625 23.171875 60.40625 22.390625 
C 60.40625 12.9375 51.703125 2.890625 39.296875 2.890625 
z
" id="CMMI12-66"/>
     <path d="M 35 31.6875 
C 35.40625 33.296875 35.40625 34.671875 35.40625 35.078125 
C 35.40625 40.828125 31.09375 44 26.59375 44 
C 16.5 44 11.09375 29.515625 11.09375 28.828125 
C 11.09375 28.328125 11.5 27.9375 12.09375 27.9375 
C 12.90625 27.9375 13 28.328125 13.5 29.3125 
C 17.5 38.9375 22.5 42.015625 26.296875 42.015625 
C 28.40625 42.015625 29.5 40.90625 29.5 37.453125 
C 29.5 35.078125 29.203125 34.078125 28.796875 32.296875 
L 19.296875 -5.109375 
C 17.40625 -12.4375 12.703125 -18 7.203125 -18 
C 6.796875 -18 4.703125 -18 2.796875 -17 
C 5.203125 -16.5 7.09375 -14.625 7.09375 -12.25 
C 7.09375 -10.65625 5.90625 -9.0625 3.703125 -9.0625 
C 1.09375 -9.0625 -1.296875 -11.25 -1.296875 -14.234375 
C -1.296875 -18.296875 3.09375 -20 7.203125 -20 
C 14.09375 -20 23.203125 -14.9375 25.703125 -5 
z
M 39.09375 62.703125 
C 39.09375 65.203125 37 66 35.796875 66 
C 33.09375 66 30.796875 63.40625 30.796875 61.203125 
C 30.796875 59.71875 32 57.921875 34.203125 57.921875 
C 36.5 57.921875 39.09375 60.109375 39.09375 62.703125 
z
" id="CMMI12-106"/>
     <path d="M 30.59375 -24.390625 
C 30.59375 -24.296875 30.59375 -24.09375 30.296875 -23.796875 
C 25.703125 -19.125 13.40625 -6.359375 13.40625 24.703125 
C 13.40625 55.765625 25.5 68.421875 30.40625 73.390625 
C 30.40625 73.5 30.59375 73.703125 30.59375 74 
C 30.59375 74.296875 30.296875 74.5 29.90625 74.5 
C 28.796875 74.5 20.296875 67.125 15.40625 56.15625 
C 10.40625 45.109375 9 34.359375 9 24.8125 
C 9 17.625 9.703125 5.484375 15.703125 -7.359375 
C 20.5 -17.734375 28.703125 -25 29.90625 -25 
C 30.40625 -25 30.59375 -24.796875 30.59375 -24.390625 
z
" id="CMR17-40"/>
     <path d="M 26.296875 24.703125 
C 26.296875 31.875 25.59375 44.015625 19.59375 56.859375 
C 14.796875 67.234375 6.59375 74.5 5.40625 74.5 
C 5.09375 74.5 4.703125 74.390625 4.703125 73.890625 
C 4.703125 73.703125 4.796875 73.59375 4.90625 73.390625 
C 9.703125 68.40625 21.90625 55.75 21.90625 24.75 
C 21.90625 -6.359375 9.796875 -19.015625 4.90625 -24.015625 
C 4.796875 -24.203125 4.703125 -24.3125 4.703125 -24.5 
C 4.703125 -25 5.09375 -25 5.40625 -25 
C 6.5 -25 15 -17.625 19.90625 -6.65625 
C 24.90625 4.390625 26.296875 15.140625 26.296875 24.703125 
z
" id="CMR17-41"/>
    </defs>
    <g style="fill:#ff0000;" transform="translate(264.17598 450.007778)scale(0.2 -0.2)">
     <use transform="translate(0 25.505809)scale(0.996264)" xlink:href="#CMMI12-102"/>
     <use transform="translate(58.720305 61.659448)scale(0.697382)" xlink:href="#CMMI12-65"/>
     <use transform="translate(109.909601 61.659448)scale(0.697382)" xlink:href="#CMMI12-66"/>
     <use transform="translate(48.083238 0)scale(0.697382)" xlink:href="#CMMI12-106"/>
     <use transform="translate(165.802359 25.505809)scale(0.996264)" xlink:href="#CMR17-40"/>
     <use transform="translate(201.083127 25.505809)scale(0.996264)" xlink:href="#CMMI12-88"/>
     <use transform="translate(289.875689 25.505809)scale(0.996264)" xlink:href="#CMR17-41"/>
    </g>
   </g>
   <g id="text_4">
    <!-- $\;\;f^{BC}_j(Y)$ -->
    <defs>
     <path d="M 74.703125 69.109375 
C 74.703125 70 74 70 73.796875 70 
C 73.59375 70 73.203125 70 72.40625 69 
L 65.5 60.65625 
C 62 66.625 56.5 70 49 70 
C 27.40625 70 5 48.25 5 24.921875 
C 5 8.328125 16.703125 -2 31.296875 -2 
C 39.296875 -2 46.296875 1.375 52.09375 6.25 
C 60.796875 13.484375 63.40625 23.140625 63.40625 23.921875 
C 63.40625 24.8125 62.59375 24.8125 62.296875 24.8125 
C 61.40625 24.8125 61.296875 24.21875 61.09375 23.8125 
C 56.5 8.34375 43 0.890625 33 0.890625 
C 22.40625 0.890625 13.203125 7.640625 13.203125 21.734375 
C 13.203125 24.921875 14.203125 42.1875 25.5 55.1875 
C 31 61.546875 40.40625 67.109375 49.90625 67.109375 
C 60.90625 67.109375 65.796875 58.078125 65.796875 47.9375 
C 65.796875 45.359375 65.5 43.1875 65.5 42.78125 
C 65.5 41.890625 66.5 41.890625 66.796875 41.890625 
C 67.90625 41.890625 68 41.984375 68.40625 43.765625 
z
" id="CMMI12-67"/>
    </defs>
    <g style="fill:#ff0000;" transform="translate(494.171229 312.954515)scale(0.2 -0.2)">
     <use transform="translate(0 25.505809)scale(0.996264)" xlink:href="#CMMI12-102"/>
     <use transform="translate(58.720305 61.659448)scale(0.697382)" xlink:href="#CMMI12-66"/>
     <use transform="translate(114.114931 61.659448)scale(0.697382)" xlink:href="#CMMI12-67"/>
     <use transform="translate(48.083238 0)scale(0.697382)" xlink:href="#CMMI12-106"/>
     <use transform="translate(168.475608 25.505809)scale(0.996264)" xlink:href="#CMR17-40"/>
     <use transform="translate(203.756376 25.505809)scale(0.996264)" xlink:href="#CMMI12-89"/>
     <use transform="translate(282.032725 25.505809)scale(0.996264)" xlink:href="#CMR17-41"/>
    </g>
   </g>
   <g id="text_5">
    <!-- $f^{CD}_j(X)$ -->
    <defs>
     <path d="M 15.703125 7.375 
C 14.796875 3.890625 14.59375 2.890625 7.59375 2.890625 
C 5.703125 2.890625 4.703125 2.890625 4.703125 1.09375 
C 4.703125 0 5.296875 0 7.296875 0 
L 39 0 
C 59.203125 0 78.90625 20.8125 78.90625 43.015625 
C 78.90625 57.359375 70.296875 68 56 68 
L 23.90625 68 
C 22 68 21.09375 68 21.09375 66.109375 
C 21.09375 65.109375 22 65.109375 23.5 65.109375 
C 29.59375 65.109375 29.59375 64.3125 29.59375 63.21875 
C 29.59375 63.03125 29.59375 62.421875 29.203125 60.921875 
z
M 36.796875 61.421875 
C 37.703125 65.109375 38.09375 65.109375 42 65.109375 
L 53 65.109375 
C 62.40625 65.109375 71 60.03125 71 46.296875 
C 71 41.3125 69 24 59.296875 13.046875 
C 56.5 9.765625 48.90625 2.890625 37.40625 2.890625 
L 26 2.890625 
C 24.59375 2.890625 24.40625 2.890625 23.796875 3 
C 22.703125 3.09375 22.59375 3.296875 22.59375 4.09375 
C 22.59375 4.796875 22.796875 5.390625 23 6.28125 
z
" id="CMMI12-68"/>
    </defs>
    <g style="fill:#ff0000;" transform="translate(340.730943 125.221108)scale(0.2 -0.2)">
     <use transform="translate(0 25.505809)scale(0.996264)" xlink:href="#CMMI12-102"/>
     <use transform="translate(58.720305 61.659448)scale(0.697382)" xlink:href="#CMMI12-67"/>
     <use transform="translate(112.58285 61.659448)scale(0.697382)" xlink:href="#CMMI12-68"/>
     <use transform="translate(48.083238 0)scale(0.697382)" xlink:href="#CMMI12-106"/>
     <use transform="translate(171.673485 25.505809)scale(0.996264)" xlink:href="#CMR17-40"/>
     <use transform="translate(206.954253 25.505809)scale(0.996264)" xlink:href="#CMMI12-88"/>
     <use transform="translate(295.746815 25.505809)scale(0.996264)" xlink:href="#CMR17-41"/>
    </g>
   </g>
   <g id="text_6">
    <!-- $f^{DA}_j(Y)$ -->
    <g style="fill:#ff0000;" transform="translate(86.791166 255.748025)scale(0.2 -0.2)">
     <use transform="translate(0 25.505809)scale(0.996264)" xlink:href="#CMMI12-102"/>
     <use transform="translate(58.720305 61.659448)scale(0.697382)" xlink:href="#CMMI12-68"/>
     <use transform="translate(117.312808 61.659448)scale(0.697382)" xlink:href="#CMMI12-65"/>
     <use transform="translate(48.083238 0)scale(0.697382)" xlink:href="#CMMI12-106"/>
     <use transform="translate(169.000237 25.505809)scale(0.996264)" xlink:href="#CMR17-40"/>
     <use transform="translate(204.281004 25.505809)scale(0.996264)" xlink:href="#CMMI12-89"/>
     <use transform="translate(282.557353 25.505809)scale(0.996264)" xlink:href="#CMR17-41"/>
    </g>
   </g>
   <g id="text_7">
    <!-- A -->
    <defs>
     <path d="M 36.296875 68.40625 
C 35.796875 69.703125 35.59375 70 34.59375 70 
C 33.59375 70 33.40625 69.703125 32.90625 68.40625 
L 11.703125 8.84375 
C 9.796875 3.484375 5.796875 2.390625 2.296875 2.390625 
L 2.296875 -0.203125 
C 4.09375 0 8.09375 0 10 0 
C 12.5 0 16.5 0 18.90625 -0.203125 
L 18.90625 2.390625 
C 14.203125 2.390625 13.5 5.640625 13.5 6.859375 
C 13.5 7.765625 13.703125 8.28125 13.90625 8.890625 
L 19.203125 24 
L 45.40625 24 
L 51.40625 6.90625 
C 51.90625 5.703125 51.90625 5.5 51.90625 5.109375 
C 51.90625 2.390625 47.59375 2.390625 45.703125 2.390625 
L 45.703125 0 
C 48.59375 0 53.796875 0 56.90625 0 
C 59.5 0 64.5 0 66.90625 -0.203125 
L 66.90625 2.390625 
C 61.59375 2.390625 59.796875 2.390625 58.5 6.046875 
z
M 32.296875 60.828125 
L 44.5 26.59375 
L 20.09375 26.59375 
z
" id="CMR17-65"/>
    </defs>
    <g style="fill:#ff0000;" transform="translate(93.102692 399.327634)scale(0.2 -0.2)">
     <use transform="scale(0.996264)" xlink:href="#CMR17-65"/>
    </g>
   </g>
   <g id="text_8">
    <!-- B -->
    <defs>
     <path d="M 5.203125 68 
L 5.203125 65.40625 
C 12.09375 65.40625 13.203125 65.40625 13.203125 60.9375 
L 13.203125 7.0625 
C 13.203125 2.59375 12.09375 2.59375 5.203125 2.59375 
L 5.203125 0 
L 39.59375 0 
C 52.40625 0 60.703125 9.109375 60.703125 18.1875 
C 60.703125 27.203125 52.5 34.890625 41.796875 34.890625 
C 51.40625 36.8125 58.09375 43.296875 58.09375 51 
C 58.09375 59.40625 49.90625 68 37 68 
z
M 19.5 36 
L 19.5 61.515625 
C 19.5 64.921875 19.703125 65.40625 23.703125 65.40625 
L 36.5 65.40625 
C 46.40625 65.40625 50.796875 57.40625 50.796875 51.203125 
C 50.796875 43.609375 44.703125 36 33.90625 36 
z
M 23.703125 2.59375 
C 19.703125 2.59375 19.5 3.078125 19.5 6.453125 
L 19.5 34.40625 
L 38 34.40625 
C 48.296875 34.40625 53.296875 25.390625 53.296875 18.15625 
C 53.296875 10.921875 47.59375 2.59375 36.703125 2.59375 
z
" id="CMR17-66"/>
    </defs>
    <g style="fill:#ff0000;" transform="translate(457.637828 456.19834)scale(0.2 -0.2)">
     <use transform="scale(0.996264)" xlink:href="#CMR17-66"/>
    </g>
   </g>
   <g id="text_9">
    <!-- C -->
    <defs>
     <path d="M 62.09375 67.015625 
C 62.09375 68.796875 62 68.90625 61.40625 68.90625 
C 61 68.90625 60.90625 68.796875 60.203125 67.609375 
L 55.796875 59.25 
C 50.90625 65.421875 44.90625 69 37.203125 69 
C 20.09375 69 4.59375 54 4.59375 33.5625 
C 4.59375 12.90625 20.09375 -2 37.296875 -2 
C 52.59375 -2 62.09375 11.40625 62.09375 22.828125 
C 62.09375 23.8125 62.09375 24.21875 61.203125 24.21875 
C 60.40625 24.21875 60.40625 23.921875 60.296875 23.03125 
C 59.5 9.140625 49.5 0.59375 38.703125 0.59375 
C 28.5 0.59375 12.203125 7.734375 12.203125 33.546875 
C 12.203125 59.453125 28.796875 66.40625 38.5 66.40625 
C 49.796875 66.40625 58 56.6875 59.90625 42.890625 
C 60.09375 41.6875 60.09375 41.484375 61 41.484375 
C 62.09375 41.484375 62.09375 41.6875 62.09375 43.484375 
z
" id="CMR17-67"/>
    </defs>
    <g style="fill:#ff0000;" transform="translate(501.477909 169.039122)scale(0.2 -0.2)">
     <use transform="scale(0.996264)" xlink:href="#CMR17-67"/>
    </g>
   </g>
   <g id="text_10">
    <!-- D -->
    <defs>
     <path d="M 5.203125 68 
L 5.203125 65.40625 
C 12.09375 65.40625 13.203125 65.40625 13.203125 60.9375 
L 13.203125 7.0625 
C 13.203125 2.59375 12.09375 2.59375 5.203125 2.59375 
L 5.203125 0 
L 37 0 
C 53.09375 0 66 14.734375 66 33.453125 
C 66 52.28125 53.296875 68 37 68 
z
M 23.796875 2.59375 
C 19.796875 2.59375 19.59375 3.078125 19.59375 6.46875 
L 19.59375 61.53125 
C 19.59375 64.921875 19.796875 65.40625 23.796875 65.40625 
L 35 65.40625 
C 43.296875 65.40625 58.59375 60.53125 58.59375 33.453125 
C 58.59375 19.40625 54.5 13.734375 52.59375 11.046875 
C 50.203125 7.96875 44.5 2.59375 35 2.59375 
z
" id="CMR17-68"/>
    </defs>
    <g style="fill:#ff0000;" transform="translate(202.438674 105.642071)scale(0.2 -0.2)">
     <use transform="scale(0.996264)" xlink:href="#CMR17-68"/>
    </g>
   </g>
   <g id="legend_1">
    <g id="patch_8">
     <path d="M 476.973289 96.191517 
L 615.191474 96.191517 
Q 618.191474 96.191517 618.191474 93.191517 
L 618.191474 28.648862 
Q 618.191474 25.648862 615.191474 25.648862 
L 476.973289 25.648862 
Q 473.973289 25.648862 473.973289 28.648862 
L 473.973289 93.191517 
Q 473.973289 96.191517 476.973289 96.191517 
z
" style="fill:#ffffff;stroke:#cccccc;stroke-linejoin:miter;"/>
    </g>
    <g id="line2d_9">
     <path d="M 479.973289 36.898862 
L 509.973289 36.898862 
" style="fill:none;stroke:#ff0000;stroke-linecap:round;"/>
    </g>
    <g id="line2d_10"/>
    <g id="text_11">
     <!-- Cell $j$ contour -->
     <defs>
      <path d="M 38.09375 23 
C 38.5 23.40625 38.5 23.609375 38.5 24.625 
C 38.5 34.96875 33.09375 44 21.703125 44 
C 11.09375 44 2.703125 33.890625 2.703125 21.609375 
C 2.703125 8.609375 12.203125 -1 22.796875 -1 
C 34 -1 38.40625 9.484375 38.40625 11.5625 
C 38.40625 12.25 37.796875 12.25 37.59375 12.25 
C 36.90625 12.25 36.796875 12.046875 36.40625 10.875 
C 34.203125 4.140625 28.703125 0.796875 23.5 0.796875 
C 19.203125 0.796875 14.90625 3.171875 12.203125 7.5 
C 9.09375 12.546875 9.09375 18.375 9.09375 23 
z
M 9.203125 24.5 
C 9.90625 39.140625 17.59375 42.40625 21.59375 42.40625 
C 28.40625 42.40625 33 35.890625 33.09375 24.5 
z
" id="CMR17-101"/>
      <path d="M 15.296875 68.6875 
L 3.40625 67.59375 
L 3.40625 65 
C 9.296875 65 10.203125 64.40625 10.203125 59.640625 
L 10.203125 6.65625 
C 10.203125 2.875 9.796875 2.390625 3.40625 2.390625 
L 3.40625 -0.203125 
C 5.796875 0 10.203125 0 12.703125 0 
C 15.296875 0 19.703125 0 22.09375 -0.203125 
L 22.09375 2.390625 
C 15.703125 2.390625 15.296875 2.78125 15.296875 6.65625 
z
" id="CMR17-108"/>
      <path d="M 34.90625 35 
C 33 35 30.203125 35 30.203125 31.515625 
C 30.203125 28.71875 32.5 27.921875 33.796875 27.921875 
C 34.5 27.921875 37.40625 28.234375 37.40625 31.625 
C 37.40625 38.546875 30.59375 43.796875 22.90625 43.796875 
C 12.296875 43.796875 3.296875 34.03125 3.296875 21.296875 
C 3.296875 8.0625 12.703125 -1 22.90625 -1 
C 35.296875 -1 38.40625 10.578125 38.40625 11.6875 
C 38.40625 12.09375 38.296875 12.390625 37.59375 12.390625 
C 36.90625 12.390625 36.796875 12.296875 36.40625 10.984375 
C 33.796875 2.8125 28.09375 0.796875 23.796875 0.796875 
C 17.40625 0.796875 9.703125 6.671875 9.703125 21.390625 
C 9.703125 36.53125 17.09375 42 23 42 
C 26.90625 42 32.703125 40.203125 34.90625 35 
z
" id="CMR17-99"/>
      <path d="M 43.09375 21.1875 
C 43.09375 34 33.796875 44 22.90625 44 
C 12 44 2.703125 34 2.703125 21.1875 
C 2.703125 8.609375 12 -1 22.90625 -1 
C 33.796875 -1 43.09375 8.609375 43.09375 21.1875 
z
M 22.90625 0.796875 
C 18.203125 0.796875 14.203125 3.59375 11.90625 7.5 
C 9.40625 11.984375 9.09375 17.59375 9.09375 22 
C 9.09375 26.203125 9.296875 31.40625 11.90625 35.90625 
C 13.90625 39.203125 17.796875 42.40625 22.90625 42.40625 
C 27.40625 42.40625 31.203125 39.90625 33.59375 36.40625 
C 36.703125 31.703125 36.703125 25.109375 36.703125 22 
C 36.703125 18.09375 36.5 12.109375 33.796875 7.296875 
C 31 2.703125 26.703125 0.796875 22.90625 0.796875 
z
" id="CMR17-111"/>
      <path d="M 41.5 30.203125 
C 41.5 35.296875 40.5 43.59375 28.703125 43.59375 
C 20.796875 43.59375 16.703125 37.5 15.203125 33.5 
L 15.09375 33.5 
L 15.09375 43.59375 
L 3.296875 42.5 
L 3.296875 39.90625 
C 9.203125 39.90625 10.09375 39.296875 10.09375 34.5 
L 10.09375 6.6875 
C 10.09375 2.875 9.703125 2.390625 3.296875 2.390625 
L 3.296875 -0.203125 
C 5.703125 0 10.09375 0 12.703125 0 
C 15.296875 0 19.796875 0 22.203125 -0.203125 
L 22.203125 2.390625 
C 15.796875 2.390625 15.40625 2.78125 15.40625 6.6875 
L 15.40625 25.90625 
C 15.40625 35.109375 21 42 28 42 
C 35.40625 42 36.203125 35.40625 36.203125 30.59375 
L 36.203125 6.6875 
C 36.203125 2.875 35.796875 2.390625 29.40625 2.390625 
L 29.40625 -0.203125 
C 31.796875 0 36.203125 0 38.796875 0 
C 41.40625 0 45.90625 0 48.296875 -0.203125 
L 48.296875 2.390625 
C 41.90625 2.390625 41.5 2.78125 41.5 6.6875 
z
" id="CMR17-110"/>
      <path d="M 15.09375 40 
L 29.09375 40 
L 29.09375 42.578125 
L 15.09375 42.578125 
L 15.09375 61 
L 13.296875 61 
C 13.09375 50.703125 9.59375 41.6875 1.09375 41.6875 
L 1.09375 40 
L 9.796875 40 
L 9.796875 12.046875 
C 9.796875 10.15625 9.796875 -1 21.40625 -1 
C 27.296875 -1 30.703125 4.78125 30.703125 12.140625 
L 30.703125 17.8125 
L 28.90625 17.8125 
L 28.90625 12.234375 
C 28.90625 5.375 26.203125 0.796875 22 0.796875 
C 19.09375 0.796875 15.09375 2.78125 15.09375 11.84375 
z
" id="CMR17-116"/>
      <path d="M 29.40625 42.078125 
L 29.40625 39.5 
C 35.296875 39.5 36.203125 38.890625 36.203125 34.15625 
L 36.203125 16.125 
C 36.203125 7.8125 31.703125 0.59375 24.296875 0.59375 
C 16.09375 0.59375 15.40625 5.4375 15.40625 10.59375 
L 15.40625 43.171875 
L 3.296875 42.078125 
L 3.296875 39.5 
C 7.296875 39.5 10 39.5 10.09375 35.53125 
L 10.09375 16.53125 
C 10.09375 9.890625 10.09375 5.640625 12.703125 2.859375 
C 14 1.578125 16.5 -1 23.703125 -1 
C 32.203125 -1 35.5 5.890625 36.296875 7.90625 
L 36.40625 7.90625 
L 36.40625 -0.984375 
L 48.296875 -0.984375 
L 48.296875 2 
C 42.40625 2 41.5 2.59375 41.5 7.390625 
L 41.5 43.171875 
z
" id="CMR17-117"/>
      <path d="M 15 23.390625 
C 15 33 19.09375 42 26.59375 42 
C 27.296875 42 28 41.90625 28.703125 41.59375 
C 28.703125 41.59375 26.5 40.890625 26.5 38.3125 
C 26.5 35.90625 28.40625 34.90625 29.90625 34.90625 
C 31.09375 34.90625 33.296875 35.609375 33.296875 38.40625 
C 33.296875 41.609375 30.09375 43.59375 26.703125 43.59375 
C 19.09375 43.59375 15.796875 36.203125 14.796875 32.703125 
L 14.703125 32.703125 
L 14.703125 43.59375 
L 3.09375 42.5 
L 3.09375 39.90625 
C 9 39.90625 9.90625 39.296875 9.90625 34.5 
L 9.90625 6.6875 
C 9.90625 2.875 9.5 2.390625 3.09375 2.390625 
L 3.09375 -0.203125 
C 5.5 0 10.09375 0 12.703125 0 
C 15.59375 0 20.703125 0 23.40625 -0.203125 
L 23.40625 2.390625 
C 16.203125 2.390625 15 2.390625 15 6.875 
z
" id="CMR17-114"/>
     </defs>
     <g style="fill:#262626;" transform="translate(521.973289 42.148862)scale(0.15 -0.15)">
      <use transform="scale(0.996264)" xlink:href="#CMR17-67"/>
      <use transform="translate(66.509881 0)scale(0.996264)" xlink:href="#CMR17-101"/>
      <use transform="translate(106.995541 0)scale(0.996264)" xlink:href="#CMR17-108"/>
      <use transform="translate(131.866599 0)scale(0.996264)" xlink:href="#CMR17-108"/>
      <use transform="translate(186.813624 0)scale(0.996264)" xlink:href="#CMMI12-106"/>
      <use transform="translate(262.852073 0)scale(0.996264)" xlink:href="#CMR17-99"/>
      <use transform="translate(303.337734 0)scale(0.996264)" xlink:href="#CMR17-111"/>
      <use transform="translate(349.028211 0)scale(0.996264)" xlink:href="#CMR17-110"/>
      <use transform="translate(397.321127 0)scale(0.996264)" xlink:href="#CMR17-116"/>
      <use transform="translate(432.601895 0)scale(0.996264)" xlink:href="#CMR17-111"/>
      <use transform="translate(478.292372 0)scale(0.996264)" xlink:href="#CMR17-117"/>
      <use transform="translate(529.187741 0)scale(0.996264)" xlink:href="#CMR17-114"/>
     </g>
    </g>
    <g id="line2d_11">
     <path d="M 479.973289 59.052195 
L 509.973289 59.052195 
" style="fill:none;stroke:#ff0000;stroke-dasharray:3.7,1.6;stroke-dashoffset:0;"/>
    </g>
    <g id="line2d_12"/>
    <g id="text_12">
     <!-- $f_{j}$ -->
     <g style="fill:#262626;" transform="translate(521.973289 64.302195)scale(0.15 -0.15)">
      <use transform="translate(0 14.943915)scale(0.996264)" xlink:href="#CMMI12-102"/>
      <use transform="translate(48.083238 0)scale(0.697382)" xlink:href="#CMMI12-106"/>
     </g>
    </g>
    <g id="patch_9">
     <path d="M 479.973289 87.285773 
L 509.973289 87.285773 
L 509.973289 76.785773 
L 479.973289 76.785773 
z
" style="fill:#89bad9;stroke:#89bad9;stroke-linejoin:miter;"/>
    </g>
    <g id="text_13">
     <!-- $I_j(X,Y) = 1$ -->
     <defs>
      <path d="M 36.796875 60.625 
C 37.703125 64.109375 37.90625 65.109375 45.203125 65.109375 
C 47.40625 65.109375 48.203125 65.109375 48.203125 67 
C 48.203125 68 47.09375 68 46.796875 68 
C 45 68 42.796875 68 41 68 
L 28.703125 68 
C 26.703125 68 24.40625 68 22.40625 68 
C 21.59375 68 20.5 68 20.5 66.109375 
C 20.5 65.109375 21.296875 65.109375 23.296875 65.109375 
C 29.5 65.109375 29.5 64.3125 29.5 63.21875 
C 29.5 62.53125 29.296875 61.921875 29.09375 61.03125 
L 15.59375 7.375 
C 14.703125 3.890625 14.5 2.890625 7.203125 2.890625 
C 5 2.890625 4.09375 2.890625 4.09375 1 
C 4.09375 0 5.09375 0 5.59375 0 
C 7.40625 0 9.59375 0 11.40625 0 
L 23.703125 0 
C 25.703125 0 27.90625 0 29.90625 0 
C 30.703125 0 31.90625 0 31.90625 1.796875 
C 31.90625 2.890625 31.296875 2.890625 29.09375 2.890625 
C 22.90625 2.890625 22.90625 3.6875 22.90625 4.875 
C 22.90625 5.078125 22.90625 5.578125 23.296875 7.171875 
z
" id="CMMI12-73"/>
      <path d="M 19.5 -0.484375 
C 19.5 5.359375 17.59375 9.671875 13.5 9.671875 
C 10.296875 9.671875 8.703125 7.078125 8.703125 4.890625 
C 8.703125 2.6875 10.203125 0 13.59375 0 
C 14.90625 0 16 0.40625 16.90625 1.296875 
C 17.09375 1.5 17.203125 1.5 17.296875 1.5 
C 17.5 1.5 17.5 0.078125 17.5 -0.421875 
C 17.5 -3.75 16.90625 -10.296875 11.09375 -16.875 
C 10 -18.078125 10 -18.28125 10 -18.484375 
C 10 -19 10.5 -19.5 11 -19.5 
C 11.796875 -19.5 19.5 -12.046875 19.5 -0.484375 
z
" id="CMMI12-59"/>
      <path d="M 64.296875 31.515625 
C 65.796875 31.515625 67.296875 31.515625 67.296875 33.203125 
C 67.296875 35 65.59375 35 63.90625 35 
L 8 35 
C 6.296875 35 4.59375 35 4.59375 33.203125 
C 4.59375 31.515625 6.09375 31.515625 7.59375 31.515625 
z
M 63.90625 14 
C 65.59375 14 67.296875 14 67.296875 15.796875 
C 67.296875 17.484375 65.796875 17.484375 64.296875 17.484375 
L 7.59375 17.484375 
C 6.09375 17.484375 4.59375 17.484375 4.59375 15.796875 
C 4.59375 14 6.296875 14 8 14 
z
" id="CMR17-61"/>
      <path d="M 26.59375 63.40625 
C 26.59375 65.5 26.5 65.5 25.09375 65.5 
C 21.203125 61.1875 15.296875 59.796875 9.703125 59.796875 
C 9.40625 59.796875 8.90625 59.796875 8.796875 59.5 
C 8.703125 59.296875 8.703125 59.09375 8.703125 57 
C 11.796875 57 17 57.59375 21 59.984375 
L 21 7.203125 
C 21 3.6875 20.796875 2.5 12.203125 2.5 
L 9.203125 2.5 
L 9.203125 0 
C 14 0 19 0 23.796875 0 
C 28.59375 0 33.59375 0 38.40625 0 
L 38.40625 2.5 
L 35.40625 2.5 
C 26.796875 2.5 26.59375 3.59375 26.59375 7.15625 
z
" id="CMR17-49"/>
     </defs>
     <g style="fill:#262626;" transform="translate(521.973289 87.285773)scale(0.15 -0.15)">
      <use transform="translate(0 14.943915)scale(0.996264)" xlink:href="#CMMI12-73"/>
      <use transform="translate(43.024176 0)scale(0.697382)" xlink:href="#CMMI12-106"/>
      <use transform="translate(75.695892 14.943915)scale(0.996264)" xlink:href="#CMR17-40"/>
      <use transform="translate(110.97666 14.943915)scale(0.996264)" xlink:href="#CMMI12-88"/>
      <use transform="translate(194.349786 14.943915)scale(0.996264)" xlink:href="#CMMI12-59"/>
      <use transform="translate(238.051369 14.943915)scale(0.996264)" xlink:href="#CMMI12-89"/>
      <use transform="translate(316.327718 14.943915)scale(0.996264)" xlink:href="#CMR17-41"/>
      <use transform="translate(379.282494 14.943915)scale(0.996264)" xlink:href="#CMR17-61"/>
      <use transform="translate(478.671291 14.943915)scale(0.996264)" xlink:href="#CMR17-49"/>
     </g>
    </g>
   </g>
  </g>
 </g>
 <defs>
  <clipPath id="p2b1276a8f8">
   <rect height="522.107668" width="584.534422" x="41.157052" y="18.148862"/>
  </clipPath>
 </defs>
</svg>
